<svg width="77" height="40" fill="none" xmlns="http://www.w3.org/2000/svg"><path d="M70.12 11.86v16.472c0 1.958 1.177 2.666 2.967 2.666h3.426V11.859H70.12ZM40.148 11.86v16.472c0 1.958 1.181 2.666 2.968 2.666h3.427V11.859h-6.395ZM36.231 15.192v-3.33H21.526v16.472c0 1.957 1.184 2.666 2.968 2.666h11.734v-3.33h-8.31v-4.736h7.698V19.6h-7.698v-4.412h8.31l.003.003ZM11.723 19.525l6.921-7.666h-4.837l-7.418 8.429v-8.429H0v16.473c0 1.958 1.18 2.666 2.965 2.666H6.39v-9.299l4.777 6.836c1.161 1.79 2.317 2.463 4.727 2.463h3.904L11.72 19.522l.003.003ZM51.595 11.86h-2.586v3.58h6.125v12.895c0 1.957 1.18 2.666 2.965 2.666h3.429V19.824c0-2.833-2.416-7.965-9.933-7.965ZM67.653 15.44v-3.58h-8.656a12.399 12.399 0 0 1 2.531 3.582l6.125-.003Z" fill="#fff" style="fill:#fff;fill-opacity:1"/><path d="M57.79 9.97C51.452.56 43.01.373 37.755 1.441c-6.202 1.26-11.734 3.97-19.64 3.196 1.921 2.07 4.526 3.97 7.217 4.524 3.457.717 8.055-.159 10.773-1.123 3.638-1.285 6.83-2.745 10.919-2.531 4.102.214 8.14 2.177 10.77 4.461h-.002Z" fill="#83B02D" style="fill:color(display-p3 .5137 .6902 .1765);fill-opacity:1"/></svg>