
<svg width="235" height="40" fill="none" xmlns="http://www.w3.org/2000/svg"><path d="M69.889 10.822V27.24c0 1.95 1.174 2.655 2.961 2.655h3.41V10.823H69.89ZM40.024 10.822V27.24c0 1.95 1.175 2.655 2.954 2.655h3.418V10.823h-6.372ZM36.115 14.146v-3.318H21.457v16.417c0 1.95 1.175 2.655 2.954 2.655h11.697v-3.317h-8.286v-4.72h7.674v-3.318h-7.674v-4.4h8.293ZM0 10.822V27.24c0 1.95 1.175 2.655 2.962 2.655h3.41V10.823H0Z" fill="#fff" style="fill:#fff;fill-opacity:1"/><path d="M8.892 17.654 6.13 20.288l4.997 7.155c1.161 1.787 2.307 2.456 4.713 2.456h3.895l-8.223-11.682-2.62-.563Z" fill="#fff" style="fill:#fff;fill-opacity:1"/><path d="m5.432 20.29 8.33-9.468h4.826l-7.126 7.888-3.546 1.317-2.484.264ZM51.429 10.822h-2.577v3.567h6.108v12.85c0 1.95 1.175 2.655 2.954 2.655h3.417V18.76c0-2.826-2.406-7.938-9.895-7.938h-.007ZM67.432 14.389v-3.567h-8.628a12.286 12.286 0 0 1 2.52 3.574h6.108v-.007ZM57.601 8.942c-6.315-9.376-14.73-9.568-19.97-8.5-6.186 1.26-11.696 3.958-19.577 3.182 1.915 2.064 4.514 3.958 7.198 4.513 3.445.712 8.023-.163 10.735-1.117 3.624-1.282 6.806-2.734 10.878-2.52 4.087.213 8.116 2.17 10.736 4.449v-.007ZM100.886 10.992h-2.62v13.54h2.62v-13.54Z" fill="#fff" style="fill:#fff;fill-opacity:1"/><path d="M103.278 15.207h-3.453v1.68h3.453v-1.68ZM93.475 10.822h-2.613v2.62h2.613v-2.62Z" fill="#fff" style="fill:#fff;fill-opacity:1"/><path d="M96.899 12.723h-9.455v1.68H96.9v-1.68ZM92.998 27.657v-4.1h-2.613v3.858c0 1.225.897 1.915 2.057 1.915h8.657v-1.673h-8.102Z" fill="#fff" style="fill:#fff;fill-opacity:1"/><path d="M92.172 13.135c-2.449 0-4.435 1.95-4.435 4.364 0 2.413 1.986 4.364 4.435 4.364s4.428-1.958 4.428-4.364c0-2.406-1.986-4.364-4.428-4.364Zm0 7.076c-.997 0-1.808-1.238-1.808-2.762s.811-2.755 1.808-2.755 1.815 1.231 1.815 2.755c0 1.523-.811 2.762-1.815 2.762ZM126.522 27.657v-3.075h-2.613v2.834c0 1.224.897 1.915 2.058 1.915h8.657v-1.674h-8.102ZM134.417 10.992h-2.62v14.125h2.62V10.992Z" fill="#fff" style="fill:#fff;fill-opacity:1"/><path d="M128.294 23.564h-7.318V21.89h7.318c1.908 0 3.225-.192 4.514-.74v1.352c-.919.506-1.965 1.068-4.514 1.068v-.007ZM136.795 15.42h-3.439v1.68h3.439v-1.68ZM127.155 10.822h-2.62v2.62h2.62v-2.62Z" fill="#fff" style="fill:#fff;fill-opacity:1"/><path d="M130.572 12.723h-9.454v1.68h9.454v-1.68ZM127.155 19.764h-2.62v2.904h2.62v-2.904Z" fill="#fff" style="fill:#fff;fill-opacity:1"/><path d="M125.845 13.22c-2.335 0-4.229 1.702-4.229 3.81 0 2.107 1.894 3.801 4.229 3.801s4.229-1.701 4.229-3.802c0-2.1-1.887-3.808-4.229-3.808Zm0 6.016c-.99 0-1.794-1.046-1.794-2.335 0-1.288.804-2.335 1.794-2.335s1.794 1.047 1.794 2.335c0 1.289-.804 2.335-1.794 2.335ZM183.104 14.943h-3.453v1.68h3.453v-1.68ZM183.24 24.07h-7.127v1.68h7.127v-1.68Z" fill="#fff" style="fill:#fff;fill-opacity:1"/><path d="M177.218 27.65v-5.752h-2.62v5.518c0 1.224.904 1.915 2.057 1.915h8.621v-1.68h-8.058ZM185.276 10.992h-2.62v9.547h2.62v-9.547Z" fill="#fff" style="fill:#fff;fill-opacity:1"/><path d="M185.276 21.906h-2.62v6.756h2.62v-6.756ZM176.065 11.127c-2.535 0-4.592 2.079-4.592 4.649s2.057 4.642 4.592 4.642c2.534 0 4.591-2.08 4.591-4.642 0-2.563-2.057-4.649-4.591-4.649Zm0 7.596c-1.09 0-1.972-1.317-1.972-2.94s.882-2.947 1.972-2.947c1.089 0 1.979 1.317 1.979 2.947 0 1.63-.883 2.94-1.979 2.94ZM226.703 27.657v-3.075h-2.613v2.84c0 1.225.904 1.916 2.057 1.916h8.657v-1.673h-8.101v-.008ZM226.709 20.275h-2.612v3.161h2.612v-3.16Z" fill="#fff" style="fill:#fff;fill-opacity:1"/><path d="M230.832 19.713h-10.423v1.595h10.423v-1.595ZM234.597 10.992h-2.619v13.996h2.619V10.992Z" fill="#fff" style="fill:#fff;fill-opacity:1"/><path d="M232.846 22.234h-4.328v1.595h4.328v-1.595ZM225.363 10.992c-2.399 0-4.349 1.787-4.349 3.994 0 2.207 1.943 3.987 4.349 3.987 2.407 0 4.35-1.787 4.35-3.987s-1.95-3.994-4.35-3.994Zm0 6.293c-1.039 0-1.879-1.032-1.879-2.306s.84-2.307 1.879-2.307c1.04 0 1.88 1.033 1.88 2.307s-.84 2.306-1.88 2.306ZM112.825 19.207h-2.62v4.457h2.62v-4.457Z" fill="#fff" style="fill:#fff;fill-opacity:1"/><path d="M117.424 22.633h-11.476v1.68h11.476v-1.68Z" fill="#fff" style="fill:#fff;fill-opacity:1"/><path d="M117.424 23.28h-2.62v6.058h2.62v-6.059ZM119.203 18.104H104.16v1.68h15.043v-1.68ZM117.253 13.128H105.99v-1.673h11.391l-.128 1.673Z" fill="#fff" style="fill:#fff;fill-opacity:1"/><path d="M114.405 18.496c.214-1.51.314-4.307.314-5.581l2.662-1.46c0 1.723-.242 4.962-.634 7.04h-2.342ZM167.757 10.992h-2.62v13.54h2.62v-13.54Z" fill="#fff" style="fill:#fff;fill-opacity:1"/><path d="M170.14 15.207h-3.452v1.68h3.452v-1.68ZM159.861 27.659v-4.464h-2.613v4.222c0 1.224.904 1.915 2.057 1.915h8.657v-1.673h-8.101ZM157.746 11.46h2.862c-.256 2.841-1.516 7.077-6.3 10.11l-1.054-1.075c2.812-2.242 4.186-5.29 4.492-9.034Z" fill="#fff" style="fill:#fff;fill-opacity:1"/><path d="m158.237 16.907 4.464 4.442 1.467-1.808-5.283-3.908-.648 1.274ZM201.521 10.992h-2.62v18.346h2.62V10.992ZM196.66 12.716l-.534.975h-7.66v-1.687h8.365l-.171.712Z" fill="#fff" style="fill:#fff;fill-opacity:1"/><path d="M196.831 12.004c-.349 4.606-1.844 8.977-8.166 11.953l-.954-1.182c5.432-3.11 5.887-7.731 5.987-9.12M212.856 20.232h-2.613v3.154h2.613v-3.154Z" fill="#fff" style="fill:#fff;fill-opacity:1"/><path d="M219.149 19.215h-15.192v1.595h15.192v-1.595ZM217.142 22.133h-11.177v1.602h11.177v-1.602ZM217.142 24.959h-11.177v1.602h11.177v-1.602Z" fill="#fff" style="fill:#fff;fill-opacity:1"/><path d="M217.141 22.148h-2.613v4.386h2.613v-4.386ZM208.585 27.737V25.36h-2.62v2.058c0 1.224.904 1.915 2.057 1.915h9.12v-1.595h-8.557ZM210.613 10.992h2.947c-.64 2.87-3.139 5.596-7.752 7.198l-1.054-1.075c3.915-1.66 5.382-4.193 5.852-6.116l.007-.007Z" fill="#fff" style="fill:#fff;fill-opacity:1"/><path d="m211.126 14.267 5.717 3.93 1.409-1.858-6.329-3.282-.797 1.21ZM151.731 10.992h-2.613v10.373h2.613V10.992Z" fill="#fff" style="fill:#fff;fill-opacity:1"/><path d="M149.567 13.783h-2.976v1.68h2.976v-1.68ZM149.567 17.371h-2.976v1.673h2.976v-1.673ZM146.563 21.57c-2.613 0-4.727 1.887-4.727 4.215s2.114 4.214 4.727 4.214c2.613 0 4.72-1.886 4.72-4.214 0-2.328-2.114-4.215-4.72-4.215Zm0 6.72c-1.118 0-2.029-1.117-2.029-2.505s.911-2.499 2.029-2.499c1.118 0 2.029 1.118 2.029 2.499s-.904 2.506-2.029 2.506ZM146.319 12.074l-2.021 1.054h-5.788v-1.673h8.08l-.271.62Z" fill="#fff" style="fill:#fff;fill-opacity:1"/><path d="M143.507 12.979c-.249 2.071-1.367 5.474-5.339 7.695l.954 1.182c4.293-2.15 6.977-4.933 7.468-10.4l-1.744.633-1.339.89Z" fill="#fff" style="fill:#fff;fill-opacity:1"/></svg>