<svg width="105" height="40" fill="none" xmlns="http://www.w3.org/2000/svg"><g clip-path="url(#a)"><path d="M61.99 21.47v1.755H51.179v-1.756h4.342v-.997a3.005 3.005 0 0 1-.351-.129 3.38 3.38 0 0 1-1.09-.666 3.207 3.207 0 0 1-.758-.996 2.765 2.765 0 0 1-.279-1.22c0-.427.097-.826.295-1.218.149-.319.339-.601.573-.851h-2.442v-1.736h3.882v-1.59h2.272v1.59h3.862v1.736h-2.42c.233.246.435.532.608.851.174.396.259.803.259 1.219 0 .416-.093.84-.279 1.219a3.289 3.289 0 0 1-.738.996c-.32.283-.69.505-1.11.666-.113.049-.23.093-.351.13v.996h4.536Zm-7.76 2.9v2.478h11.404v1.72H52.179V24.37h2.055-.005Zm3.862-6.948c0-.42-.158-.791-.473-1.11a1.518 1.518 0 0 0-1.117-.48c-.432 0-.803.16-1.118.48-.315.319-.473.69-.473 1.11 0 .42.158.799.473 1.11.315.31.686.46 1.117.46.432 0 .804-.154 1.118-.46.315-.307.473-.679.473-1.11Zm7.098-.335h2.106v1.94H65.19v4.75h-2.05V12.41h2.05v4.678ZM78.126 20.617h-2.05v-6.025h-6.045V12.76h8.095v7.857Zm5.452 4.77c0 .557-.113 1.074-.343 1.562a4.213 4.213 0 0 1-.916 1.283 4.548 4.548 0 0 1-1.376.876 4.332 4.332 0 0 1-1.654.323 4.389 4.389 0 0 1-1.663-.323 4.51 4.51 0 0 1-1.388-.876 4.474 4.474 0 0 1-.896-1.283 3.676 3.676 0 0 1-.343-1.562c0-.553.113-1.073.343-1.561.226-.489.529-.916.896-1.284a4.473 4.473 0 0 1 1.388-.88 4.404 4.404 0 0 1 1.663-.322c.577 0 1.13.109 1.654.323.525.218.98.508 1.376.88.384.367.686.794.916 1.283.226.488.343 1.008.343 1.561Zm-2.013-.02c0-.617-.23-1.146-.682-1.59a2.233 2.233 0 0 0-1.61-.666c-.618 0-1.15.222-1.599.666-.448.444-.674.973-.674 1.59 0 .618.227 1.162.674 1.598a2.22 2.22 0 0 0 1.598.654c.614 0 1.155-.218 1.61-.654a2.13 2.13 0 0 0 .683-1.598Zm.682-12.958h2.05v8.652h-2.05V19.23h-2.7V17.53h2.7v-1.57h-2.7v-1.682h2.7v-1.869ZM89.2 22.824h15.157v1.812h-6.562v4.253h-2.05v-4.253h-6.542v-1.812H89.2Zm3.236-8.059h8.668v-2.09h2.034v7.93H90.422v-7.93h2.014v2.09Zm8.668 1.772h-8.668v2.272h8.668v-2.272Z" fill="#fff" style="fill:#fff;fill-opacity:1"/><path d="M30.884 19.096c-3.475-2.365-7.926-1.396-10.263 2.15a7.254 7.254 0 0 1-6.037 3.338c-3.72 0-6.263-2.615-7.013-5.323-.008-.024-.013-.048-.025-.076a.452.452 0 0 0-.024-.093c-.298-1.126-.371-1.667-.371-2.87 0-6.468 6.638-13.676 16.202-13.676 9.564 0 15.396 7.454 16.836 11.598a3.507 3.507 0 0 0-.072-.222C37.344 5.827 29.657 0 20.613 0 9.23 0 0 9.23 0 20.617c0 10.178 7.337 18.89 17.522 18.89 8.12 0 13.58-4.552 16.081-10.83 1.373-3.431.4-7.462-2.72-9.585" fill="#153B62" style="fill:color(display-p3 .0824 .2314 .3843);fill-opacity:1"/><path d="M40.323 14.552c-1.203-4.04-6.848-12.001-16.965-12.001-9.565 0-16.199 7.203-16.199 13.672 0 1.203.073 1.743.371 2.87a5.99 5.99 0 0 1-.19-1.47c0-6.739 6.748-11.408 13.685-11.408 9.39 0 17.002 7.61 17.002 16.997 0 7.357-4.238 13.725-10.392 16.788 7.934-2.865 13.6-10.468 13.6-19.386 0-2.115-.287-3.975-.908-6.066" fill="#D71C35" style="fill:color(display-p3 .8431 .1098 .2078);fill-opacity:1"/></g><defs><clipPath id="a"><path fill="#fff" style="fill:#fff;fill-opacity:1" d="M0 0h105v40H0z"/></clipPath></defs></svg>