<svg width="158" height="176" fill="none" xmlns="http://www.w3.org/2000/svg"><path d="m3.351 37.485.011-.014c.003-.006.006-.009.012-.014a.05.05 0 0 1 .01-.014.05.05 0 0 1 .012-.015.048.048 0 0 1 .011-.014l.012-.014c.003-.005.005-.008.011-.014.003-.006.006-.008.011-.014.003-.006.006-.008.012-.014a.05.05 0 0 1 .01-.014.05.05 0 0 1 .012-.014c.003-.006.006-.009.012-.014a.048.048 0 0 1 .01-.015l.012-.014.011-.014c.003-.006.006-.008.012-.014a.05.05 0 0 1 .011-.014c.003-.006.006-.009.011-.014a.048.048 0 0 1 .012-.014c.002-.006.005-.009.01-.014l.012-.015.011-.014.012-.014a.05.05 0 0 1 .011-.014.048.048 0 0 1 .011-.014c.003-.006.006-.008.012-.014.002-.006.005-.009.01-.014l.012-.014c.003-.006.006-.009.011-.015a.05.05 0 0 1 .012-.014.05.05 0 0 1 .011-.014.048.048 0 0 1 .011-.014.048.048 0 0 1 .012-.014c.002-.006.005-.008.01-.014l.012-.014c.003-.006.006-.009.012-.014a.05.05 0 0 1 .01-.014.05.05 0 0 1 .012-.014.048.048 0 0 1 .011-.015l.012-.014c.003-.005.005-.008.011-.014l.011-.014c.003-.006.006-.008.012-.014a.05.05 0 0 1 .01-.014c.004-.006.006-.009.012-.014.003-.006.006-.009.011-.014.003-.006.006-.009.012-.015.003-.005.005-.008.011-.014l.011-.014a.05.05 0 0 1 .012-.014.05.05 0 0 1 .01-.014.048.048 0 0 1 .012-.014.048.048 0 0 1 .011-.014c.003-.006.006-.009.012-.014.003-.006.005-.009.011-.014.003-.006.006-.009.011-.015a.05.05 0 0 1 .012-.014.05.05 0 0 1 .01-.014l.012-.014a.048.048 0 0 1 .012-.014c.002-.006.005-.008.01-.014.004-.006.006-.009.012-.014.003-.006.006-.009.011-.014a.05.05 0 0 1 .012-.014c.003-.006.005-.009.011-.015a.048.048 0 0 1 .011-.014l.012-.014c.002-.006.005-.008.01-.014l.012-.014a.05.05 0 0 1 .011-.014.05.05 0 0 1 .012-.014.048.048 0 0 1 .011-.014c.003-.006.006-.009.011-.014.003-.006.006-.009.012-.015.002-.005.005-.008.01-.014l.012-.014a.05.05 0 0 1 .011-.014.05.05 0 0 1 .012-.014c.003-.006.005-.009.011-.014.003-.006.006-.009.011-.014.003-.006.006-.009.012-.014.002-.006.005-.009.01-.015l.012-.014A.05.05 0 0 1 4.3 36.3a.048.048 0 0 1 .01-.014l.012-.014c.003-.006.006-.008.011-.014.003-.006.006-.009.012-.014.003-.006.005-.009.011-.014a.05.05 0 0 1 .011-.014.05.05 0 0 1 .012-.015.048.048 0 0 1 .01-.014l.012-.014.011-.014c.003-.006.006-.008.012-.014.003-.006.005-.008.011-.014a.05.05 0 0 1 .011-.014.05.05 0 0 1 .012-.014c.002-.006.005-.009.01-.014a3.298 3.298 0 0 1 1.781-1.262l38.507-11.222a3.333 3.333 0 0 1 3.92 1.725L75.41 79.536a3.327 3.327 0 0 1-.341 3.495l-.011.014c-.003.006-.006.008-.012.014-.003.006-.005.008-.011.014-.003.006-.006.009-.011.014a.048.048 0 0 1-.012.014.047.047 0 0 1-.01.014.047.047 0 0 1-.012.015.049.049 0 0 1-.011.014l-.012.014a.05.05 0 0 1-.011.014.048.048 0 0 1-.011.014.05.05 0 0 1-.012.014.05.05 0 0 1-.01.014.05.05 0 0 1-.012.014c-.003.006-.006.009-.011.015l-.012.014-.011.014a.048.048 0 0 1-.011.014.047.047 0 0 1-.012.014.047.047 0 0 1-.011.014.049.049 0 0 1-.011.014c-.003.006-.006.009-.012.014-.002.006-.005.009-.01.015l-.012.014a.052.052 0 0 1-.011.014.05.05 0 0 1-.012.014.05.05 0 0 1-.011.014c-.003.006-.006.008-.011.014-.003.006-.006.008-.012.014-.002.006-.005.009-.01.014a.048.048 0 0 1-.012.014.048.048 0 0 1-.011.014.047.047 0 0 1-.012.015.047.047 0 0 1-.011.014l-.011.014-.012.014c-.003.006-.005.008-.01.014a.052.052 0 0 1-.012.014.05.05 0 0 1-.011.014c-.003.006-.006.009-.012.014-.003.006-.005.009-.011.014-.003.006-.006.009-.011.015l-.012.014c-.002.005-.005.008-.011.014a.048.048 0 0 1-.011.014.047.047 0 0 1-.012.014.047.047 0 0 1-.01.014l-.012.014c-.003.006-.006.009-.011.014-.003.006-.006.009-.012.015a.052.052 0 0 1-.011.014.052.052 0 0 1-.011.014l-.012.014c-.002.006-.005.008-.01.014a.049.049 0 0 1-.012.014.05.05 0 0 1-.011.014c-.003.006-.006.009-.012.014a.048.048 0 0 1-.011.015.047.047 0 0 1-.011.014.047.047 0 0 1-.012.014.048.048 0 0 1-.01.014l-.012.014c-.003.006-.006.008-.011.014-.003.006-.006.008-.012.014-.003.006-.005.009-.011.014-.003.006-.006.009-.011.014-.003.006-.006.009-.012.014a.049.049 0 0 1-.011.015l-.011.014-.012.014a.048.048 0 0 1-.01.014.048.048 0 0 1-.012.014.048.048 0 0 1-.011.014.05.05 0 0 1-.012.014c-.003.006-.005.009-.011.014-.003.006-.006.009-.011.015l-.012.014c-.002.005-.005.008-.01.014l-.012.014a.047.047 0 0 1-.012.014.047.047 0 0 1-.01.014.049.049 0 0 1-.012.014c-.003.006-.006.009-.011.014a.05.05 0 0 1-.012.014.048.048 0 0 1-.011.015l-.011.014a.05.05 0 0 1-.011.014l-.012.014c-.003.006-.005.008-.011.014-.003.006-.006.008-.011.014-.003.006-.006.009-.012.014a.048.048 0 0 1-.011.014.047.047 0 0 1-.011.015.047.047 0 0 1-.012.014.049.049 0 0 1-.01.014l-.012.014a3.297 3.297 0 0 1-1.77 1.248L33.709 96.86a3.332 3.332 0 0 1-3.92-1.725L3.054 40.926a3.327 3.327 0 0 1 .296-3.438v-.003Z" fill="#2D2B29"/><path d="M1.08 40.373s.005-.009.01-.014a.048.048 0 0 1 .012-.015.048.048 0 0 1 .011-.014l.012-.014c.003-.006.005-.008.011-.014.003-.006.006-.008.011-.014a.05.05 0 0 1 .012-.014.05.05 0 0 1 .01-.014.048.048 0 0 1 .012-.014c.003-.006.006-.009.011-.015l.012-.014c.003-.005.005-.008.011-.014l.011-.014a.05.05 0 0 1 .012-.014.05.05 0 0 1 .01-.014.048.048 0 0 1 .012-.014c.003-.006.006-.009.011-.014.003-.006.006-.009.012-.015.003-.005.005-.008.011-.014l.011-.014a.05.05 0 0 1 .012-.014c.002-.005.005-.008.01-.014a.048.048 0 0 1 .012-.014c.003-.006.006-.009.012-.014.002-.006.005-.009.01-.014.004-.006.006-.009.012-.014a.05.05 0 0 1 .011-.014.05.05 0 0 1 .012-.015c.003-.005.005-.008.011-.014l.011-.014.012-.014c.002-.006.005-.008.01-.014l.012-.014a.05.05 0 0 1 .011-.014.05.05 0 0 1 .012-.014c.003-.006.005-.009.011-.014a.048.048 0 0 1 .011-.015l.012-.014c.002-.005.005-.008.01-.014l.012-.014a.05.05 0 0 1 .011-.014.05.05 0 0 1 .012-.014c.003-.006.005-.009.011-.014.003-.006.006-.009.011-.014.003-.006.006-.009.012-.015.002-.005.005-.008.011-.014l.011-.014a.05.05 0 0 1 .012-.014c.002-.006.005-.008.01-.014a.048.048 0 0 1 .012-.014c.003-.006.006-.009.011-.014.003-.006.006-.009.012-.014.003-.006.005-.009.011-.015a.05.05 0 0 1 .011-.014.05.05 0 0 1 .012-.014.048.048 0 0 1 .01-.014l.012-.014c.003-.006.006-.008.011-.014.003-.006.006-.009.012-.014.003-.006.005-.009.011-.014a.05.05 0 0 1 .011-.014.05.05 0 0 1 .012-.014c.002-.006.005-.009.01-.015l.012-.014.011-.014.012-.014c.003-.006.005-.008.011-.014a.05.05 0 0 1 .011-.014.048.048 0 0 1 .012-.014c.002-.006.005-.009.01-.014l.012-.015.012-.014c.002-.005.005-.008.01-.014a.05.05 0 0 1 .012-.014.05.05 0 0 1 .011-.014c.003-.006.006-.008.012-.014.003-.006.005-.009.011-.014.003-.006.006-.009.011-.014.003-.006.006-.009.012-.014.002-.006.005-.009.01-.015a.05.05 0 0 1 .012-.014.05.05 0 0 1 .011-.014.048.048 0 0 1 .012-.014.048.048 0 0 1 .011-.014c.003-.006.006-.008.011-.014.003-.006.006-.009.012-.014.002-.006.005-.009.01-.014a.05.05 0 0 1 .012-.015l.011-.014.012-.014a.048.048 0 0 1 .011-.014l.011-.014c.003-.006.006-.008.012-.014a.05.05 0 0 1 .011-.014.05.05 0 0 1 .011-.014c.003-.006.006-.009.012-.014a.048.048 0 0 1 .01-.014l.012-.015.011-.014.012-.014a3.298 3.298 0 0 1 1.77-1.248l38.505-11.221a3.333 3.333 0 0 1 3.921 1.725L73.14 82.424a3.327 3.327 0 0 1-.296 3.438c-.003.006-.006.009-.012.014-.003.006-.005.009-.011.014-.003.006-.006.009-.011.014a.052.052 0 0 1-.012.015c-.002.005-.005.008-.01.014l-.012.014-.012.014a.049.049 0 0 1-.01.014.05.05 0 0 1-.012.014c-.003.006-.006.009-.011.014a.048.048 0 0 1-.012.014.048.048 0 0 1-.011.014.047.047 0 0 1-.011.015.048.048 0 0 1-.011.014l-.012.014c-.003.005-.005.008-.011.014-.003.006-.006.008-.011.014a.05.05 0 0 1-.012.014.05.05 0 0 1-.011.014c-.003.006-.006.009-.011.014-.003.006-.006.009-.012.015a.05.05 0 0 1-.01.014l-.012.014-.011.014a.048.048 0 0 1-.012.014c-.003.006-.005.008-.011.014a.05.05 0 0 1-.011.014c-.003.006-.006.009-.012.014-.002.006-.005.009-.01.014l-.012.015-.011.014-.012.014a.047.047 0 0 1-.011.014.047.047 0 0 1-.011.014.049.049 0 0 1-.012.014c-.002.006-.005.009-.011.014-.003.006-.006.009-.011.014a.048.048 0 0 1-.012.014.05.05 0 0 1-.01.015.05.05 0 0 1-.012.014l-.011.014-.012.014c-.002.006-.005.008-.011.014-.003.006-.006.009-.011.014-.003.006-.006.009-.012.014a.047.047 0 0 1-.01.014.047.047 0 0 1-.012.014.047.047 0 0 1-.011.015.049.049 0 0 1-.012.014.05.05 0 0 1-.011.014.05.05 0 0 1-.011.014.052.052 0 0 1-.012.014.05.05 0 0 1-.01.014.05.05 0 0 1-.012.014c-.003.006-.006.009-.011.014-.003.006-.006.009-.012.015-.003.005-.005.008-.011.014a.048.048 0 0 1-.011.014.048.048 0 0 1-.012.014.047.047 0 0 1-.011.014.047.047 0 0 1-.011.014.049.049 0 0 1-.012.014c-.002.006-.005.009-.01.014l-.012.014a.052.052 0 0 1-.011.015.052.052 0 0 1-.012.014c-.002.005-.005.008-.011.014l-.011.014c-.003.006-.006.008-.012.014-.002.006-.005.008-.01.014a.048.048 0 0 1-.012.014.048.048 0 0 1-.011.014.047.047 0 0 1-.012.014.047.047 0 0 1-.011.015l-.011.014-.012.014c-.002.005-.005.008-.01.014l-.012.014a.052.052 0 0 1-.011.014c-.003.006-.006.009-.012.014-.003.006-.005.009-.011.014a.049.049 0 0 1-.011.015.05.05 0 0 1-.012.014c-.002.005-.005.008-.011.014a.048.048 0 0 1-.011.014.048.048 0 0 1-.012.014.047.047 0 0 1-.01.014.047.047 0 0 1-.012.014c-.003.006-.006.009-.011.014-.003.006-.006.009-.012.014a.052.052 0 0 1-.011.015l-.011.014-.012.014c-.002.005-.005.008-.01.014l-.012.014a.05.05 0 0 1-.011.014c-.003.006-.006.009-.012.014-.003.006-.005.009-.011.014a.048.048 0 0 1-.011.014 3.299 3.299 0 0 1-1.781 1.262L31.437 99.748a3.332 3.332 0 0 1-3.921-1.725L.783 43.813a3.327 3.327 0 0 1 .297-3.438v-.002Z" fill="#ADB2C7" style="mix-blend-mode:multiply"/><path d="m4.071 39.57 26.734 54.21a3.332 3.332 0 0 0 3.921 1.724l38.506-11.227a3.33 3.33 0 0 0 2.055-4.671L48.553 25.399a3.332 3.332 0 0 0-3.921-1.725L6.127 34.895a3.33 3.33 0 0 0-2.056 4.672v.003Z" fill="#8181B6"/><path d="M33.835 94.308c.175-.003.347-.03.517-.079l38.505-11.227a2.003 2.003 0 0 0 1.237-2.806L47.36 25.99a2.014 2.014 0 0 0-2.357-1.038L6.497 36.17a2.003 2.003 0 0 0-1.236 2.807l26.733 54.21a2.013 2.013 0 0 0 1.841 1.117v.003Z" fill="#DEE4FF"/><path d="m35.91 61.435 1.765 3.78 20.314-5.443-1.761-3.78-20.317 5.443Z" fill="#fff"/><path d="m42.128 74.762 1.762 3.78 20.314-5.445-1.761-3.78-20.315 5.445Z" fill="#85B2E8"/><path d="m45.588 66.25 1.761 3.78 13.715-3.673-1.765-3.78-13.711 3.673Z" fill="#fff"/><path d="m33.123 32.676 4.897 10.081 9.277-2.4c.245.771.415 1.573.485 2.4.511 5.841-3.81 10.578-9.652 10.578-5.84 0-10.99-4.734-11.503-10.578-.412-4.725 2.334-8.726 6.493-10.08h.003Z" fill="#85B2E8"/><path d="M33.124 32.673a10.128 10.128 0 0 1 3.159-.494c5.016 0 9.519 3.492 11.015 8.178l-9.276 2.4-4.898-10.081v-.003Z" fill="#FFEA79"/><path d="M49.482 42.728c.246.77.415 1.573.486 2.4.51 5.84-3.811 10.578-9.652 10.578" stroke="#FEFEFE" stroke-width="1.42" stroke-linecap="round" stroke-linejoin="round"/><path d="m98.736 117.312 66.473-17.81" stroke="#fff" stroke-linecap="round" stroke-linejoin="round"/><path d="M94.892 37.136a1.209 1.209 0 0 0 1.005-1.566 24.88 24.88 0 0 1-.543-13.218C98.35 9.34 111.26.935 124.376 3.45c10.674 2.046 18.423 10.589 19.984 20.715l-.229 22.72 6.05 22.035-38.376 5.559-3.788-11.114a16.174 16.174 0 0 1-3.117-.32c-7.966-1.611-13.234-8.796-11.769-16.048.144-.711.35-1.394.607-2.052a4.093 4.093 0 0 1 1.155-7.809Z" fill="#FDACA5"/><path d="M108.017 63.37c2.95-.157 4.991-.934 6.845-3.102l-3.734 12.235-3.111-9.132Z" fill="#D7726A"/><path d="M113.818 82.699 154.57 65.41l-8.023-12.517c-3.749-7.484-38.485 14.614-34.736 22.098l2.007 7.71v-.003Z" fill="#E9F5FF"/><path d="M95.136 9.112a22.303 22.303 0 0 0 6.524 1.575c5.722-5.954 14.27-8.943 22.962-7.185 9.951 2.013 17.31 9.686 19.411 18.988a23.995 23.995 0 0 1 .319 1.68l-.229 22.719-20.526 2.876a3.123 3.123 0 0 1-2.775-1.024l-8.844-10s-14.77.82-11.123-13.183c-1.993-1.095-3.49-2.566-4.218-4.152a33.283 33.283 0 0 1-6.272-3.425c-4.828-3.526-.898-10.956 4.768-8.867l.003-.002Z" fill="#2D2B29"/><path d="M130.637 13.848c2.907-.768 5.866-2.501 7.413-5.146.513-.828.897-1.677 1.208-2.524a1.206 1.206 0 0 0-2.064-1.186c-.957 1.093-2.094 2.041-3.41 2.504-1.205.42-2.478.455-3.87.316a3.11 3.11 0 0 0-3.402 2.79c-.257 2.23 2.03 4.005 4.125 3.249v-.003Z" fill="#2D2B29"/><path d="M135.383 7.909c-2.648-1.62-3.856-3.684-3.963-6.767a1.204 1.204 0 0 0-1.268-1.14c-.511.028-.931.37-1.084.83a14.024 14.024 0 0 0-.618 2.727c-.437 3.102.87 6.343 2.727 8.785a3.112 3.112 0 0 0 4.342.709c1.776-1.223 1.685-4.02-.138-5.144h.002Z" fill="#2D2B29"/><path d="m91.386 119.288 17.178 58.599c9.711 23.86 104.008-2.586 94.294-26.445l-23.414-72.049-88.06 39.895h.002Z" fill="#C6E0FC"/><path d="M70.158 137.317 48.539 92.951s1.44-9.71 1.35-15.537l-6.448-3.88-1.92 3.484-4.183-1.634-8.48-9.31c-3.329 1.067-5.559 2.566-5.765 6.43-3.196 1.053-5.338 2.544-5.581 6.242-4.641 1.468-7.196 3.726-5.178 11.944l17.11 62.018c3.422 12.399 16.755 19.177 28.79 14.634 12.037-4.545 17.564-18.453 11.926-30.019l-.002-.006Z" fill="#FDACA5"/><path d="m40.923 83.954-7.726-32.077c-1.194-4.3-7.38-3.063-6.846 1.363l5.155 32.589a4.804 4.804 0 0 0 5.496 3.994c2.755-.423 4.585-3.164 3.921-5.871v.002Z" fill="#FDACA5"/><path d="M23.775 77.983c-.547-2.233-.759-4.026-.68-5.483M18.189 84.362c-.568-2.304-.771-4.139-.675-5.618" stroke="#A8524B" stroke-linecap="round" stroke-linejoin="round"/><path d="m49.89 77.41.167-8.459a2.251 2.251 0 0 0-2.74-2.241 6.045 6.045 0 0 0-4.47 4.147l-2.583 8.531 9.627-1.982v.003Z" fill="#FDACA5"/><path d="m28.398 66.222 1.448 9.164" stroke="#A8524B" stroke-linecap="round" stroke-linejoin="round"/><path d="M99.91 127.514a24.684 24.684 0 0 0 10.268-2.428c17.979-8.593 32.853-11.204 50.074-14.23 2.506-.441 5.101-.895 7.729-1.375 13.48-2.456 22.414-15.371 19.961-28.851-2.456-13.48-15.371-22.415-28.851-19.961-2.475.451-4.991.892-7.421 1.318-19.067 3.348-38.779 6.812-62.885 18.33-12.362 5.908-17.593 20.717-11.684 33.079 4.322 9.042 13.406 14.27 22.812 14.112l-.003.006Z" fill="#C6E0FC"/><path d="M42.598 168.7c9.065 4.35 20.255 2.896 27.93-4.483l45.781-43.996c9.878-9.494 10.191-25.198.697-35.076-9.493-9.878-25.198-10.191-35.075-.697l-45.78 43.996c-9.878 9.494-10.192 25.198-.698 35.075a24.806 24.806 0 0 0 7.145 5.181Z" fill="#C6E0FC"/><path d="m99.507 136.368 16.802-16.145c9.878-9.494 10.191-25.198.697-35.076-5.911-6.15-14.228-8.593-22.05-7.269" stroke="#E9F5FF" stroke-width="1.42" stroke-miterlimit="10"/><path d="M99.078 102.717c-1.422 0-1.425-2.21 0-2.21 1.426 0 1.426 2.21 0 2.21Z" fill="#C6E0FC"/><path d="M107.493 46.734c-2.701-.262-4.57-3.787-4.174-7.873.396-4.086 2.908-7.186 5.609-6.924 2.702.262 4.571 3.787 4.175 7.873-.397 4.086-2.908 7.186-5.61 6.924Z" fill="#FDACA5"/><path d="M106.623 44.334c1.829.177 3.531-1.923 3.802-4.692.271-2.77-.996-5.158-2.828-5.336" stroke="#D7726A" stroke-width="1.5" stroke-linecap="round" stroke-linejoin="round"/></svg>