<svg width="186" height="134" fill="none" xmlns="http://www.w3.org/2000/svg"><path d="M163.793 34.938s17.991 4.471 12.554 24.796c0 0-21.631 1.145-21.992-20.358l9.438-4.438Z" fill="#3F3737"/><path d="M66.618 78.486c-.966-3.872-4.111-7.016-4.111-7.016L50.285 60.894c-2.147-1.678-1.188-5.438 2.091-4.366-3.856-2.283-1.12-5.6 1.726-3.605-2.99-2.095-2.18-5.122 2.696-3.489l18.28 5.338s8-1.26 11.873 2.733c3.867 3.994 4.083 10.332 4.083 10.332l8.943 10.649c10.514-24.02 29.532-29.052 29.532-29.052-1.448 2.483-18.01 53.068-15.274 56.643l-.543 9.57c-5.559 2.128-11.562 3.917-17.221 4.589-17.764 2.099-28.883-37.873-29.848-41.745l-.005-.005Z" fill="#FFB8A2"/><path d="m60.296 59.92-7.922-3.389M62.908 56.477l-8.81-3.555" stroke="#E68464" stroke-width=".71" stroke-linecap="round" stroke-linejoin="round"/><path d="M73.737 57.434s-.894 5.482 4.327 10.07" stroke="#E68464" stroke-width=".99" stroke-linecap="round" stroke-linejoin="round"/><path d="M86.947 57.506s-2.802-6.277-11.79-10.488a2.972 2.972 0 0 0-3.777 1.122 2.985 2.985 0 0 0-.067 3.06l5.393 8.355 10.247-2.05h-.006Z" fill="#FFB8A2"/><path d="M129.498 49.434c-1.11 1.905-11.706 32.29-14.891 47.815l-14.64-18.764c10.513-24.019 29.531-29.051 29.531-29.051Z" fill="#96CCE3"/><path d="M110.504 78.838c.116-4.183 17.553-26.924 19.001-29.413l4.566-2.027 26.003-1.472c4.527 1.255 9.182 2.977 13.937 5.088l15.756 75.879-77.954-.6 2.901-32.201c-3.317-5.205-4.333-10.899-4.21-15.248v-.006Z" fill="#C6E0FC"/><path d="M125.295 24.322c0 11.849 8.249 21.453 20.083 21.453.677 0 1.337-.033 1.997-.094l-.294 3.6c13.038-4.722 18.414-17.554 18.414-17.554.843-2.31 1.309-4.8 1.309-7.4 0-11.848-9.72-19.702-21.553-19.702-11.834 0-19.962 7.854-19.962 19.697h.006Z" fill="#3F3737"/><path d="M129.195 11.84c11.157 13.47 18.27 13.598 20.594 13.781a5.336 5.336 0 0 1 4.278-2.144 5.362 5.362 0 0 1 2.69 9.999l3.324 12.46c-12.905 11.342-25.41 7.06-25.41 7.06l-.599-5.589s-8.594-.9-11.8-10.398c-3.207-9.499 6.923-25.164 6.923-25.164v-.005Z" fill="#FFB8A2"/><path d="M145.545 46.543s-2.762 4.205-5.891 7.216c-3.08-.123-4.988-.772-4.988-.772l-.599-5.589s5.992 1.05 11.478-.855Z" fill="#E58464"/><path d="M136.494 29.331c-.537-.16-.71-1.166-.387-2.244.324-1.079 1.021-1.822 1.558-1.66.537.16.711 1.166.387 2.244-.323 1.079-1.021 1.822-1.558 1.66ZM125.886 25.858c-.547-.124-.79-1.114-.542-2.212.248-1.099.893-1.889 1.44-1.765.547.124.789 1.115.541 2.213s-.892 1.888-1.439 1.764Z" fill="#272525"/><path d="M128.372 27.055a1.644 1.644 0 0 0-1.432.55 1.67 1.67 0 0 0-.333 1.5c.145.51.561.939 1.071 1.1" stroke="#272525" stroke-width=".99" stroke-linecap="round" stroke-linejoin="round"/><path d="M139.67 23.539c-.205-.328-1.265-1.484-1.575-.878a.302.302 0 0 0 .016.25c.294.461.711.8 1.199 1.039.249.116.51-.19.36-.417v.006ZM130.235 16.982c-.416-.083-.832-.122-1.249-.05a.282.282 0 0 0-.221.334.283.283 0 0 0 .199.216c.411.106.832.1 1.249.05.299-.038.31-.494.022-.55Z" fill="#272525"/><path d="M126.572 35.331c-.277 2.35 2.663 6.133 5.265 5.622 2.602-.511 1.72-5.21 1.259-5.622-.46-.41-4.893-2.716-6.524 0Z" fill="#E58464"/><path d="M128.578 39.687c.96.911 2.136 1.483 3.257 1.267 1.669-.328 1.902-2.378 1.736-3.911-1.625.428-3.867 1.378-4.993 2.65v-.006Z" fill="#E56955"/><path d="M155.262 29.32c.355 0 .66-.272.693-.633.022-.228 1.953-22.508-14.136-24.758a.7.7 0 0 0-.194 1.383c14.763 2.061 12.96 23.03 12.938 23.247a.7.7 0 0 0 .627.761H155.262Z" fill="#fff"/><path d="M155.262 29.32c.355 0 .66-.272.693-.633.022-.228 1.953-22.508-14.136-24.758a.7.7 0 0 0-.194 1.383c14.763 2.061 12.96 23.03 12.938 23.247a.7.7 0 0 0 .627.761H155.262Z" fill="#F0E8DB"/><path d="M133.904 44.374c.788 0 1.47-.595 1.559-1.4a1.574 1.574 0 0 0-1.387-1.744 44.51 44.51 0 0 1-5.714-1.061 1.575 1.575 0 0 0-.766 3.055c2.131.539 4.194.916 6.125 1.138.061.006.122.012.178.012h.005Z" fill="#272525"/><path d="M137.561 43.709c14.912 0 17.442-11.327 17.47-11.454a.696.696 0 0 0-.538-.822.692.692 0 0 0-.821.538c-.106.506-2.752 12.043-19.69 10.132a.699.699 0 0 0-.155 1.389c1.326.15 2.574.222 3.739.222l-.005-.005Z" fill="#fff"/><path d="M137.561 43.709c14.912 0 17.442-11.327 17.47-11.454a.696.696 0 0 0-.538-.822.692.692 0 0 0-.821.538c-.106.506-2.752 12.043-19.69 10.132a.699.699 0 0 0-.155 1.389c1.326.15 2.574.222 3.739.222l-.005-.005Z" fill="#000"/><path d="M137.561 43.709c14.912 0 17.442-11.327 17.47-11.454a.696.696 0 0 0-.538-.822.692.692 0 0 0-.821.538c-.106.506-2.752 12.043-19.69 10.132a.699.699 0 0 0-.155 1.389c1.326.15 2.574.222 3.739.222l-.005-.005Z" stroke="#272525" stroke-width=".71" stroke-linecap="round" stroke-linejoin="round"/><path d="M157.534 29.532a2.58 2.58 0 0 0-2.58-2.583c-1.425 0-2.579 2.583-2.579 2.583s1.154 2.583 2.579 2.583a2.58 2.58 0 0 0 2.58-2.583Z" fill="#272525"/><path d="M1.805 126.34h208.389a3.808 3.808 0 0 1 3.806 3.81 3.808 3.808 0 0 1-3.806 3.811H.804v-6.621a1 1 0 0 1 1-1Z" fill="#26B19E"/><path d="M120.11 113.487c.278-.545.594-1.067.938-1.567-11.568-11.809 43.268-15.759 40.727-16.237-1.853-23.363-9.409-36.728 12.233-44.671 7.251 2.86 14.175 7.504 17.26 14.964 8.394 19.176 14.513 62.003-15.795 60.32-29.598-1.65-21.138 2.389-40.799.222a6.663 6.663 0 0 0-2.131 2.367c-2.18 4.027-8.111.827-6.752-3.139-5.054 2.461-7.412-3.699-4.077-7.132-1.62-.945-2.697-2.972-1.604-5.122v-.005Z" fill="#FFB8A2"/><path d="m125.8 125.745 1.659-3.032a8.248 8.248 0 0 1 6.28-4.233l1.326-.156M121.644 118.439c1.731-3.083 4.96-5.277 8.461-5.744M120.963 111.756a9.248 9.248 0 0 1 5.875-4.233" stroke="#E68464" stroke-width=".71" stroke-linecap="round" stroke-linejoin="round"/><path d="M161.776 95.686c-5.082-9.271-4.971-21.825-5.082-23.836-.705-12.76 6.008-16.603 17.315-20.83 1.67.738 3.351 1.527 5.043 2.36 5.437 2.678 9.82 7.155 12.261 12.704 4.51 10.266 6.563 21.525 7.062 33.407l-36.599-3.805Z" fill="#C6E0FC"/><path d="M161.776 95.682a1259.726 1259.726 0 0 1-1.758-14.815" stroke="#749AC2" stroke-width=".99" stroke-linecap="round" stroke-linejoin="round"/><path d="M34.297 126.309h45.088a2.407 2.407 0 0 0-2.407-2.411h-40.8l-1.875 2.411h-.006Z" fill="#9ED6C8"/><path d="M95.63 113.28H60.833a5.023 5.023 0 0 1-4.394-2.589L32.062 69.33c-1.027-1.85 1.464-4.56 3.578-4.56h34.797c1.825 0 3.506.988 4.394 2.588l23.223 41.8c1.026 1.85-.31 4.122-2.424 4.122Z" fill="#fff"/><path d="M94.376 114.502H59.58a5.022 5.022 0 0 1-4.394-2.588l-6.98-12.56-16.244-29.24c-1.026-1.85.31-4.122 2.425-4.122h34.796c1.825 0 3.506.989 4.394 2.589l23.224 41.8c1.026 1.849-.311 4.121-2.425 4.121Z" fill="#CFF2E9"/><path d="m62.326 114.506 8.649-23.475 6.336 23.475H62.326Z" fill="#9ED6C8"/><path d="m62.326 114.506 8.649-23.475 6.336 23.475H62.326Z" fill="#9ED6C8"/><path d="M45.499 91.031h25.476l-11.202 35.29H34.292l11.207-35.29Zm4.732 26.986c1.476-.267 2.73-1.539 2.918-3.072.189-1.533-.76-2.811-2.175-3.072-1.48.267-2.735 1.539-2.923 3.072-.189 1.533.76 2.81 2.18 3.072Z" fill="#EBFFFA"/><path d="M50.232 118.012c.178.039.366.055.56.055 1.72 0 3.29-1.4 3.501-3.127.217-1.728-1.01-3.128-2.735-3.128-.194 0-.388.017-.583.056 1.415.261 2.364 1.539 2.175 3.072-.188 1.533-1.442 2.805-2.918 3.072Z" fill="#9ED6C8"/><path opacity=".5" d="M77.404.422c15.49 0 28.05 8.788 28.05 19.63 0 2.217-.532 4.35-1.503 6.339l7.844 9.76-13.181-3.256c-5.143 4.16-12.733 6.794-21.21 6.794-15.49 0-28.05-8.788-28.05-19.63 0-10.844 12.56-19.637 28.05-19.637Z" fill="#fff"/><circle cx="67.43" cy="20.024" r="2.845" fill="#fff"/><circle cx="67.43" cy="20.024" r="2.845" fill="#fff"/><circle cx="77.182" cy="20.024" r="2.845" fill="#fff"/><circle cx="77.182" cy="20.024" r="2.845" fill="#fff"/><circle cx="86.935" cy="20.024" r="2.845" fill="#fff"/><circle cx="86.935" cy="20.024" r="2.845" fill="#fff"/></svg>