<svg width="126" height="125" viewBox="0 0 126 125" fill="none" xmlns="http://www.w3.org/2000/svg">
<g style="mix-blend-mode:multiply">
<path d="M85.9771 124.204C85.4298 124.477 84.7167 124.614 83.9953 124.618C83.2491 124.623 78.5974 124.618 78.5974 124.618L6.08552 86.3577C4.97442 85.8016 4.97442 84.8887 6.08552 84.3326L57.6606 58.5211C58.7758 57.965 60.5959 57.965 61.707 58.5211L137.552 96.4789C138.667 97.035 138.667 97.948 137.552 98.504L85.9771 124.199V124.204Z" fill="#DFD8F0"/>
</g>
<path d="M133.775 38.2004L57.9298 0.234251C57.3991 -0.0313341 56.9182 -0.0603824 56.5575 0.0931589L56.5368 0.101458C56.5202 0.109758 55.5459 0.59528 55.5459 0.59528L134.285 94.4463L135.288 93.9318C135.603 93.7326 135.802 93.3674 135.802 92.857V41.2339C135.802 40.1176 134.89 38.7524 133.779 38.1963L133.775 38.2004Z" fill="#A5B7C7"/>
<path d="M134.788 93.3671C134.788 94.4792 133.875 94.9357 132.764 94.3796L56.9192 56.4134C55.8081 55.8574 54.896 54.4921 54.896 53.3758V1.75275C54.896 0.63646 55.804 0.184135 56.9192 0.740204L132.764 38.7064C133.875 39.2625 134.788 40.6277 134.788 41.744V93.3671Z" fill="url(#paint0_linear_138_3159)"/>
<path d="M56.9192 54.3897V2.7666L132.764 40.7369V92.36L56.9192 54.3897Z" fill="url(#paint1_linear_138_3159)"/>
<path style="mix-blend-mode:screen" d="M110.277 27.4515L56.9192 0.739462C55.8081 0.183393 54.896 0.639867 54.896 1.752V53.3751C54.896 54.4872 55.804 55.8566 56.9192 56.4127L76.2267 66.0775L110.277 27.4515Z" fill="url(#paint2_linear_138_3159)"/>
<path d="M133.133 97.3544V94.2877L0 82.2202V85.2869H0.0124372C0.0414585 85.6355 0.306795 85.9799 0.837471 86.2413L76.6826 124.199C77.7937 124.755 79.6138 124.755 80.729 124.199L132.304 98.3877C132.872 98.1055 133.146 97.7279 133.133 97.3502V97.3544Z" fill="url(#paint3_linear_138_3159)"/>
<path d="M80.7285 121.165C79.6133 121.721 77.7932 121.721 76.6821 121.165L0.836989 83.2073C-0.274113 82.6512 -0.274113 81.7383 0.836989 81.1822L52.412 55.3707C53.5273 54.8146 55.3473 54.8146 56.4584 55.3707L132.304 93.3286C133.419 93.8846 133.419 94.7976 132.304 95.3536L80.7285 121.165Z" fill="url(#paint4_linear_138_3159)"/>
<path d="M97.5867 109.691C97.2135 109.878 96.5999 109.878 96.2268 109.691L23.7647 73.4265C23.3916 73.2398 23.3916 72.9327 23.7647 72.7459L53.7562 57.7362C54.1293 57.5495 54.7429 57.5495 55.116 57.7362L127.578 94.001C127.951 94.1878 127.951 94.4949 127.578 94.6816L97.5867 109.691Z" fill="#E8EFFF"/>
<path d="M26.9853 94.4148C26.5417 94.1908 26.5417 93.8256 26.9853 93.6056L44.1783 84.999C44.6261 84.7791 45.3475 84.7749 45.7953 84.999L73.1002 98.6642C73.5438 98.8883 73.5438 99.2535 73.1002 99.4734L55.9071 108.076C55.4594 108.3 54.7338 108.3 54.2902 108.076L26.9853 94.4107V94.4148Z" fill="#6E7E9F"/>
<path d="M55.6057 107.929C55.3279 108.066 54.876 108.066 54.5941 107.929L27.2891 94.2643C27.0114 94.1273 27.0114 93.8991 27.2891 93.758L44.4822 85.1555C44.76 85.0186 45.2119 85.0144 45.4938 85.1555L72.7987 98.8207C73.0765 98.9577 73.0765 99.19 72.7987 99.327L55.6057 107.934V107.929Z" fill="url(#paint5_linear_138_3159)"/>
<path d="M57.2128 63.3429C56.9351 63.484 56.479 63.484 56.2012 63.3429L50.6416 60.5584C50.3638 60.4173 50.3638 60.1891 50.6416 60.0521L53.6764 58.5375C53.9542 58.3964 54.4102 58.3964 54.688 58.5375L60.2518 61.3178C60.5296 61.4589 60.5296 61.6871 60.2518 61.8241L57.217 63.3429H57.2128Z" fill="url(#paint6_linear_138_3159)"/>
<path d="M62.2709 65.8756C61.9931 66.0167 61.5371 66.0167 61.2593 65.8756L58.2245 64.3568C57.9467 64.2198 57.9467 63.9916 58.2245 63.8505L61.2551 62.3317C61.5329 62.1947 61.989 62.1906 62.2667 62.3317L65.3015 63.8505C65.5793 63.9916 65.5793 64.2198 65.3015 64.3568L62.2667 65.8756H62.2709Z" fill="url(#paint7_linear_138_3159)"/>
<path d="M67.3299 68.4062C67.0521 68.5431 66.5961 68.5431 66.3183 68.4062L63.2877 66.8874C63.0099 66.7463 63.0099 66.5222 63.2877 66.3811L66.3183 64.8623C66.5961 64.7212 67.0521 64.7212 67.3299 64.8623L70.3647 66.3811C70.6425 66.5222 70.6425 66.7463 70.3647 66.8874L67.3299 68.4062Z" fill="url(#paint8_linear_138_3159)"/>
<path d="M72.3872 70.9381C72.1094 71.0751 71.6533 71.0792 71.3756 70.9381L68.3408 69.4193C68.063 69.2782 68.063 69.05 68.3408 68.9131L71.3756 67.3942C71.6533 67.2531 72.1094 67.2531 72.3872 67.3942L75.422 68.9131C75.6997 69.0541 75.6956 69.2824 75.422 69.4193L72.3872 70.9381Z" fill="url(#paint9_linear_138_3159)"/>
<path d="M77.4417 73.4643C77.1639 73.6013 76.712 73.6054 76.4301 73.4643L73.3953 71.9455C73.1175 71.8044 73.1175 71.5762 73.3953 71.4392L76.4301 69.9204C76.7079 69.7793 77.1639 69.7793 77.4417 69.9204L80.4765 71.4392C80.7543 71.5803 80.7543 71.8044 80.4765 71.9455L77.4417 73.4643Z" fill="url(#paint10_linear_138_3159)"/>
<path d="M82.4991 75.9947C82.2214 76.1358 81.7653 76.1358 81.4875 75.9947L78.4527 74.4759C78.175 74.339 78.175 74.1066 78.4527 73.9696L81.4875 72.4508C81.7653 72.3139 82.2214 72.3097 82.4991 72.4508L85.5339 73.9696C85.8117 74.1107 85.8117 74.339 85.5339 74.4759L82.5033 75.9947H82.4991Z" fill="url(#paint11_linear_138_3159)"/>
<path d="M87.5537 78.5267C87.2759 78.6678 86.8198 78.6678 86.5421 78.5267L83.5073 77.0079C83.2295 76.8709 83.2295 76.6427 83.5073 76.5016L86.5421 74.9828C86.824 74.8458 87.2759 74.8417 87.5537 74.9828L90.5885 76.5016C90.8621 76.6427 90.8621 76.8709 90.5885 77.0079L87.5537 78.5267Z" fill="url(#paint12_linear_138_3159)"/>
<path d="M92.6111 81.0527C92.3333 81.1938 91.8773 81.1938 91.5995 81.0527L88.5647 79.5339C88.2869 79.397 88.2869 79.1646 88.5647 79.0277L91.5995 77.5088C91.8773 77.3719 92.3333 77.3719 92.6111 77.5088L95.6459 79.0277C95.9237 79.1646 95.9237 79.397 95.6459 79.5339L92.6153 81.0527H92.6111Z" fill="url(#paint13_linear_138_3159)"/>
<path d="M97.6685 83.5907C97.3907 83.7276 96.9347 83.7318 96.6569 83.5907L93.6221 82.0719C93.3443 81.9349 93.3443 81.7025 93.6221 81.5656L96.6569 80.0468C96.9306 79.9057 97.3907 79.9057 97.6685 80.0468L100.699 81.5656C100.977 81.7067 100.977 81.9349 100.699 82.0719L97.6685 83.5907Z" fill="url(#paint14_linear_138_3159)"/>
<path d="M102.723 86.1166C102.445 86.2536 101.989 86.2577 101.712 86.1166L98.681 84.5978C98.4032 84.4609 98.4032 84.2285 98.681 84.0915L101.712 82.5727C101.989 82.4358 102.445 82.4358 102.723 82.5727L105.754 84.0915C106.032 84.2326 106.032 84.4609 105.754 84.5978L102.723 86.1166Z" fill="url(#paint15_linear_138_3159)"/>
<path d="M107.782 88.6487C107.504 88.7856 107.048 88.7898 106.77 88.6487L103.736 87.1299C103.458 86.9929 103.458 86.7647 103.736 86.6236L106.77 85.1048C107.048 84.9679 107.504 84.9637 107.782 85.1048L110.817 86.6236C111.095 86.7647 111.095 86.9929 110.817 87.1299L107.782 88.6487Z" fill="url(#paint16_linear_138_3159)"/>
<path d="M112.834 91.1793C112.561 91.3204 112.101 91.3204 111.823 91.1793L108.792 89.6605C108.514 89.5236 108.514 89.2912 108.792 89.1542L111.823 87.6354C112.101 87.4943 112.557 87.4943 112.834 87.6354L115.869 89.1542C116.147 89.2953 116.147 89.5236 115.869 89.6605L112.834 91.1793Z" fill="url(#paint17_linear_138_3159)"/>
<path d="M117.893 93.7096C117.615 93.8507 117.159 93.8507 116.882 93.7096L113.847 92.1908C113.569 92.0538 113.569 91.8256 113.847 91.6845L116.882 90.1657C117.159 90.0288 117.615 90.0288 117.893 90.1657L120.928 91.6845C121.206 91.8256 121.206 92.0538 120.928 92.1908L117.893 93.7096Z" fill="url(#paint18_linear_138_3159)"/>
<path d="M122.951 96.2372C122.673 96.3742 122.217 96.3783 121.939 96.2372L118.904 94.7184C118.626 94.5815 118.626 94.3532 118.904 94.2121L121.935 92.6933C122.213 92.5564 122.669 92.5564 122.946 92.6933L125.981 94.2121C126.259 94.3491 126.259 94.5773 125.981 94.7184L122.946 96.2331L122.951 96.2372Z" fill="url(#paint19_linear_138_3159)"/>
<path d="M35.9785 72.957C35.7007 73.094 35.2447 73.0981 34.9669 72.957L30.4147 70.6788C30.1369 70.5419 30.141 70.3136 30.4147 70.1726L33.4495 68.6537C33.7273 68.5126 34.1833 68.5126 34.4611 68.6537L39.0133 70.932C39.2911 71.073 39.2911 71.2971 39.0133 71.4382L35.9785 72.957Z" fill="url(#paint20_linear_138_3159)"/>
<path d="M41.0356 75.4886C40.7579 75.6297 40.3018 75.6297 40.024 75.4886L36.9934 73.9698C36.7156 73.8287 36.7156 73.6005 36.9934 73.4635L40.024 71.9447C40.3018 71.8078 40.7579 71.8036 41.0356 71.9447L44.0704 73.4635C44.3482 73.6046 44.3482 73.8329 44.0704 73.9698L41.0398 75.4886H41.0356Z" fill="url(#paint21_linear_138_3159)"/>
<path d="M46.0936 78.019C45.8158 78.1559 45.3598 78.1601 45.082 78.019L42.0472 76.5002C41.7694 76.3633 41.7694 76.135 42.0472 75.9939L45.082 74.4751C45.3598 74.3382 45.8158 74.3382 46.0936 74.4751L49.1284 75.9939C49.4062 76.135 49.4062 76.3633 49.1284 76.5002L46.0936 78.019Z" fill="url(#paint22_linear_138_3159)"/>
<path d="M51.1474 80.5538C50.8697 80.6949 50.4136 80.6949 50.1358 80.5538L47.101 79.035C46.8233 78.8981 46.8233 78.6698 47.101 78.5287L50.1358 77.0099C50.4136 76.873 50.8655 76.873 51.1474 77.0099L54.1822 78.5287C54.46 78.6698 54.46 78.8981 54.1822 79.035L51.1474 80.5538Z" fill="url(#paint23_linear_138_3159)"/>
<path d="M56.2056 83.0843C55.9278 83.2213 55.4718 83.2254 55.194 83.0843L52.1592 81.5655C51.8814 81.4286 51.8814 81.2003 52.1592 81.0593L55.194 79.5404C55.4718 79.4035 55.9278 79.4035 56.2056 79.5404L59.2404 81.0593C59.5182 81.2003 59.5182 81.4244 59.2404 81.5655L56.2056 83.0843Z" fill="url(#paint24_linear_138_3159)"/>
<path d="M61.2594 85.612C60.9816 85.7531 60.5256 85.7531 60.2478 85.612L57.213 84.0932C56.9352 83.9521 56.9352 83.7238 57.213 83.5869L60.2478 82.0681C60.5297 81.9311 60.9816 81.9311 61.2594 82.0681L64.2942 83.5869C64.572 83.728 64.572 83.9562 64.2942 84.0932L61.2594 85.612Z" fill="url(#paint25_linear_138_3159)"/>
<path d="M66.3168 88.1425C66.039 88.2794 65.583 88.2836 65.3052 88.1425L62.2704 86.6237C61.9926 86.4867 61.9926 86.2585 62.2704 86.1174L65.3052 84.5986C65.583 84.4616 66.039 84.4616 66.3168 84.5986L69.3516 86.1174C69.6294 86.2585 69.6294 86.4867 69.3516 86.6237L66.3168 88.1425Z" fill="url(#paint26_linear_138_3159)"/>
<path d="M71.3757 90.673C71.0979 90.8099 70.6419 90.8141 70.3641 90.673L67.3293 89.1542C67.0515 89.0172 67.0515 88.789 67.3293 88.6479L70.3641 87.1291C70.6419 86.9921 71.0979 86.9921 71.3757 87.1291L74.4105 88.6479C74.6883 88.789 74.6883 89.0131 74.4105 89.1542L71.3757 90.673Z" fill="url(#paint27_linear_138_3159)"/>
<path d="M76.4302 93.2035C76.1525 93.3404 75.7006 93.3404 75.4186 93.2035L72.3838 91.6847C72.1061 91.5477 72.1061 91.3195 72.3838 91.1784L75.4186 89.6596C75.6923 89.5227 76.1483 89.5227 76.4302 89.6596L79.4609 91.1784C79.7428 91.3195 79.7387 91.5477 79.4609 91.6847L76.4302 93.2035Z" fill="url(#paint28_linear_138_3159)"/>
<path d="M71.3747 95.7361C71.097 95.8731 70.6409 95.8772 70.3631 95.7361L47.1046 84.096C46.8269 83.9549 46.8269 83.7267 47.1046 83.5898L50.1394 82.0709C50.4172 81.934 50.8733 81.934 51.151 82.0709L74.4096 93.711C74.6873 93.8521 74.6873 94.0762 74.4096 94.2173L71.3747 95.7361Z" fill="url(#paint29_linear_138_3159)"/>
<path d="M81.4877 95.7369C81.2099 95.8738 80.7538 95.8738 80.4761 95.7369L77.4412 94.2181C77.1635 94.077 77.1635 93.8529 77.4412 93.7118L80.4761 92.193C80.7538 92.056 81.2057 92.056 81.4877 92.193L84.5183 93.7118C84.7961 93.8529 84.7961 94.077 84.5183 94.2181L81.4877 95.7369Z" fill="url(#paint30_linear_138_3159)"/>
<path d="M86.5451 98.2635C86.2673 98.4004 85.8113 98.4046 85.5293 98.2635L82.4987 96.7447C82.2209 96.6036 82.2209 96.3795 82.4987 96.2384L85.5293 94.7237C85.8071 94.5826 86.2631 94.5826 86.5409 94.7237L89.5757 96.2384C89.8535 96.3795 89.8535 96.6077 89.5757 96.7447L86.5451 98.2635Z" fill="url(#paint31_linear_138_3159)"/>
<path d="M91.5996 100.795C91.3218 100.932 90.8658 100.936 90.588 100.795L87.5532 99.2762C87.2754 99.1393 87.2754 98.9069 87.5532 98.7699L90.588 97.2511C90.8658 97.1142 91.3218 97.1142 91.5996 97.2511L94.6344 98.7699C94.9122 98.911 94.9122 99.1351 94.6344 99.2762L91.5996 100.795Z" fill="url(#paint32_linear_138_3159)"/>
<path d="M82.4993 101.298C82.2215 101.435 81.7655 101.439 81.4877 101.298L78.4529 99.7789C78.1751 99.6419 78.1751 99.4095 78.4529 99.2726L81.4877 97.7538C81.7655 97.6169 82.2215 97.6127 82.4993 97.7538L85.5341 99.2726C85.8119 99.4137 85.8119 99.6419 85.5341 99.7789L82.4993 101.298Z" fill="url(#paint33_linear_138_3159)"/>
<path d="M87.5531 103.828C87.2754 103.965 86.8235 103.969 86.5415 103.828L83.5068 102.31C83.229 102.168 83.229 101.944 83.5068 101.803L86.5415 100.284C86.8193 100.143 87.2754 100.143 87.5531 100.284L90.5879 101.803C90.8657 101.944 90.8657 102.173 90.5879 102.31L87.5531 103.828Z" fill="url(#paint34_linear_138_3159)"/>
<path d="M92.6113 106.363C92.3335 106.504 91.8775 106.504 91.5997 106.363L88.5649 104.844C88.2871 104.703 88.2871 104.479 88.5649 104.338L91.5997 102.819C91.8733 102.682 92.3335 102.682 92.6113 102.819L95.6461 104.338C95.9239 104.475 95.9239 104.703 95.6461 104.844L92.6113 106.363Z" fill="url(#paint35_linear_138_3159)"/>
<path d="M97.6687 108.893C97.3909 109.03 96.9349 109.03 96.6571 108.893L93.6223 107.375C93.3445 107.238 93.3445 107.009 93.6223 106.868L96.6571 105.35C96.9307 105.213 97.3909 105.213 97.6687 105.35L100.699 106.868C100.977 107.005 100.977 107.238 100.699 107.375L97.6687 108.893Z" fill="url(#paint36_linear_138_3159)"/>
<path d="M102.722 106.365C102.445 106.506 101.989 106.506 101.711 106.365L92.6106 101.808C92.3329 101.671 92.3329 101.443 92.6106 101.302L95.6413 99.7831C95.9191 99.6461 96.3751 99.6461 96.6529 99.7831L105.753 104.339C106.031 104.476 106.031 104.705 105.753 104.846L102.722 106.365Z" fill="url(#paint37_linear_138_3159)"/>
<path d="M47.1057 68.4035C46.828 68.5404 46.3719 68.5446 46.0941 68.4035L40.5303 65.619C40.2526 65.4821 40.2526 65.2538 40.5303 65.1127L43.5651 63.5939C43.8429 63.457 44.2948 63.457 44.5767 63.5939L50.1405 66.3784C50.4183 66.5195 50.4183 66.7436 50.1405 66.8847L47.1057 68.4035Z" fill="url(#paint38_linear_138_3159)"/>
<path d="M52.1589 70.9365C51.8811 71.0734 51.4251 71.0776 51.1473 70.9365L48.1125 69.4176C47.8347 69.2766 47.8347 69.0483 48.1125 68.9114L51.1473 67.3926C51.4251 67.2556 51.8811 67.2556 52.1589 67.3926L55.1937 68.9114C55.4715 69.0483 55.4715 69.2766 55.1937 69.4176L52.1589 70.9365Z" fill="url(#paint39_linear_138_3159)"/>
<path d="M57.2135 73.4643C56.9357 73.6013 56.4796 73.6054 56.2019 73.4643L53.1671 71.9455C52.8893 71.8044 52.8893 71.5762 53.1671 71.4392L56.2019 69.9204C56.4796 69.7793 56.9357 69.7793 57.2135 69.9204L60.2483 71.4392C60.5302 71.5803 60.5302 71.8044 60.2483 71.9455L57.2135 73.4643Z" fill="url(#paint40_linear_138_3159)"/>
<path d="M62.2718 75.9947C61.994 76.1358 61.5421 76.1358 61.2602 75.9947L58.2295 74.4759C57.9517 74.339 57.9517 74.1107 58.2295 73.9696L61.2643 72.4508C61.5421 72.3139 61.9981 72.3097 62.2759 72.4508L65.3107 73.9696C65.5885 74.1107 65.5885 74.339 65.3107 74.4759L62.2759 75.9947H62.2718Z" fill="url(#paint41_linear_138_3159)"/>
<path d="M67.3299 78.5251C67.0521 78.6662 66.5961 78.6662 66.3183 78.5251L63.2877 77.0063C63.0099 76.8694 63.0099 76.6411 63.2877 76.5L66.3225 74.9812C66.6002 74.8443 67.0563 74.8443 67.3341 74.9812L70.3689 76.5C70.6466 76.6411 70.6466 76.8694 70.3689 77.0063L67.3341 78.5251H67.3299Z" fill="url(#paint42_linear_138_3159)"/>
<path d="M72.3872 81.0585C72.1094 81.1954 71.6533 81.1996 71.3756 81.0585L68.3408 79.5397C68.063 79.4027 68.063 79.1704 68.3408 79.0334L71.3756 77.5146C71.6533 77.3777 72.1094 77.3777 72.3872 77.5146L75.422 79.0334C75.6997 79.1704 75.6956 79.4027 75.422 79.5397L72.3872 81.0585Z" fill="url(#paint43_linear_138_3159)"/>
<path d="M77.4417 83.5904C77.1639 83.7274 76.7079 83.7315 76.4301 83.5904L73.3953 82.0716C73.1175 81.9347 73.1175 81.7023 73.3953 81.5654L76.4301 80.0465C76.7079 79.9096 77.1598 79.9096 77.4417 80.0465L80.4765 81.5654C80.7543 81.7023 80.7543 81.9305 80.4765 82.0716L77.4417 83.5904Z" fill="url(#paint44_linear_138_3159)"/>
<path d="M82.4991 86.1166C82.2214 86.2536 81.7653 86.2577 81.4875 86.1166L78.4527 84.5978C78.175 84.4609 78.175 84.2285 78.4527 84.0915L81.4875 82.5727C81.7653 82.4358 82.2214 82.4358 82.4991 82.5727L85.5298 84.0915C85.8076 84.2326 85.8076 84.4609 85.5298 84.5978L82.4991 86.1166Z" fill="url(#paint45_linear_138_3159)"/>
<path d="M87.5537 88.6487C87.2759 88.7856 86.824 88.7898 86.5421 88.6487L83.5073 87.1299C83.2295 86.9929 83.2295 86.7647 83.5073 86.6236L86.5421 85.1048C86.8198 84.9679 87.2759 84.9637 87.5537 85.1048L90.5885 86.6236C90.8662 86.7647 90.8662 86.9929 90.5885 87.1299L87.5537 88.6487Z" fill="url(#paint46_linear_138_3159)"/>
<path d="M92.6111 91.1793C92.3333 91.3204 91.8773 91.3204 91.5995 91.1793L88.5647 89.6605C88.2869 89.5236 88.2869 89.2912 88.5647 89.1542L91.5995 87.6354C91.8773 87.4943 92.3333 87.4943 92.6111 87.6354L95.6459 89.1542C95.9237 89.2953 95.9237 89.5236 95.6459 89.6605L92.6111 91.1793Z" fill="url(#paint47_linear_138_3159)"/>
<path d="M97.6685 93.7096C97.3907 93.8507 96.9347 93.8507 96.6569 93.7096L93.6221 92.1908C93.3443 92.0538 93.3443 91.8256 93.6221 91.6845L96.6569 90.1657C96.9306 90.0288 97.3907 90.0288 97.6685 90.1657L100.699 91.6845C100.977 91.8256 100.977 92.0538 100.699 92.1908L97.6685 93.7096Z" fill="url(#paint48_linear_138_3159)"/>
<path d="M102.723 96.2388C102.445 96.3758 101.989 96.3799 101.712 96.2388L98.681 94.7242C98.4032 94.5831 98.4032 94.3548 98.681 94.2179L101.712 92.6991C101.989 92.5621 102.445 92.5621 102.723 92.6991L105.754 94.2179C106.032 94.3548 106.032 94.5831 105.754 94.7242L102.723 96.243V96.2388Z" fill="url(#paint49_linear_138_3159)"/>
<path d="M107.782 98.7706C107.504 98.9075 107.048 98.9117 106.77 98.7706L103.736 97.2518C103.458 97.1149 103.458 96.8866 103.736 96.7455L106.77 95.2267C107.048 95.0898 107.504 95.0898 107.782 95.2267L110.817 96.7455C111.095 96.8866 111.095 97.1149 110.817 97.2518L107.782 98.7706Z" fill="url(#paint50_linear_138_3159)"/>
<path d="M43.0592 71.4446C42.7814 71.5815 42.3254 71.5857 42.0476 71.4446L35.4722 68.1538C35.1944 68.0169 35.1944 67.7886 35.4722 67.6476L38.507 66.1287C38.7848 65.9918 39.2408 65.9918 39.5186 66.1287L46.094 69.4195C46.3718 69.5564 46.3718 69.7847 46.094 69.9258L43.0592 71.4446Z" fill="url(#paint51_linear_138_3159)"/>
<path d="M48.1137 73.9704C47.8359 74.1115 47.384 74.1115 47.1021 73.9704L44.0673 72.4516C43.7895 72.3105 43.7895 72.0823 44.0673 71.9453L47.1021 70.4265C47.3757 70.2854 47.8318 70.2854 48.1137 70.4265L51.1485 71.9453C51.4263 72.0864 51.4263 72.3105 51.1485 72.4516L48.1137 73.9704Z" fill="url(#paint52_linear_138_3159)"/>
<path d="M53.1721 76.5008C52.8944 76.6419 52.4383 76.6419 52.1605 76.5008L49.1299 74.982C48.848 74.8409 48.8521 74.6168 49.1299 74.4757L52.1605 72.9569C52.4383 72.82 52.8944 72.8158 53.1721 72.9569L56.2069 74.4757C56.4847 74.6168 56.4847 74.8451 56.2069 74.982L53.1721 76.5008Z" fill="url(#paint53_linear_138_3159)"/>
<path d="M58.225 79.0341C57.9472 79.171 57.4911 79.171 57.2134 79.0341L54.1786 77.5153C53.9008 77.3783 53.9008 77.1501 54.1786 77.009L57.2134 75.4902C57.4911 75.3532 57.9472 75.3532 58.225 75.4902L61.2556 77.009C61.5334 77.1501 61.5334 77.3742 61.2556 77.5153L58.225 79.0341Z" fill="url(#paint54_linear_138_3159)"/>
<path d="M63.2833 81.5646C63.0055 81.7057 62.5494 81.7057 62.2717 81.5646L59.241 80.0458C58.9632 79.9088 58.9632 79.6806 59.241 79.5395L62.2717 78.0207C62.5494 77.8838 63.0055 77.8838 63.2833 78.0207L66.3139 79.5395C66.5917 79.6806 66.5917 79.9088 66.3139 80.0458L63.2833 81.5646Z" fill="url(#paint55_linear_138_3159)"/>
<path d="M68.342 84.0965C68.0642 84.2335 67.6081 84.2376 67.3304 84.0965L64.2956 82.5777C64.0178 82.4408 64.0178 82.2125 64.2956 82.0715L67.3304 80.5526C67.6081 80.4157 68.0642 80.4157 68.342 80.5526L71.3768 82.0715C71.6545 82.2125 71.6545 82.4366 71.3768 82.5777L68.342 84.0965Z" fill="url(#paint56_linear_138_3159)"/>
<path d="M73.3936 86.623C73.1158 86.7641 72.6598 86.7641 72.382 86.623L69.3472 85.1042C69.0694 84.9631 69.0694 84.7348 69.3472 84.5979L72.382 83.0791C72.6598 82.938 73.1117 82.938 73.3936 83.0791L76.4284 84.5979C76.7062 84.739 76.7062 84.9672 76.4284 85.1042L73.3936 86.623Z" fill="url(#paint57_linear_138_3159)"/>
<path d="M78.4526 89.1547C78.1749 89.2958 77.723 89.2958 77.441 89.1547L74.4104 87.6359C74.1326 87.4948 74.1326 87.2707 74.4104 87.1296L77.441 85.6108C77.7188 85.4738 78.1749 85.4738 78.4526 85.6108L81.4875 87.1296C81.7652 87.2707 81.7652 87.4989 81.4875 87.6359L78.4526 89.1547Z" fill="url(#paint58_linear_138_3159)"/>
<path d="M83.5069 91.6852C83.2291 91.8263 82.7731 91.8263 82.4953 91.6852L79.4605 90.1664C79.1827 90.0294 79.1869 89.8012 79.4605 89.6601L82.4953 88.1413C82.7731 88.0043 83.2291 88.0043 83.5069 88.1413L86.5417 89.6601C86.8236 89.8012 86.8236 90.0294 86.5417 90.1664L83.5069 91.6852Z" fill="url(#paint59_linear_138_3159)"/>
<path d="M88.5644 94.2186C88.2867 94.3555 87.8306 94.3555 87.5528 94.2186L84.518 92.6998C84.2403 92.5628 84.2403 92.3346 84.518 92.1935L87.5528 90.6747C87.8306 90.5377 88.2867 90.5377 88.5644 90.6747L91.5992 92.1935C91.877 92.3346 91.877 92.5628 91.5992 92.6998L88.5644 94.2186Z" fill="url(#paint60_linear_138_3159)"/>
<path d="M93.6219 96.7421C93.3441 96.8791 92.888 96.8832 92.6103 96.7421L89.5755 95.2233C89.2977 95.0864 89.2977 94.8581 89.5755 94.717L92.6103 93.1982C92.888 93.0571 93.3441 93.0571 93.6219 93.1982L96.6567 94.717C96.9344 94.8581 96.9303 95.0864 96.6567 95.2233L93.6219 96.7421Z" fill="url(#paint61_linear_138_3159)"/>
<path d="M98.68 99.2769C98.4022 99.418 97.9462 99.418 97.6684 99.2769L94.6336 97.7581C94.3558 97.617 94.3558 97.393 94.6336 97.2519L97.6684 95.733C97.9462 95.592 98.4022 95.592 98.68 95.733L101.711 97.2519C101.988 97.393 101.988 97.6212 101.711 97.7581L98.68 99.2769Z" fill="url(#paint62_linear_138_3159)"/>
<path d="M103.734 101.807C103.456 101.948 103.004 101.948 102.722 101.807L99.6874 100.289C99.4097 100.147 99.4097 99.9234 99.6874 99.7823L102.722 98.2634C103 98.1265 103.452 98.1224 103.734 98.2634L106.769 99.7823C107.046 99.9234 107.046 100.147 106.769 100.289L103.734 101.807Z" fill="url(#paint63_linear_138_3159)"/>
<path d="M112.835 97.7573C112.561 97.6163 112.101 97.6204 111.823 97.7573L108.793 99.2762C108.515 99.4131 108.515 99.6455 108.793 99.7824C109.07 99.9235 109.07 100.148 108.793 100.289L104.746 102.314C104.469 102.455 104.469 102.679 104.746 102.82L106.769 103.833C107.047 103.974 107.503 103.974 107.781 103.833L111.823 101.808C112.101 101.671 112.557 101.442 112.835 101.301L113.847 100.795C114.124 100.658 114.58 100.43 114.858 100.289L115.87 99.7824C116.148 99.6455 116.148 99.4172 115.87 99.2762L112.835 97.7573Z" fill="url(#paint64_linear_138_3159)"/>
<path d="M114.353 93.9646C114.631 93.8235 115.087 93.8235 115.365 93.9646L120.929 96.7491C121.206 96.8902 121.206 97.1184 120.929 97.2553L117.894 98.7742C117.616 98.9111 117.16 98.9152 116.882 98.7742L111.318 95.9897C111.041 95.8486 111.041 95.6245 111.318 95.4834L114.353 93.9646Z" fill="url(#paint65_linear_138_3159)"/>
<path d="M109.295 91.4324C109.572 91.2954 110.028 91.2954 110.306 91.4324L113.341 92.9512C113.619 93.0923 113.619 93.3205 113.341 93.4575L110.306 94.9763C110.033 95.1132 109.576 95.1132 109.295 94.9763L106.264 93.4575C105.986 93.3205 105.986 93.0923 106.264 92.9512L109.295 91.4324Z" fill="url(#paint66_linear_138_3159)"/>
<path d="M104.24 88.9004C104.518 88.7635 104.974 88.7635 105.251 88.9004L108.282 90.4193C108.56 90.5603 108.56 90.7886 108.282 90.9255L105.251 92.4443C104.974 92.5854 104.518 92.5854 104.24 92.4443L101.205 90.9255C100.927 90.7886 100.927 90.5603 101.205 90.4193L104.24 88.9004Z" fill="url(#paint67_linear_138_3159)"/>
<path d="M99.1867 86.3715C99.4603 86.2346 99.9164 86.2304 100.198 86.3715L103.233 87.8903C103.511 88.0314 103.511 88.2596 103.233 88.3966L100.198 89.9154C99.9205 90.0523 99.4645 90.0565 99.1867 89.9154L96.1519 88.3966C95.8741 88.2596 95.8741 88.0314 96.1519 87.8903L99.1867 86.3715Z" fill="url(#paint68_linear_138_3159)"/>
<path d="M94.1279 83.8365C94.4015 83.6996 94.8575 83.6996 95.1395 83.8365L98.1743 85.3554C98.452 85.4923 98.452 85.7247 98.1743 85.8616L95.1395 87.3805C94.8617 87.5215 94.4015 87.5215 94.1279 87.3805L91.093 85.8616C90.8153 85.7205 90.8153 85.4965 91.093 85.3554L94.1279 83.8365Z" fill="url(#paint69_linear_138_3159)"/>
<path d="M89.0704 81.3089C89.3482 81.172 89.8042 81.172 90.082 81.3089L93.1168 82.8277C93.3946 82.9647 93.3946 83.1929 93.1168 83.334L90.082 84.8528C89.8042 84.9898 89.3482 84.9898 89.0704 84.8528L86.0356 83.334C85.7579 83.1971 85.7579 82.9688 86.0356 82.8277L89.0704 81.3089Z" fill="url(#paint70_linear_138_3159)"/>
<path d="M84.0125 78.7784C84.2902 78.6415 84.7463 78.6415 85.0241 78.7784L88.0589 80.2972C88.3366 80.4342 88.3366 80.6666 88.0589 80.8035L85.0241 82.3223C84.7463 82.4593 84.2944 82.4634 84.0125 82.3223L80.9818 80.8035C80.704 80.6666 80.704 80.4342 80.9818 80.2972L84.0125 78.7784Z" fill="url(#paint71_linear_138_3159)"/>
<path d="M78.9585 76.2479C79.2362 76.111 79.6923 76.111 79.9701 76.2479L83.0007 77.7667C83.2785 77.9078 83.2785 78.1319 83.0007 78.273L79.9701 79.7918C79.6923 79.9287 79.2404 79.9287 78.9585 79.7918L75.9237 78.273C75.6459 78.136 75.6459 77.9078 75.9237 77.7667L78.9585 76.2479Z" fill="url(#paint72_linear_138_3159)"/>
<path d="M73.9046 73.7174C74.1824 73.5805 74.6385 73.5805 74.9162 73.7174L77.951 75.2362C78.2288 75.3773 78.2247 75.6055 77.951 75.7425L74.9162 77.2613C74.6385 77.3982 74.1824 77.4024 73.9046 77.2613L70.8698 75.7425C70.5921 75.6055 70.5921 75.3773 70.8698 75.2362L73.9046 73.7174Z" fill="url(#paint73_linear_138_3159)"/>
<path d="M68.8472 71.1869C69.125 71.0499 69.581 71.0499 69.8588 71.1869L72.8936 72.7057C73.1714 72.8468 73.1714 73.0709 72.8936 73.212L69.8588 74.7308C69.581 74.8719 69.125 74.8719 68.8472 74.7308L65.8124 73.212C65.5346 73.0709 65.5346 72.8426 65.8124 72.7057L68.8472 71.1869Z" fill="url(#paint74_linear_138_3159)"/>
<path d="M63.7876 68.6593C64.0654 68.5223 64.5215 68.5223 64.7992 68.6593L67.834 70.1781C68.1118 70.3192 68.1118 70.5474 67.834 70.6843L64.7992 72.2032C64.5215 72.3401 64.0654 72.3442 63.7876 72.2032L60.7528 70.6843C60.4751 70.5474 60.4751 70.3192 60.7528 70.1781L63.7876 68.6593Z" fill="url(#paint75_linear_138_3159)"/>
<path d="M58.7302 66.1287C59.008 65.9918 59.464 65.9918 59.7418 66.1287L62.7766 67.6476C63.0544 67.7845 63.0544 68.0127 62.7766 68.1538L59.7418 69.6726C59.464 69.8096 59.008 69.8096 58.7302 69.6726L55.6954 68.1538C55.4176 68.0127 55.4176 67.7845 55.6954 67.6476L58.7302 66.1287Z" fill="url(#paint76_linear_138_3159)"/>
<path d="M53.6764 63.5939C53.9542 63.457 54.4102 63.457 54.688 63.5939L57.7228 65.1127C58.0006 65.2538 58.0006 65.4821 57.7228 65.619L54.688 67.1378C54.4102 67.2748 53.9583 67.2748 53.6764 67.1378L50.6416 65.619C50.3638 65.4821 50.3638 65.2538 50.6416 65.1127L53.6764 63.5939Z" fill="url(#paint77_linear_138_3159)"/>
<path d="M48.6198 61.065C48.8976 60.928 49.3536 60.9239 49.6314 61.065L52.6621 62.5838C52.9398 62.7249 52.9398 62.9531 52.6621 63.0901L49.6314 64.6089C49.3536 64.75 48.8976 64.75 48.6198 64.6089L45.585 63.0901C45.3031 62.9531 45.3072 62.7249 45.585 62.5838L48.6198 61.065Z" fill="url(#paint78_linear_138_3159)"/>
<path d="M43.5651 78.7784C43.8429 78.6415 44.2948 78.6415 44.5767 78.7784L49.1289 81.0566C49.4067 81.1977 49.4067 81.426 49.1289 81.5629L46.0941 83.0817C45.8164 83.2187 45.3603 83.2228 45.0825 83.0817L40.5303 80.8035C40.2526 80.6666 40.2526 80.4342 40.5303 80.2972L43.5651 78.7784Z" fill="url(#paint79_linear_138_3159)"/>
<path d="M75.4222 94.7235C75.6959 94.5865 76.1519 94.5865 76.4338 94.7235L80.4802 96.7486C80.758 96.8897 80.758 97.1179 80.4802 97.2548L77.4454 98.7737C77.1676 98.9106 76.7157 98.9147 76.4338 98.7737L72.3874 96.7486C72.1096 96.6075 72.1096 96.3834 72.3874 96.2423L75.4222 94.7235Z" fill="url(#paint80_linear_138_3159)"/>
<path d="M38.507 76.2479C38.7848 76.111 39.2408 76.111 39.5186 76.2479L42.5534 77.7667C42.8312 77.9078 42.8312 78.1319 42.5534 78.273L39.5186 79.7918C39.2408 79.9287 38.7848 79.9287 38.507 79.7918L35.4722 78.273C35.1944 78.136 35.1944 77.9037 35.4722 77.7667L38.507 76.2479Z" fill="url(#paint81_linear_138_3159)"/>
<path d="M33.4531 73.7174C33.7308 73.5805 34.1869 73.5805 34.4647 73.7174L37.4995 75.2362C37.7772 75.3773 37.7772 75.6055 37.4995 75.7425L34.4647 77.2613C34.1869 77.3982 33.7308 77.4024 33.4531 77.2613L30.4183 75.7425C30.1405 75.6055 30.1446 75.3773 30.4183 75.2362L33.4531 73.7174Z" fill="url(#paint82_linear_138_3159)"/>
<path d="M28.3953 71.1869C28.6731 71.0499 29.1292 71.0499 29.4069 71.1869L32.4417 72.7057C32.7195 72.8468 32.7195 73.0709 32.4417 73.212L29.4069 74.7308C29.1292 74.8719 28.6773 74.8719 28.3953 74.7308L25.3647 73.212C25.0828 73.0709 25.0869 72.8426 25.3647 72.7057L28.3953 71.1869Z" fill="url(#paint83_linear_138_3159)"/>
<path d="M127.51 90.9352L61.2714 57.7827L59.8411 58.4965L126.08 91.6489L127.51 90.9352Z" fill="#6E7E9F"/>
<g style="mix-blend-mode:multiply">
<path d="M22.9518 66.0359C22.4348 66.2946 21.7651 66.4318 21.0914 66.4318H18.7768L8.62122 60.775C7.56376 60.2458 7.56376 59.3912 8.62122 58.862L33.4599 46.4311C34.5134 45.9019 36.2249 45.9019 37.2824 46.4311L47.7904 51.692C48.844 52.2212 48.844 53.0758 47.7904 53.605L22.9518 66.0359Z" fill="#DFD8F0"/>
</g>
<path d="M46.3516 50.7393L5.6001 57.9916V59.9047H5.61577C5.65493 60.2222 5.90558 60.5319 6.39123 60.7749L16.8993 66.0358C17.9528 66.565 19.6643 66.565 20.7218 66.0358L45.5604 53.6049C46.0852 53.3423 46.3477 52.9973 46.3477 52.6484V50.7354L46.3516 50.7393Z" fill="url(#paint84_linear_138_3159)"/>
<path d="M20.7228 64.1233C19.6653 64.6525 17.9577 64.6525 16.9003 64.1233L6.39222 58.8624C5.33476 58.3332 5.33476 57.4786 6.39222 56.9494L31.2308 44.5185C32.2844 43.9893 33.9959 43.9893 35.0534 44.5185L45.5614 49.7794C46.615 50.3086 46.615 51.1632 45.5614 51.6924L20.7228 64.1233Z" fill="url(#paint85_linear_138_3159)"/>
<path d="M42.6991 52.1715L21.6791 62.6893L9.25977 56.4758L30.2798 45.958L42.6991 52.1715Z" fill="url(#paint86_linear_138_3159)"/>
<path d="M39.4515 47.9057C39.2714 47.9959 38.9815 47.9959 38.8014 47.9057C38.6212 47.8155 38.6212 47.6705 38.8014 47.5803C38.9815 47.4902 39.2714 47.4902 39.4515 47.5803C39.6317 47.6705 39.6317 47.8155 39.4515 47.9057Z" fill="#6E7E9F"/>
<path d="M40.0302 49.415C39.8853 49.4855 39.6464 49.4855 39.5015 49.415L35.7886 47.5568C35.6437 47.4823 35.6437 47.3647 35.7886 47.2941C35.9335 47.2197 36.1724 47.2197 36.3173 47.2941L40.0302 49.1523C40.1751 49.2268 40.1751 49.3444 40.0302 49.4189V49.415Z" fill="#6E7E9F"/>
<path style="mix-blend-mode:screen" d="M39.7682 50.7053L30.2785 45.958L14.7729 53.716L39.7682 50.7053Z" fill="url(#paint87_linear_138_3159)"/>
<path d="M60.4856 52.319V16.7826C60.4856 16.4141 60.8733 16.1749 61.2023 16.3396L118.427 44.9843C118.595 45.0666 118.701 45.2391 118.701 45.4273V80.9637C118.701 81.3322 118.313 81.5713 117.984 81.4067L60.7598 52.7619C60.5913 52.6796 60.4856 52.5071 60.4856 52.319Z" fill="#FAF7FF"/>
<path d="M60.4856 18.8877V16.7826C60.4856 16.4141 60.8733 16.1749 61.2023 16.3396L118.427 44.9843C118.595 45.0666 118.701 45.2391 118.701 45.4273V48.0264L60.4856 18.8877Z" fill="url(#paint88_linear_138_3159)"/>
<path d="M62.4203 18.3978C62.4203 18.6408 62.2244 18.7388 61.9816 18.6173C61.7388 18.4958 61.543 18.2017 61.543 17.9587C61.543 17.7156 61.7388 17.6176 61.9816 17.7392C62.2244 17.8607 62.4203 18.1547 62.4203 18.3978Z" fill="white"/>
<path d="M64.0414 19.2181C64.0414 19.4611 63.8455 19.5591 63.6027 19.4376C63.3599 19.3161 63.1641 19.0221 63.1641 18.779C63.1641 18.536 63.3599 18.438 63.6027 18.5595C63.8455 18.681 64.0414 18.975 64.0414 19.2181Z" fill="white"/>
<path d="M65.659 20.0369C65.659 20.28 65.4632 20.378 65.2204 20.2564C64.9776 20.1349 64.7817 19.8409 64.7817 19.5979C64.7817 19.3548 64.9776 19.2568 65.2204 19.3783C65.4632 19.4999 65.659 19.7939 65.659 20.0369Z" fill="white"/>
<path d="M109.893 56.686H109.501V77.2591H109.893V56.686Z" fill="#564991"/>
<path d="M90.5728 47.02H90.1812V67.5931H90.5728V47.02Z" fill="#564991"/>
<path d="M68.379 35.9219H67.9873V56.495H68.379V35.9219Z" fill="#564991"/>
<path opacity="0.9" d="M110.821 62.0874C105.706 59.5275 104.429 68.9752 100.16 66.8387C97.9785 65.7489 94.7591 45.6031 88.6219 42.5296C82.2105 39.319 79.6139 53.8315 76.6843 52.3654C71.867 49.9545 71.7495 45.3757 68.816 43.9096C64.8172 41.9063 63.2545 48.3786 60.509 47.0065V53.2317L120.702 83.3622V75.6395C115.947 73.2599 116.95 65.153 110.817 62.0835L110.821 62.0874Z" fill="url(#paint89_linear_138_3159)"/>
<g opacity="0.85">
<path d="M34.2217 35.5861V13.5507C34.2217 13.3234 34.4606 13.1744 34.6682 13.2763L70.1558 31.0386C70.2616 31.0896 70.3242 31.1955 70.3242 31.3131V53.3523C70.3242 53.5797 70.0853 53.7286 69.8778 53.6267L34.3901 35.8644C34.2843 35.8134 34.2217 35.7076 34.2217 35.59V35.5861Z" fill="#E3EAFF"/>
<path d="M34.2217 14.8527V13.5473C34.2217 13.32 34.4606 13.171 34.6682 13.2729L70.1558 31.0352C70.2616 31.0862 70.3242 31.192 70.3242 31.3096V32.9208L34.2217 14.8527Z" fill="url(#paint90_linear_138_3159)"/>
<path d="M35.4243 14.55C35.4243 14.6989 35.3029 14.7617 35.1501 14.6872C35.0013 14.6127 34.876 14.4284 34.876 14.2795C34.876 14.1305 34.9974 14.0678 35.1501 14.1423C35.299 14.2168 35.4243 14.401 35.4243 14.55Z" fill="url(#paint91_linear_138_3159)"/>
<path d="M36.426 15.0597C36.426 15.2087 36.3046 15.2714 36.1518 15.1969C36.003 15.1225 35.8777 14.9382 35.8777 14.7892C35.8777 14.6403 35.9991 14.5776 36.1518 14.652C36.3007 14.7265 36.426 14.9108 36.426 15.0597Z" fill="url(#paint92_linear_138_3159)"/>
<path d="M37.4323 15.5661C37.4323 15.715 37.3109 15.7778 37.1582 15.7033C37.0094 15.6288 36.884 15.4446 36.884 15.2956C36.884 15.1466 37.0054 15.0839 37.1582 15.1584C37.307 15.2329 37.4323 15.4171 37.4323 15.5661Z" fill="url(#paint93_linear_138_3159)"/>
<path d="M43.2221 23.2267C41.1972 22.4466 39.4857 22.7014 38.4282 23.7363L43.9858 30.283L49.7705 29.7656C48.4624 26.896 45.9401 24.2734 43.2221 23.2228V23.2267Z" fill="white"/>
<path d="M38.4243 23.7388C37.5549 24.5855 37.124 25.9576 37.312 27.7138C37.3277 27.855 37.3473 27.9961 37.3708 28.1411L43.9819 30.2894L38.4243 23.7427V23.7388Z" fill="#1880FF"/>
<path d="M43.9866 30.2855L37.3755 28.1372C37.9826 31.9202 41.2019 35.9736 44.7542 37.3457C47.9423 38.5766 50.3509 37.2359 50.6682 34.3232L43.9905 30.2855H43.9866Z" fill="#5C41D2"/>
<path d="M50.6564 32.8586C50.5468 31.8355 50.2334 30.7849 49.7713 29.7656L43.9866 30.2831L50.6643 34.3209C50.7152 33.8701 50.7152 33.38 50.6564 32.8586Z" fill="#1880FF"/>
<path d="M61.3688 36.3424L53.3203 32.3125V33.0534L61.3688 37.0834V36.3424Z" fill="#6E7E9F"/>
<path d="M58.592 32.9988L53.3203 30.3605V29.6196L58.592 32.2579V32.9988Z" fill="#6E7E9F"/>
<path d="M65.0267 36.2218L59.3281 33.3679V32.627L65.0267 35.4808V36.2218Z" fill="#6E7E9F"/>
<path d="M57.5312 33.8127L59.3289 34.7143V33.9695L57.5312 33.0718V33.8127Z" fill="#6E7E9F"/>
<path d="M53.3203 31.7053L56.6102 33.3557V32.6147L53.3203 30.9644V31.7053Z" fill="#6E7E9F"/>
<path d="M58.592 40.4347L53.3203 37.7964V38.5373L58.592 41.1756V40.4347Z" fill="#6E7E9F"/>
<path d="M57.5312 38.5591L59.3289 39.4568V40.1977L57.5312 39.3V38.5591Z" fill="#6E7E9F"/>
<path d="M53.3203 36.4517L56.6102 38.0981V38.839L53.3203 37.1926V36.4517Z" fill="#6E7E9F"/>
</g>
<g opacity="0.8">
<path d="M97.2573 72.1924V43.4693C97.2573 43.1713 97.5706 42.9753 97.837 43.1125L144.087 66.2651C144.224 66.3317 144.31 66.4728 144.31 66.6218V95.3449C144.31 95.6429 143.997 95.8389 143.731 95.7017L97.4806 72.5491C97.3435 72.4825 97.2573 72.3414 97.2573 72.1924Z" fill="#FAF7FF"/>
<path d="M97.2573 45.1706V43.4693C97.2573 43.1713 97.5706 42.9753 97.837 43.1125L144.087 66.2651C144.224 66.3317 144.31 66.4728 144.31 66.6218V68.723L97.2573 45.1667V45.1706Z" fill="url(#paint94_linear_138_3159)"/>
<path d="M98.8193 44.7741C98.8193 44.9701 98.6587 45.0485 98.4629 44.9505C98.267 44.8525 98.1064 44.6133 98.1064 44.4173C98.1064 44.2213 98.267 44.1429 98.4629 44.2409C98.6587 44.3389 98.8193 44.5781 98.8193 44.7741Z" fill="white"/>
<path d="M100.133 45.4367C100.133 45.6327 99.9726 45.7111 99.7768 45.6131C99.581 45.5151 99.4204 45.2759 99.4204 45.0799C99.4204 44.8839 99.581 44.8055 99.7768 44.9035C99.9726 45.0015 100.133 45.2407 100.133 45.4367Z" fill="white"/>
<path d="M101.439 46.0954C101.439 46.2914 101.279 46.3698 101.083 46.2718C100.887 46.1738 100.727 45.9346 100.727 45.7386C100.727 45.5426 100.887 45.4642 101.083 45.5622C101.279 45.6602 101.439 45.8993 101.439 46.0954Z" fill="white"/>
<path d="M116.52 76.9869L113.814 75.6305V67.061L116.52 68.4174V76.9869Z" fill="url(#paint95_linear_138_3159)"/>
<path d="M107.859 72.6505L105.149 71.2941V59.2983L107.859 60.6547V72.6505Z" fill="url(#paint96_linear_138_3159)"/>
<path d="M103.528 70.4817L100.818 69.1253V51.9863L103.528 53.3427V70.4817Z" fill="url(#paint97_linear_138_3159)"/>
<path d="M112.187 74.8162L109.481 73.4598V59.751L112.187 61.1074V74.8162Z" fill="url(#paint98_linear_138_3159)"/>
<path d="M124.594 72.9612L122.542 71.9341V70.9697L124.594 71.9968V72.9612Z" fill="#564991"/>
<path d="M129.783 75.5604L125.483 73.4082V72.4399L129.783 74.5921V75.5604Z" fill="#564991"/>
<path d="M122.542 73.69L129.298 77.0692V76.1048L122.542 72.7217V73.69Z" fill="#564991"/>
<path d="M134.197 80.3108L122.542 74.4775V75.4419L134.197 81.2751V80.3108Z" fill="#564991"/>
<path d="M129.971 70.3125L122.542 66.5923V65.6279L129.971 69.3443V70.3125Z" fill="#564991"/>
<path d="M122.542 68.3482L134.197 74.1814V73.2131L122.542 67.3799V68.3482Z" fill="#564991"/>
</g>
<defs>
<linearGradient id="paint0_linear_138_3159" x1="94.8418" y1="94.6203" x2="94.8418" y2="0.503664" gradientUnits="userSpaceOnUse">
<stop stop-color="#8295BC"/>
<stop offset="1" stop-color="#A4B6C7"/>
</linearGradient>
<linearGradient id="paint1_linear_138_3159" x1="94.8418" y1="92.36" x2="94.8418" y2="2.7666" gradientUnits="userSpaceOnUse">
<stop stop-color="#D7E3F5"/>
<stop offset="1" stop-color="#E7EDF8"/>
</linearGradient>
<linearGradient id="paint2_linear_138_3159" x1="82.5865" y1="17.5543" x2="82.5865" y2="72.6341" gradientUnits="userSpaceOnUse">
<stop stop-color="#1C1C1C"/>
<stop offset="1"/>
</linearGradient>
<linearGradient id="paint3_linear_138_3159" x1="1.49667" y1="103.421" x2="133.133" y2="103.421" gradientUnits="userSpaceOnUse">
<stop stop-color="#9CB5D6"/>
<stop offset="0.05" stop-color="#9FA9BD"/>
<stop offset="0.58" stop-color="#BCC6E0"/>
<stop offset="0.61" stop-color="#A5ACC4"/>
<stop offset="0.97" stop-color="#9CB0D6"/>
<stop offset="0.98" stop-color="#96AFD4"/>
<stop offset="0.99" stop-color="#88A5D0"/>
<stop offset="1" stop-color="#6B90C7"/>
</linearGradient>
<linearGradient id="paint4_linear_138_3159" x1="79.435" y1="115.862" x2="51.752" y2="56.5938" gradientUnits="userSpaceOnUse">
<stop stop-color="#D5DEF2"/>
<stop offset="0.58" stop-color="#E9EDF8"/>
<stop offset="1" stop-color="#F2F6FC"/>
</linearGradient>
<linearGradient id="paint5_linear_138_3159" x1="55.2861" y1="107.76" x2="44.1593" y2="86.8971" gradientUnits="userSpaceOnUse">
<stop stop-color="#9DACCC"/>
<stop offset="1" stop-color="#B9CBE7"/>
</linearGradient>
<linearGradient id="paint6_linear_138_3159" x1="97.3589" y1="109.151" x2="55.286" y2="58.3855" gradientUnits="userSpaceOnUse">
<stop stop-color="#9FB5D5"/>
<stop offset="1" stop-color="#98A5BF"/>
</linearGradient>
<linearGradient id="paint7_linear_138_3159" x1="97.3589" y1="109.151" x2="55.286" y2="58.3855" gradientUnits="userSpaceOnUse">
<stop stop-color="#9FB5D5"/>
<stop offset="1" stop-color="#98A5BF"/>
</linearGradient>
<linearGradient id="paint8_linear_138_3159" x1="97.3589" y1="109.151" x2="55.286" y2="58.3855" gradientUnits="userSpaceOnUse">
<stop stop-color="#9FB5D5"/>
<stop offset="1" stop-color="#98A5BF"/>
</linearGradient>
<linearGradient id="paint9_linear_138_3159" x1="97.3589" y1="109.151" x2="55.286" y2="58.3855" gradientUnits="userSpaceOnUse">
<stop stop-color="#9FB5D5"/>
<stop offset="1" stop-color="#98A5BF"/>
</linearGradient>
<linearGradient id="paint10_linear_138_3159" x1="97.3589" y1="109.151" x2="55.286" y2="58.3855" gradientUnits="userSpaceOnUse">
<stop stop-color="#9FB5D5"/>
<stop offset="1" stop-color="#98A5BF"/>
</linearGradient>
<linearGradient id="paint11_linear_138_3159" x1="97.3589" y1="109.151" x2="55.286" y2="58.3855" gradientUnits="userSpaceOnUse">
<stop stop-color="#9FB5D5"/>
<stop offset="1" stop-color="#98A5BF"/>
</linearGradient>
<linearGradient id="paint12_linear_138_3159" x1="97.3589" y1="109.151" x2="55.286" y2="58.3855" gradientUnits="userSpaceOnUse">
<stop stop-color="#9FB5D5"/>
<stop offset="1" stop-color="#98A5BF"/>
</linearGradient>
<linearGradient id="paint13_linear_138_3159" x1="97.3589" y1="109.151" x2="55.286" y2="58.3855" gradientUnits="userSpaceOnUse">
<stop stop-color="#9FB5D5"/>
<stop offset="1" stop-color="#98A5BF"/>
</linearGradient>
<linearGradient id="paint14_linear_138_3159" x1="97.3589" y1="109.151" x2="55.286" y2="58.3855" gradientUnits="userSpaceOnUse">
<stop stop-color="#9FB5D5"/>
<stop offset="1" stop-color="#98A5BF"/>
</linearGradient>
<linearGradient id="paint15_linear_138_3159" x1="97.3589" y1="109.151" x2="55.286" y2="58.3855" gradientUnits="userSpaceOnUse">
<stop stop-color="#9FB5D5"/>
<stop offset="1" stop-color="#98A5BF"/>
</linearGradient>
<linearGradient id="paint16_linear_138_3159" x1="97.3589" y1="109.151" x2="55.286" y2="58.3855" gradientUnits="userSpaceOnUse">
<stop stop-color="#9FB5D5"/>
<stop offset="1" stop-color="#98A5BF"/>
</linearGradient>
<linearGradient id="paint17_linear_138_3159" x1="97.3589" y1="109.151" x2="55.286" y2="58.3855" gradientUnits="userSpaceOnUse">
<stop stop-color="#9FB5D5"/>
<stop offset="1" stop-color="#98A5BF"/>
</linearGradient>
<linearGradient id="paint18_linear_138_3159" x1="97.3589" y1="109.151" x2="55.286" y2="58.3855" gradientUnits="userSpaceOnUse">
<stop stop-color="#9FB5D5"/>
<stop offset="1" stop-color="#98A5BF"/>
</linearGradient>
<linearGradient id="paint19_linear_138_3159" x1="97.3589" y1="109.151" x2="55.286" y2="58.3855" gradientUnits="userSpaceOnUse">
<stop stop-color="#9FB5D5"/>
<stop offset="1" stop-color="#98A5BF"/>
</linearGradient>
<linearGradient id="paint20_linear_138_3159" x1="97.3589" y1="109.151" x2="55.286" y2="58.3855" gradientUnits="userSpaceOnUse">
<stop stop-color="#9FB5D5"/>
<stop offset="1" stop-color="#98A5BF"/>
</linearGradient>
<linearGradient id="paint21_linear_138_3159" x1="97.3589" y1="109.151" x2="55.286" y2="58.3855" gradientUnits="userSpaceOnUse">
<stop stop-color="#9FB5D5"/>
<stop offset="1" stop-color="#98A5BF"/>
</linearGradient>
<linearGradient id="paint22_linear_138_3159" x1="97.3589" y1="109.151" x2="55.286" y2="58.3855" gradientUnits="userSpaceOnUse">
<stop stop-color="#9FB5D5"/>
<stop offset="1" stop-color="#98A5BF"/>
</linearGradient>
<linearGradient id="paint23_linear_138_3159" x1="97.3589" y1="109.151" x2="55.286" y2="58.3855" gradientUnits="userSpaceOnUse">
<stop stop-color="#9FB5D5"/>
<stop offset="1" stop-color="#98A5BF"/>
</linearGradient>
<linearGradient id="paint24_linear_138_3159" x1="97.3589" y1="109.151" x2="55.286" y2="58.3855" gradientUnits="userSpaceOnUse">
<stop stop-color="#9FB5D5"/>
<stop offset="1" stop-color="#98A5BF"/>
</linearGradient>
<linearGradient id="paint25_linear_138_3159" x1="97.3589" y1="109.151" x2="55.286" y2="58.3855" gradientUnits="userSpaceOnUse">
<stop stop-color="#9FB5D5"/>
<stop offset="1" stop-color="#98A5BF"/>
</linearGradient>
<linearGradient id="paint26_linear_138_3159" x1="97.3589" y1="109.151" x2="55.286" y2="58.3855" gradientUnits="userSpaceOnUse">
<stop stop-color="#9FB5D5"/>
<stop offset="1" stop-color="#98A5BF"/>
</linearGradient>
<linearGradient id="paint27_linear_138_3159" x1="97.3589" y1="109.151" x2="55.286" y2="58.3855" gradientUnits="userSpaceOnUse">
<stop stop-color="#9FB5D5"/>
<stop offset="1" stop-color="#98A5BF"/>
</linearGradient>
<linearGradient id="paint28_linear_138_3159" x1="97.3589" y1="109.151" x2="55.286" y2="58.3855" gradientUnits="userSpaceOnUse">
<stop stop-color="#9FB5D5"/>
<stop offset="1" stop-color="#98A5BF"/>
</linearGradient>
<linearGradient id="paint29_linear_138_3159" x1="97.3589" y1="109.151" x2="55.286" y2="58.3855" gradientUnits="userSpaceOnUse">
<stop stop-color="#9FB5D5"/>
<stop offset="1" stop-color="#98A5BF"/>
</linearGradient>
<linearGradient id="paint30_linear_138_3159" x1="97.3589" y1="109.151" x2="55.286" y2="58.3855" gradientUnits="userSpaceOnUse">
<stop stop-color="#9FB5D5"/>
<stop offset="1" stop-color="#98A5BF"/>
</linearGradient>
<linearGradient id="paint31_linear_138_3159" x1="97.3589" y1="109.151" x2="55.286" y2="58.3855" gradientUnits="userSpaceOnUse">
<stop stop-color="#9FB5D5"/>
<stop offset="1" stop-color="#98A5BF"/>
</linearGradient>
<linearGradient id="paint32_linear_138_3159" x1="97.3589" y1="109.151" x2="55.286" y2="58.3855" gradientUnits="userSpaceOnUse">
<stop stop-color="#9FB5D5"/>
<stop offset="1" stop-color="#98A5BF"/>
</linearGradient>
<linearGradient id="paint33_linear_138_3159" x1="97.3589" y1="109.151" x2="55.286" y2="58.3855" gradientUnits="userSpaceOnUse">
<stop stop-color="#9FB5D5"/>
<stop offset="1" stop-color="#98A5BF"/>
</linearGradient>
<linearGradient id="paint34_linear_138_3159" x1="97.3589" y1="109.151" x2="55.286" y2="58.3855" gradientUnits="userSpaceOnUse">
<stop stop-color="#9FB5D5"/>
<stop offset="1" stop-color="#98A5BF"/>
</linearGradient>
<linearGradient id="paint35_linear_138_3159" x1="97.3589" y1="109.151" x2="55.286" y2="58.3855" gradientUnits="userSpaceOnUse">
<stop stop-color="#9FB5D5"/>
<stop offset="1" stop-color="#98A5BF"/>
</linearGradient>
<linearGradient id="paint36_linear_138_3159" x1="97.3589" y1="109.151" x2="55.286" y2="58.3855" gradientUnits="userSpaceOnUse">
<stop stop-color="#9FB5D5"/>
<stop offset="1" stop-color="#98A5BF"/>
</linearGradient>
<linearGradient id="paint37_linear_138_3159" x1="97.3589" y1="109.151" x2="55.286" y2="58.3855" gradientUnits="userSpaceOnUse">
<stop stop-color="#9FB5D5"/>
<stop offset="1" stop-color="#98A5BF"/>
</linearGradient>
<linearGradient id="paint38_linear_138_3159" x1="97.3589" y1="109.151" x2="55.286" y2="58.3855" gradientUnits="userSpaceOnUse">
<stop stop-color="#9FB5D5"/>
<stop offset="1" stop-color="#98A5BF"/>
</linearGradient>
<linearGradient id="paint39_linear_138_3159" x1="97.3589" y1="109.151" x2="55.286" y2="58.3855" gradientUnits="userSpaceOnUse">
<stop stop-color="#9FB5D5"/>
<stop offset="1" stop-color="#98A5BF"/>
</linearGradient>
<linearGradient id="paint40_linear_138_3159" x1="97.3589" y1="109.151" x2="55.286" y2="58.3855" gradientUnits="userSpaceOnUse">
<stop stop-color="#9FB5D5"/>
<stop offset="1" stop-color="#98A5BF"/>
</linearGradient>
<linearGradient id="paint41_linear_138_3159" x1="97.3589" y1="109.151" x2="55.286" y2="58.3855" gradientUnits="userSpaceOnUse">
<stop stop-color="#9FB5D5"/>
<stop offset="1" stop-color="#98A5BF"/>
</linearGradient>
<linearGradient id="paint42_linear_138_3159" x1="97.3589" y1="109.151" x2="55.286" y2="58.3855" gradientUnits="userSpaceOnUse">
<stop stop-color="#9FB5D5"/>
<stop offset="1" stop-color="#98A5BF"/>
</linearGradient>
<linearGradient id="paint43_linear_138_3159" x1="97.3589" y1="109.151" x2="55.286" y2="58.3855" gradientUnits="userSpaceOnUse">
<stop stop-color="#9FB5D5"/>
<stop offset="1" stop-color="#98A5BF"/>
</linearGradient>
<linearGradient id="paint44_linear_138_3159" x1="97.3589" y1="109.151" x2="55.286" y2="58.3855" gradientUnits="userSpaceOnUse">
<stop stop-color="#9FB5D5"/>
<stop offset="1" stop-color="#98A5BF"/>
</linearGradient>
<linearGradient id="paint45_linear_138_3159" x1="97.3589" y1="109.151" x2="55.286" y2="58.3855" gradientUnits="userSpaceOnUse">
<stop stop-color="#9FB5D5"/>
<stop offset="1" stop-color="#98A5BF"/>
</linearGradient>
<linearGradient id="paint46_linear_138_3159" x1="97.3589" y1="109.151" x2="55.286" y2="58.3855" gradientUnits="userSpaceOnUse">
<stop stop-color="#9FB5D5"/>
<stop offset="1" stop-color="#98A5BF"/>
</linearGradient>
<linearGradient id="paint47_linear_138_3159" x1="97.3589" y1="109.151" x2="55.286" y2="58.3855" gradientUnits="userSpaceOnUse">
<stop stop-color="#9FB5D5"/>
<stop offset="1" stop-color="#98A5BF"/>
</linearGradient>
<linearGradient id="paint48_linear_138_3159" x1="97.3589" y1="109.151" x2="55.286" y2="58.3855" gradientUnits="userSpaceOnUse">
<stop stop-color="#9FB5D5"/>
<stop offset="1" stop-color="#98A5BF"/>
</linearGradient>
<linearGradient id="paint49_linear_138_3159" x1="97.3589" y1="109.151" x2="55.286" y2="58.3855" gradientUnits="userSpaceOnUse">
<stop stop-color="#9FB5D5"/>
<stop offset="1" stop-color="#98A5BF"/>
</linearGradient>
<linearGradient id="paint50_linear_138_3159" x1="97.3589" y1="109.151" x2="55.286" y2="58.3855" gradientUnits="userSpaceOnUse">
<stop stop-color="#9FB5D5"/>
<stop offset="1" stop-color="#98A5BF"/>
</linearGradient>
<linearGradient id="paint51_linear_138_3159" x1="97.3589" y1="109.151" x2="55.286" y2="58.3855" gradientUnits="userSpaceOnUse">
<stop stop-color="#9FB5D5"/>
<stop offset="1" stop-color="#98A5BF"/>
</linearGradient>
<linearGradient id="paint52_linear_138_3159" x1="97.3589" y1="109.151" x2="55.286" y2="58.3855" gradientUnits="userSpaceOnUse">
<stop stop-color="#9FB5D5"/>
<stop offset="1" stop-color="#98A5BF"/>
</linearGradient>
<linearGradient id="paint53_linear_138_3159" x1="97.3589" y1="109.151" x2="55.286" y2="58.3855" gradientUnits="userSpaceOnUse">
<stop stop-color="#9FB5D5"/>
<stop offset="1" stop-color="#98A5BF"/>
</linearGradient>
<linearGradient id="paint54_linear_138_3159" x1="97.3589" y1="109.151" x2="55.286" y2="58.3855" gradientUnits="userSpaceOnUse">
<stop stop-color="#9FB5D5"/>
<stop offset="1" stop-color="#98A5BF"/>
</linearGradient>
<linearGradient id="paint55_linear_138_3159" x1="97.3589" y1="109.151" x2="55.286" y2="58.3855" gradientUnits="userSpaceOnUse">
<stop stop-color="#9FB5D5"/>
<stop offset="1" stop-color="#98A5BF"/>
</linearGradient>
<linearGradient id="paint56_linear_138_3159" x1="97.3589" y1="109.151" x2="55.286" y2="58.3855" gradientUnits="userSpaceOnUse">
<stop stop-color="#9FB5D5"/>
<stop offset="1" stop-color="#98A5BF"/>
</linearGradient>
<linearGradient id="paint57_linear_138_3159" x1="97.3589" y1="109.151" x2="55.286" y2="58.3855" gradientUnits="userSpaceOnUse">
<stop stop-color="#9FB5D5"/>
<stop offset="1" stop-color="#98A5BF"/>
</linearGradient>
<linearGradient id="paint58_linear_138_3159" x1="97.3589" y1="109.151" x2="55.286" y2="58.3855" gradientUnits="userSpaceOnUse">
<stop stop-color="#9FB5D5"/>
<stop offset="1" stop-color="#98A5BF"/>
</linearGradient>
<linearGradient id="paint59_linear_138_3159" x1="97.3589" y1="109.151" x2="55.286" y2="58.3855" gradientUnits="userSpaceOnUse">
<stop stop-color="#9FB5D5"/>
<stop offset="1" stop-color="#98A5BF"/>
</linearGradient>
<linearGradient id="paint60_linear_138_3159" x1="97.3589" y1="109.151" x2="55.286" y2="58.3855" gradientUnits="userSpaceOnUse">
<stop stop-color="#9FB5D5"/>
<stop offset="1" stop-color="#98A5BF"/>
</linearGradient>
<linearGradient id="paint61_linear_138_3159" x1="97.3589" y1="109.151" x2="55.286" y2="58.3855" gradientUnits="userSpaceOnUse">
<stop stop-color="#9FB5D5"/>
<stop offset="1" stop-color="#98A5BF"/>
</linearGradient>
<linearGradient id="paint62_linear_138_3159" x1="97.3589" y1="109.151" x2="55.286" y2="58.3855" gradientUnits="userSpaceOnUse">
<stop stop-color="#9FB5D5"/>
<stop offset="1" stop-color="#98A5BF"/>
</linearGradient>
<linearGradient id="paint63_linear_138_3159" x1="97.3589" y1="109.151" x2="55.286" y2="58.3855" gradientUnits="userSpaceOnUse">
<stop stop-color="#9FB5D5"/>
<stop offset="1" stop-color="#98A5BF"/>
</linearGradient>
<linearGradient id="paint64_linear_138_3159" x1="97.3589" y1="109.151" x2="55.286" y2="58.3855" gradientUnits="userSpaceOnUse">
<stop stop-color="#9FB5D5"/>
<stop offset="1" stop-color="#98A5BF"/>
</linearGradient>
<linearGradient id="paint65_linear_138_3159" x1="97.3589" y1="109.151" x2="55.286" y2="58.3855" gradientUnits="userSpaceOnUse">
<stop stop-color="#9FB5D5"/>
<stop offset="1" stop-color="#98A5BF"/>
</linearGradient>
<linearGradient id="paint66_linear_138_3159" x1="97.3589" y1="109.151" x2="55.286" y2="58.3855" gradientUnits="userSpaceOnUse">
<stop stop-color="#9FB5D5"/>
<stop offset="1" stop-color="#98A5BF"/>
</linearGradient>
<linearGradient id="paint67_linear_138_3159" x1="97.3589" y1="109.151" x2="55.286" y2="58.3855" gradientUnits="userSpaceOnUse">
<stop stop-color="#9FB5D5"/>
<stop offset="1" stop-color="#98A5BF"/>
</linearGradient>
<linearGradient id="paint68_linear_138_3159" x1="97.3589" y1="109.151" x2="55.286" y2="58.3855" gradientUnits="userSpaceOnUse">
<stop stop-color="#9FB5D5"/>
<stop offset="1" stop-color="#98A5BF"/>
</linearGradient>
<linearGradient id="paint69_linear_138_3159" x1="97.3589" y1="109.151" x2="55.286" y2="58.3855" gradientUnits="userSpaceOnUse">
<stop stop-color="#9FB5D5"/>
<stop offset="1" stop-color="#98A5BF"/>
</linearGradient>
<linearGradient id="paint70_linear_138_3159" x1="97.3589" y1="109.151" x2="55.286" y2="58.3855" gradientUnits="userSpaceOnUse">
<stop stop-color="#9FB5D5"/>
<stop offset="1" stop-color="#98A5BF"/>
</linearGradient>
<linearGradient id="paint71_linear_138_3159" x1="97.3589" y1="109.151" x2="55.286" y2="58.3855" gradientUnits="userSpaceOnUse">
<stop stop-color="#9FB5D5"/>
<stop offset="1" stop-color="#98A5BF"/>
</linearGradient>
<linearGradient id="paint72_linear_138_3159" x1="97.3589" y1="109.151" x2="55.286" y2="58.3855" gradientUnits="userSpaceOnUse">
<stop stop-color="#9FB5D5"/>
<stop offset="1" stop-color="#98A5BF"/>
</linearGradient>
<linearGradient id="paint73_linear_138_3159" x1="97.3589" y1="109.151" x2="55.286" y2="58.3855" gradientUnits="userSpaceOnUse">
<stop stop-color="#9FB5D5"/>
<stop offset="1" stop-color="#98A5BF"/>
</linearGradient>
<linearGradient id="paint74_linear_138_3159" x1="97.3589" y1="109.151" x2="55.286" y2="58.3855" gradientUnits="userSpaceOnUse">
<stop stop-color="#9FB5D5"/>
<stop offset="1" stop-color="#98A5BF"/>
</linearGradient>
<linearGradient id="paint75_linear_138_3159" x1="97.3589" y1="109.151" x2="55.286" y2="58.3855" gradientUnits="userSpaceOnUse">
<stop stop-color="#9FB5D5"/>
<stop offset="1" stop-color="#98A5BF"/>
</linearGradient>
<linearGradient id="paint76_linear_138_3159" x1="97.3589" y1="109.151" x2="55.286" y2="58.3855" gradientUnits="userSpaceOnUse">
<stop stop-color="#9FB5D5"/>
<stop offset="1" stop-color="#98A5BF"/>
</linearGradient>
<linearGradient id="paint77_linear_138_3159" x1="97.3589" y1="109.151" x2="55.286" y2="58.3855" gradientUnits="userSpaceOnUse">
<stop stop-color="#9FB5D5"/>
<stop offset="1" stop-color="#98A5BF"/>
</linearGradient>
<linearGradient id="paint78_linear_138_3159" x1="97.3589" y1="109.151" x2="55.286" y2="58.3855" gradientUnits="userSpaceOnUse">
<stop stop-color="#9FB5D5"/>
<stop offset="1" stop-color="#98A5BF"/>
</linearGradient>
<linearGradient id="paint79_linear_138_3159" x1="97.3589" y1="109.151" x2="55.286" y2="58.3855" gradientUnits="userSpaceOnUse">
<stop stop-color="#9FB5D5"/>
<stop offset="1" stop-color="#98A5BF"/>
</linearGradient>
<linearGradient id="paint80_linear_138_3159" x1="97.3589" y1="109.151" x2="55.286" y2="58.3855" gradientUnits="userSpaceOnUse">
<stop stop-color="#9FB5D5"/>
<stop offset="1" stop-color="#98A5BF"/>
</linearGradient>
<linearGradient id="paint81_linear_138_3159" x1="97.3589" y1="109.151" x2="55.286" y2="58.3855" gradientUnits="userSpaceOnUse">
<stop stop-color="#9FB5D5"/>
<stop offset="1" stop-color="#98A5BF"/>
</linearGradient>
<linearGradient id="paint82_linear_138_3159" x1="97.3589" y1="109.151" x2="55.286" y2="58.3855" gradientUnits="userSpaceOnUse">
<stop stop-color="#9FB5D5"/>
<stop offset="1" stop-color="#98A5BF"/>
</linearGradient>
<linearGradient id="paint83_linear_138_3159" x1="97.3589" y1="109.151" x2="55.286" y2="58.3855" gradientUnits="userSpaceOnUse">
<stop stop-color="#9FB5D5"/>
<stop offset="1" stop-color="#98A5BF"/>
</linearGradient>
<linearGradient id="paint84_linear_138_3159" x1="6.05833" y1="58.5875" x2="46.3516" y2="58.5875" gradientUnits="userSpaceOnUse">
<stop stop-color="#9CAAD6"/>
<stop offset="0.05" stop-color="#9FA9BD"/>
<stop offset="0.27" stop-color="#BCC6E0"/>
<stop offset="0.32" stop-color="#A5B5C4"/>
<stop offset="0.97" stop-color="#9CBAD6"/>
<stop offset="0.98" stop-color="#96ACD4"/>
<stop offset="0.99" stop-color="#8899D0"/>
<stop offset="1" stop-color="#6B96C7"/>
</linearGradient>
<linearGradient id="paint85_linear_138_3159" x1="25.9788" y1="64.5232" x2="25.9788" y2="44.1265" gradientUnits="userSpaceOnUse">
<stop stop-color="#E1E8F7"/>
<stop offset="0.21" stop-color="#E4EBF8"/>
<stop offset="1" stop-color="#EDF4FC"/>
</linearGradient>
<linearGradient id="paint86_linear_138_3159" x1="9.25977" y1="54.3237" x2="42.6991" y2="54.3237" gradientUnits="userSpaceOnUse">
<stop stop-color="#799FCF"/>
<stop offset="1" stop-color="#9F93D2"/>
</linearGradient>
<linearGradient id="paint87_linear_138_3159" x1="27.2706" y1="47.973" x2="27.2706" y2="54.4922" gradientUnits="userSpaceOnUse">
<stop stop-color="#1C1C1C"/>
<stop offset="1"/>
</linearGradient>
<linearGradient id="paint88_linear_138_3159" x1="115.788" y1="42.043" x2="63.2836" y2="15.9647" gradientUnits="userSpaceOnUse">
<stop stop-color="#BACAE1"/>
<stop offset="1" stop-color="#8090BA"/>
</linearGradient>
<linearGradient id="paint89_linear_138_3159" x1="60.5129" y1="62.7146" x2="120.706" y2="62.7146" gradientUnits="userSpaceOnUse">
<stop stop-color="#6752C2"/>
<stop offset="1" stop-color="#3685E6"/>
</linearGradient>
<linearGradient id="paint90_linear_138_3159" x1="52.273" y1="32.9248" x2="52.273" y2="13.2416" gradientUnits="userSpaceOnUse">
<stop stop-color="#7F8FAD"/>
<stop offset="0.25" stop-color="#7F96B1"/>
<stop offset="1" stop-color="#8099BA"/>
</linearGradient>
<linearGradient id="paint91_linear_138_3159" x1="20.1315" y1="6.98431" x2="20.3485" y2="6.55072" gradientUnits="userSpaceOnUse">
<stop stop-color="#68578F"/>
<stop offset="0.09" stop-color="#695890"/>
<stop offset="1" stop-color="#716099"/>
</linearGradient>
<linearGradient id="paint92_linear_138_3159" x1="21.1373" y1="7.49229" x2="21.3543" y2="7.05871" gradientUnits="userSpaceOnUse">
<stop stop-color="#68578F"/>
<stop offset="0.09" stop-color="#695890"/>
<stop offset="1" stop-color="#716099"/>
</linearGradient>
<linearGradient id="paint93_linear_138_3159" x1="22.1399" y1="7.99881" x2="22.357" y2="7.56523" gradientUnits="userSpaceOnUse">
<stop stop-color="#68578F"/>
<stop offset="0.09" stop-color="#695890"/>
<stop offset="1" stop-color="#716099"/>
</linearGradient>
<linearGradient id="paint94_linear_138_3159" x1="116.482" y1="52.1287" x2="97.3578" y2="43.7837" gradientUnits="userSpaceOnUse">
<stop stop-color="#B8C8E0"/>
<stop offset="1" stop-color="#8092BA"/>
</linearGradient>
<linearGradient id="paint95_linear_138_3159" x1="78.8621" y1="53.4171" x2="81.5741" y2="54.7721" gradientUnits="userSpaceOnUse">
<stop stop-color="#3585E6"/>
<stop offset="1" stop-color="#6852C2"/>
</linearGradient>
<linearGradient id="paint96_linear_138_3159" x1="70.8637" y1="47.7086" x2="73.5796" y2="49.0656" gradientUnits="userSpaceOnUse">
<stop stop-color="#3585E6"/>
<stop offset="1" stop-color="#6852C2"/>
</linearGradient>
<linearGradient id="paint97_linear_138_3159" x1="67.548" y1="43.4887" x2="70.2639" y2="44.8456" gradientUnits="userSpaceOnUse">
<stop stop-color="#3585E6"/>
<stop offset="1" stop-color="#6752C2"/>
</linearGradient>
<linearGradient id="paint98_linear_138_3159" x1="75.5445" y1="49.1952" x2="78.2565" y2="50.5502" gradientUnits="userSpaceOnUse">
<stop stop-color="#3685E6"/>
<stop offset="1" stop-color="#6752C2"/>
</linearGradient>
</defs>
</svg>
