<svg width="111" height="93" viewBox="0 0 111 93" fill="none" xmlns="http://www.w3.org/2000/svg">
<path d="M47.8015 21.2416L48.7138 19.7186L48.3945 19.505C48.8314 16.2393 46.2129 11.8737 41.7605 8.9111C37.3047 5.9506 32.4383 5.33308 29.8245 7.15204L29.5053 6.9384L28.593 8.46133C26.6264 11.741 29.3295 17.2623 34.634 20.7918C39.9385 24.3213 45.8341 24.5241 47.8007 21.2443L47.8015 21.2416Z" fill="#E7A349"/>
<path d="M48.7061 19.7344C50.6865 16.463 47.9953 10.9434 42.6952 7.40604C37.3951 3.86865 31.4931 3.65299 29.5128 6.92434C27.5324 10.1957 30.2236 15.7153 35.5237 19.2527C40.8238 22.7901 46.7257 23.0057 48.7061 19.7344Z" fill="#FFEA79"/>
<path d="M45.9922 17.9258C47.4136 15.5778 45.4821 11.6161 41.6779 9.07719C37.8738 6.53824 33.6377 6.38345 32.2163 8.73146C30.7949 11.0795 32.7264 15.0411 36.5306 17.5801C40.3347 20.119 44.5708 20.2738 45.9922 17.9258Z" stroke="#E7A349" stroke-width="1.5" stroke-miterlimit="10"/>
<path d="M35.9686 11.9689L37.0947 10.7243C38.1364 9.5729 39.1473 9.59181 39.9053 10.2776L39.9952 10.3589C40.7468 11.0389 40.9074 12.1525 39.9018 13.264L39.0347 14.2224L40.48 15.5301C40.7241 15.7509 40.6526 16.0494 40.4479 16.2757C40.2431 16.502 39.9533 16.6028 39.7092 16.382L35.9899 13.017C35.5853 12.6509 35.5832 12.3949 35.9686 11.9689ZM36.9149 12.3046L38.3409 13.5948L39.1057 12.7495C39.6115 12.1904 39.7451 11.6941 39.2056 11.2059L39.1349 11.142C38.6274 10.6829 38.1854 10.9002 37.7459 11.3861L36.9149 12.3046Z" fill="#E7A349" stroke="#E7A349" stroke-width="0.5"/>
<path d="M86.7585 17.8147L85.8796 16.8025L85.6345 16.9961C83.3312 15.9607 79.3694 16.9729 75.942 19.6582C72.5147 22.3413 70.7149 25.843 71.3442 28.1894L71.0991 28.383L71.978 29.3953C73.8706 31.5754 78.7135 30.7505 82.7946 27.5539C86.8756 24.3573 88.6511 19.997 86.7608 17.8168L86.7585 17.8147Z" fill="#E7A349"/>
<path d="M81.8974 26.5503C85.9846 23.3579 87.7724 18.9963 85.8905 16.8085C84.0086 14.6206 79.1698 15.435 75.0826 18.6274C70.9954 21.8198 69.2077 26.1813 71.0895 28.3692C72.9714 30.557 77.8103 29.7426 81.8974 26.5503Z" fill="#FFEA79"/>
<path d="M79.151 20.4722L80.0107 21.3606C80.8061 22.1825 80.7428 22.9245 80.2017 23.4481L80.1376 23.5102C79.6011 24.0293 78.7748 24.093 78.007 23.2996L77.345 22.6155L76.3133 23.6138C76.1391 23.7824 75.9232 23.7153 75.7669 23.5538C75.6106 23.3923 75.5506 23.1743 75.7249 23.0057L78.3797 20.4366C78.6686 20.1571 78.8568 20.1681 79.151 20.4722ZM78.8581 21.1512L77.8402 22.1363L78.4241 22.7396C78.8102 23.1387 79.1685 23.2612 79.5537 22.8885L79.6041 22.8397C79.9663 22.4891 79.8282 22.1537 79.4925 21.8068L78.8581 21.1512Z" fill="#E7A349" stroke="#E7A349" stroke-width="0.5"/>
<path d="M80.9408 25.4353C83.8744 23.1439 85.1575 20.0135 83.8068 18.4431C82.4561 16.8728 78.983 17.4573 76.0495 19.7486C73.1159 22.04 71.8328 25.1705 73.1835 26.7408C74.5342 28.3111 78.0072 27.7266 80.9408 25.4353Z" stroke="#E7A349" stroke-miterlimit="10"/>
<path d="M94.9129 40.333H28.4465C26.4936 40.333 24.9104 41.927 24.9104 43.8933V86.9905C24.9104 88.9567 26.4936 90.5507 28.4465 90.5507H94.9129C96.8658 90.5507 98.449 88.9567 98.449 86.9905V43.8933C98.449 41.927 96.8658 40.333 94.9129 40.333Z" fill="url(#paint0_linear_138_4169)"/>
<g opacity="0.9">
<path d="M40.1819 54.5879H36.8152V65.441H40.1819V54.5879Z" fill="white"/>
<path d="M33.9087 54.5879H36.1085V57.7661H32.8479V55.656C32.8479 55.0664 33.3231 54.5879 33.9087 54.5879Z" fill="white"/>
<path d="M36.1085 58.4258H32.8479V61.604H36.1085V58.4258Z" fill="white"/>
<path d="M32.8479 62.2617H36.1085V65.44H33.9087C33.3231 65.44 32.8479 64.9615 32.8479 64.3719V62.2617Z" fill="white"/>
<path d="M40.8896 54.5879H43.0894C43.675 54.5879 44.1503 55.0664 44.1503 55.656V57.7661H40.8896V54.5879Z" fill="white"/>
<path d="M44.1503 58.4258H40.8896V61.604H44.1503V58.4258Z" fill="white"/>
<path d="M40.8896 62.2617H44.1503V64.3719C44.1503 64.9615 43.675 65.44 43.0894 65.44H40.8896V62.2617Z" fill="white"/>
</g>
<g opacity="0.9">
<path d="M33.7881 75.8909C33.2687 75.8909 32.8479 75.4669 32.8479 74.9442C32.8479 74.4216 33.269 73.9976 33.7881 73.9976H40.2938C40.8133 73.9976 41.2341 74.4216 41.2341 74.9442C41.2341 75.4669 40.8129 75.8909 40.2938 75.8909H33.7881Z" fill="white"/>
<path d="M44.5342 75.8909C44.0148 75.8909 43.594 75.4669 43.594 74.9442C43.594 74.4216 44.0151 73.9976 44.5342 73.9976H51.0399C51.5594 73.9976 51.9802 74.4216 51.9802 74.9442C51.9802 75.4669 51.559 75.8909 51.0399 75.8909H44.5342Z" fill="white"/>
<path d="M55.2811 75.8909C54.7616 75.8909 54.3408 75.4669 54.3408 74.9442C54.3408 74.4216 54.762 73.9976 55.2811 73.9976H61.7868C62.3062 73.9976 62.727 74.4216 62.727 74.9442C62.727 75.4669 62.3059 75.8909 61.7868 75.8909H55.2811Z" fill="white"/>
<path d="M66.0281 75.8909C65.5087 75.8909 65.0879 75.4669 65.0879 74.9442C65.0879 74.4216 65.509 73.9976 66.0281 73.9976H72.5338C73.0533 73.9976 73.4741 74.4216 73.4741 74.9442C73.4741 75.4669 73.0529 75.8909 72.5338 75.8909H66.0281Z" fill="white"/>
<path d="M85.6146 47.011C85.0951 47.011 84.6743 46.587 84.6743 46.0643C84.6743 45.5417 85.0955 45.1177 85.6146 45.1177H92.7709C93.2903 45.1177 93.7111 45.5417 93.7111 46.0643C93.7111 46.587 93.29 47.011 92.7709 47.011H85.6146Z" fill="white"/>
<path d="M33.7881 79.8055C33.2687 79.8055 32.8479 79.3814 32.8479 78.8588C32.8479 78.3361 33.269 77.9121 33.7881 77.9121H43.0163C43.5357 77.9121 43.9565 78.3361 43.9565 78.8588C43.9565 79.3814 43.5354 79.8055 43.0163 79.8055H33.7881Z" fill="white"/>
<path d="M47.2569 79.8055C46.7374 79.8055 46.3167 79.3814 46.3167 78.8588C46.3167 78.3361 46.7378 77.9121 47.2569 77.9121H51.0402C51.5596 77.9121 51.9804 78.3361 51.9804 78.8588C51.9804 79.3814 51.5593 79.8055 51.0402 79.8055H47.2569Z" fill="white"/>
</g>
<path opacity="0.85" d="M28.0668 73.3491C30.4183 73.3491 32.3423 71.412 32.3423 69.0444V35.9971C32.3423 33.6295 34.2663 31.6924 36.6178 31.6924H9.92847C7.30469 31.6924 5.17773 33.8339 5.17773 36.4756V72.5356C5.17773 72.9849 5.53948 73.3491 5.98573 73.3491H28.0668Z" fill="white"/>
<path d="M36.613 31.6924C34.2639 31.6952 32.3428 33.6313 32.3428 35.9971V40.3342H39.1766C40.1208 40.3342 40.886 39.5637 40.886 38.6132V35.9967C40.886 33.6306 38.9634 31.6938 36.613 31.6924Z" fill="url(#paint1_linear_138_4169)"/>
<path d="M28.067 73.3488C25.7155 73.3488 23.7915 71.4116 23.7915 69.0441V68.4613C23.7915 67.5107 23.0263 66.7402 22.0822 66.7402H1.70934C0.765563 66.7402 0 67.5107 0 68.4613V69.0441C0 71.4116 1.92398 73.3488 4.27548 73.3488H28.067Z" fill="url(#paint2_linear_138_4169)"/>
<path d="M28.4593 43.3064C28.8196 43.3064 29.1117 43.0123 29.1117 42.6495C29.1117 42.2868 28.8196 41.9927 28.4593 41.9927H8.87824C8.51791 41.9927 8.22583 42.2868 8.22583 42.6495C8.22583 43.0123 8.51791 43.3064 8.87824 43.3064H28.4593Z" fill="url(#paint3_linear_138_4169)"/>
<path d="M24.9086 47.9841C25.2689 47.9841 25.561 47.6901 25.561 47.3273C25.561 46.9645 25.2689 46.6704 24.9086 46.6704H8.87848C8.51815 46.6704 8.22607 46.9645 8.22607 47.3273C8.22607 47.6901 8.51815 47.9841 8.87848 47.9841H24.9086Z" fill="url(#paint4_linear_138_4169)"/>
<path d="M27.0103 52.6599C27.3706 52.6599 27.6627 52.3658 27.6627 52.0031C27.6627 51.6403 27.3706 51.3462 27.0103 51.3462H17.546C17.1856 51.3462 16.8936 51.6403 16.8936 52.0031C16.8936 52.3658 17.1856 52.6599 17.546 52.6599H27.0103Z" fill="url(#paint5_linear_138_4169)"/>
<path d="M14.6119 52.6599C14.9722 52.6599 15.2643 52.3658 15.2643 52.0031C15.2643 51.6403 14.9722 51.3462 14.6119 51.3462H8.87848C8.51815 51.3462 8.22607 51.6403 8.22607 52.0031C8.22607 52.3658 8.51815 52.6599 8.87848 52.6599H14.6119Z" fill="url(#paint6_linear_138_4169)"/>
<path d="M28.4596 57.3372C28.8199 57.3372 29.112 57.0431 29.112 56.6803C29.112 56.3175 28.8199 56.0234 28.4596 56.0234H8.87848C8.51815 56.0234 8.22607 56.3175 8.22607 56.6803C8.22607 57.0431 8.51815 57.3372 8.87848 57.3372H28.4596Z" fill="url(#paint7_linear_138_4169)"/>
<path d="M23.4549 62.013C23.8153 62.013 24.1073 61.7189 24.1073 61.3561C24.1073 60.9933 23.8153 60.6992 23.4549 60.6992H8.87848C8.51815 60.6992 8.22607 60.9933 8.22607 61.3561C8.22607 61.7189 8.51815 62.013 8.87848 62.013H23.4549Z" fill="url(#paint8_linear_138_4169)"/>
<path d="M107.93 92.1055H85.4267C84.7288 92.1055 84.1631 91.5397 84.1631 90.8418V88.6451C84.1631 87.9472 84.7288 87.3815 85.4267 87.3815H107.93C108.628 87.3815 109.194 87.9472 109.194 88.6451V90.8418C109.194 91.5397 108.628 92.1055 107.93 92.1055Z" fill="#FFEA79"/>
<path d="M86.3301 92.1055H85.5801V87.3815H86.3301V92.1055Z" fill="#E7A349"/>
<path d="M88.7156 92.1055H87.9656V87.3815H88.7156V92.1055Z" fill="#E7A349"/>
<path d="M91.0987 92.1055H90.3486V87.3815H91.0987V92.1055Z" fill="#E7A349"/>
<path d="M93.4834 92.1055H92.7334V87.3815H93.4834V92.1055Z" fill="#E7A349"/>
<path d="M95.8658 92.1055H95.1157V87.3815H95.8658V92.1055Z" fill="#E7A349"/>
<path d="M98.2505 92.1055H97.5005V87.3815H98.2505V92.1055Z" fill="#E7A349"/>
<path d="M100.634 92.1055H99.8838V87.3815H100.634V92.1055Z" fill="#E7A349"/>
<path d="M103.019 92.1055H102.269V87.3815H103.019V92.1055Z" fill="#E7A349"/>
<path d="M105.396 92.1055H104.646V87.3815H105.396V92.1055Z" fill="#E7A349"/>
<path d="M107.782 92.1055H107.032V87.3815H107.782V92.1055Z" fill="#E7A349"/>
<g style="mix-blend-mode:multiply" opacity="0.4">
<path d="M109.197 89.8286V90.8431C109.197 91.5397 108.632 92.1041 107.936 92.1041H85.4295C84.7303 92.1041 84.1659 91.5372 84.1659 90.8431V89.8286C84.1659 90.5278 84.7329 91.0922 85.4295 91.0922H107.936C108.635 91.0922 109.197 90.5253 109.197 89.8286Z" fill="#FFEA79"/>
</g>
<path d="M105.939 87.3901H83.4353C82.7374 87.3901 82.1716 86.8244 82.1716 86.1265V83.9298C82.1716 83.2319 82.7374 82.6662 83.4353 82.6662H105.939C106.637 82.6662 107.203 83.2319 107.203 83.9298V86.1265C107.203 86.8244 106.637 87.3901 105.939 87.3901Z" fill="#FFEA79"/>
<path d="M84.3338 87.3901H83.5837V82.6662H84.3338V87.3901Z" fill="#E7A349"/>
<path d="M86.7203 87.3901H85.9702V82.6662H86.7203V87.3901Z" fill="#E7A349"/>
<path d="M89.1023 87.3901H88.3523V82.6662H89.1023V87.3901Z" fill="#E7A349"/>
<path d="M91.4881 87.3901H90.738V82.6662H91.4881V87.3901Z" fill="#E7A349"/>
<path d="M93.8653 87.3901H93.1152V82.6662H93.8653V87.3901Z" fill="#E7A349"/>
<path d="M96.2517 87.3901H95.5017V82.6662H96.2517V87.3901Z" fill="#E7A349"/>
<path d="M98.6324 87.3901H97.8823V82.6662H98.6324V87.3901Z" fill="#E7A349"/>
<path d="M101.019 87.3901H100.269V82.6662H101.019V87.3901Z" fill="#E7A349"/>
<path d="M103.399 87.3901H102.649V82.6662H103.399V87.3901Z" fill="#E7A349"/>
<path d="M105.786 87.3901H105.036V82.6662H105.786V87.3901Z" fill="#E7A349"/>
<g style="mix-blend-mode:multiply" opacity="0.4">
<path d="M107.2 85.1133V86.1277C107.2 86.8244 106.636 87.3888 105.939 87.3888H83.4329C82.7337 87.3888 82.1693 86.8218 82.1693 86.1277V85.1133C82.1693 85.8125 82.7363 86.3769 83.4329 86.3769H105.939C106.638 86.3769 107.2 85.8099 107.2 85.1133Z" fill="#FFEA79"/>
</g>
<path d="M107.973 82.6763H85.4692C84.7713 82.6763 84.2056 82.1105 84.2056 81.4126V79.2159C84.2056 78.518 84.7713 77.9523 85.4692 77.9523H107.973C108.671 77.9523 109.236 78.518 109.236 79.2159V81.4126C109.236 82.1105 108.671 82.6763 107.973 82.6763Z" fill="#FFEA79"/>
<path d="M86.3726 82.6763H85.6226V77.9523H86.3726V82.6763Z" fill="#E7A349"/>
<path d="M88.7598 82.6763H88.0098V77.9523H88.7598V82.6763Z" fill="#E7A349"/>
<path d="M91.1411 82.6763H90.3911V77.9523H91.1411V82.6763Z" fill="#E7A349"/>
<path d="M93.5259 82.6763H92.7759V77.9523H93.5259V82.6763Z" fill="#E7A349"/>
<path d="M95.9082 82.6763H95.1582V77.9523H95.9082V82.6763Z" fill="#E7A349"/>
<path d="M98.293 82.6763H97.543V77.9523H98.293V82.6763Z" fill="#E7A349"/>
<path d="M100.676 82.6763H99.9263V77.9523H100.676V82.6763Z" fill="#E7A349"/>
<path d="M103.062 82.6763H102.312V77.9523H103.062V82.6763Z" fill="#E7A349"/>
<path d="M105.438 82.6763H104.688V77.9523H105.438V82.6763Z" fill="#E7A349"/>
<path d="M107.825 82.6763H107.075V77.9523H107.825V82.6763Z" fill="#E7A349"/>
<g style="mix-blend-mode:multiply" opacity="0.4">
<path d="M109.239 80.3994V81.4139C109.239 82.1105 108.675 82.675 107.978 82.675H85.472C84.7728 82.675 84.2084 82.108 84.2084 81.4139V80.3994C84.2084 81.0986 84.7753 81.663 85.472 81.663H107.978C108.677 81.663 109.239 81.0961 109.239 80.3994Z" fill="#FFEA79"/>
</g>
<path d="M109.11 77.9604H86.6059C85.908 77.9604 85.3423 77.3947 85.3423 76.6968V74.5001C85.3423 73.8022 85.908 73.2365 86.6059 73.2365H109.11C109.807 73.2365 110.373 73.8022 110.373 74.5001V76.6968C110.373 77.3947 109.807 77.9604 109.11 77.9604Z" fill="#FFEA79"/>
<path d="M87.5093 77.9604H86.7593V73.2365H87.5093V77.9604Z" fill="#E7A349"/>
<path d="M89.8965 77.9604H89.1465V73.2365H89.8965V77.9604Z" fill="#E7A349"/>
<path d="M92.2779 77.9604H91.5278V73.2365H92.2779V77.9604Z" fill="#E7A349"/>
<path d="M94.6626 77.9604H93.9126V73.2365H94.6626V77.9604Z" fill="#E7A349"/>
<path d="M97.045 77.9604H96.2949V73.2365H97.045V77.9604Z" fill="#E7A349"/>
<path d="M99.4263 77.9604H98.6763V73.2365H99.4263V77.9604Z" fill="#E7A349"/>
<path d="M101.813 77.9604H101.063V73.2365H101.813V77.9604Z" fill="#E7A349"/>
<path d="M104.193 77.9604H103.443V73.2365H104.193V77.9604Z" fill="#E7A349"/>
<path d="M106.575 77.9604H105.825V73.2365H106.575V77.9604Z" fill="#E7A349"/>
<path d="M108.961 77.9604H108.211V73.2365H108.961V77.9604Z" fill="#E7A349"/>
<g style="mix-blend-mode:multiply" opacity="0.4">
<path d="M110.376 75.6836V76.6981C110.376 77.3947 109.812 77.9591 109.115 77.9591H86.6087C85.9095 77.9591 85.3451 77.3922 85.3451 76.6981V75.6836C85.3451 76.3828 85.912 76.9472 86.6087 76.9472H109.112C109.812 76.9498 110.376 76.3828 110.376 75.6836Z" fill="#FFEA79"/>
</g>
<path d="M105.156 73.2466H82.6525C81.9547 73.2466 81.3889 72.6808 81.3889 71.983V69.7862C81.3889 69.0884 81.9547 68.5226 82.6525 68.5226H105.156C105.854 68.5226 106.42 69.0884 106.42 69.7862V71.983C106.42 72.6808 105.854 73.2466 105.156 73.2466Z" fill="#FFEA79"/>
<path d="M83.5508 73.2466H82.8008V68.5226H83.5508V73.2466Z" fill="#E7A349"/>
<path d="M85.9373 73.2466H85.1873V68.5226H85.9373V73.2466Z" fill="#E7A349"/>
<path d="M88.3196 73.2466H87.5696V68.5226H88.3196V73.2466Z" fill="#E7A349"/>
<path d="M90.7002 73.2466H89.9502V68.5226H90.7002V73.2466Z" fill="#E7A349"/>
<path d="M93.0823 73.2466H92.3323V68.5226H93.0823V73.2466Z" fill="#E7A349"/>
<path d="M95.4688 73.2466H94.7188V68.5226H95.4688V73.2466Z" fill="#E7A349"/>
<path d="M97.8494 73.2466H97.0994V68.5226H97.8494V73.2466Z" fill="#E7A349"/>
<path d="M100.236 73.2466H99.4858V68.5226H100.236V73.2466Z" fill="#E7A349"/>
<path d="M102.622 73.2466H101.872V68.5226H102.622V73.2466Z" fill="#E7A349"/>
<path d="M105.003 73.2466H104.253V68.5226H105.003V73.2466Z" fill="#E7A349"/>
<g style="mix-blend-mode:multiply" opacity="0.4">
<path d="M106.417 70.9697V71.9842C106.417 72.6808 105.853 73.2453 105.156 73.2453H82.6502C81.951 73.2453 81.3866 72.6783 81.3866 71.9842V70.9697C81.3866 71.6689 81.9536 72.2333 82.6502 72.2333H105.156C105.856 72.2333 106.417 71.6664 106.417 70.9697Z" fill="#FFEA79"/>
</g>
<defs>
<linearGradient id="paint0_linear_138_4169" x1="61.6797" y1="90.2972" x2="61.6797" y2="40.2031" gradientUnits="userSpaceOnUse">
<stop stop-color="#26B9A4"/>
<stop offset="1" stop-color="#7EDACD"/>
</linearGradient>
<linearGradient id="paint1_linear_138_4169" x1="26.5146" y1="36.0135" x2="40.8856" y2="36.0135" gradientUnits="userSpaceOnUse">
<stop stop-color="#FFC7A7"/>
<stop offset="0.99" stop-color="#FFE5D6"/>
</linearGradient>
<linearGradient id="paint2_linear_138_4169" x1="0" y1="70.0445" x2="28.067" y2="70.0445" gradientUnits="userSpaceOnUse">
<stop stop-color="#FFC7A7"/>
<stop offset="0.99" stop-color="#FFE9DD"/>
</linearGradient>
<linearGradient id="paint3_linear_138_4169" x1="8.22548" y1="42.6495" x2="29.1121" y2="42.6495" gradientUnits="userSpaceOnUse">
<stop stop-color="#FFA674"/>
<stop offset="0.99" stop-color="#FFD4BC"/>
</linearGradient>
<linearGradient id="paint4_linear_138_4169" x1="8.22572" y1="47.3269" x2="25.5614" y2="47.3269" gradientUnits="userSpaceOnUse">
<stop stop-color="#FFA775"/>
<stop offset="0.99" stop-color="#FFD4BC"/>
</linearGradient>
<linearGradient id="paint5_linear_138_4169" x1="16.8936" y1="52.0027" x2="27.6627" y2="52.0027" gradientUnits="userSpaceOnUse">
<stop stop-color="#FFA775"/>
<stop offset="0.99" stop-color="#FFD4BC"/>
</linearGradient>
<linearGradient id="paint6_linear_138_4169" x1="8.22572" y1="52.0027" x2="15.2643" y2="52.0027" gradientUnits="userSpaceOnUse">
<stop stop-color="#FFA877"/>
<stop offset="0.99" stop-color="#FFD4BC"/>
</linearGradient>
<linearGradient id="paint7_linear_138_4169" x1="8.22572" y1="56.6803" x2="29.1123" y2="56.6803" gradientUnits="userSpaceOnUse">
<stop stop-color="#FFA775"/>
<stop offset="0.99" stop-color="#FFD4BC"/>
</linearGradient>
<linearGradient id="paint8_linear_138_4169" x1="8.22572" y1="61.3561" x2="24.1073" y2="61.3561" gradientUnits="userSpaceOnUse">
<stop stop-color="#FFA876"/>
<stop offset="0.99" stop-color="#FFD4BC"/>
</linearGradient>
</defs>
</svg>
