<svg width="170" height="210" viewBox="0 0 170 210" fill="none" xmlns="http://www.w3.org/2000/svg">
<mask id="mask0_138_2376" style="mask-type:alpha" maskUnits="userSpaceOnUse" x="0" y="0" width="170" height="210">
<rect width="170" height="210" rx="16" fill="url(#paint0_linear_138_2376)"/>
</mask>
<g mask="url(#mask0_138_2376)">
<g style="mix-blend-mode:multiply">
<path d="M130.633 203.645C129.847 204.039 128.821 204.236 127.784 204.242C126.711 204.248 120.022 204.242 120.022 204.242L15.751 149.223C14.1533 148.424 14.1533 147.111 15.751 146.311L89.9149 109.195C91.5186 108.395 94.1358 108.395 95.7336 109.195L204.797 163.778C206.401 164.577 206.401 165.89 204.797 166.69L130.633 203.639V203.645Z" fill="#DFD8F0"/>
</g>
<path d="M199.366 79.9744L90.302 25.3798C89.5389 24.9979 88.8473 24.9561 88.3287 25.1769L88.2989 25.1889C88.275 25.2008 86.874 25.899 86.874 25.899L200.099 160.855L201.542 160.115C201.995 159.829 202.281 159.303 202.281 158.569V84.3365C202.281 82.7313 200.97 80.7681 199.372 79.9685L199.366 79.9744Z" fill="#A5B7C7"/>
<path d="M200.822 159.304C200.822 160.903 199.51 161.56 197.913 160.76L88.8488 106.166C87.251 105.366 85.9395 103.403 85.9395 101.797V27.5645C85.9395 25.9593 87.2451 25.3089 88.8488 26.1085L197.913 80.7031C199.51 81.5027 200.822 83.466 200.822 85.0712V159.304Z" fill="url(#paint1_linear_138_2376)"/>
<path d="M88.8486 103.253V29.0205L197.912 83.6211V157.854L88.8486 103.253Z" fill="url(#paint2_linear_138_2376)"/>
<path style="mix-blend-mode:screen" d="M165.576 64.5188L88.8488 26.1074C87.251 25.3078 85.9395 25.9642 85.9395 27.5634V101.796C85.9395 103.396 87.2451 105.365 88.8488 106.164L116.613 120.062L165.576 64.5188Z" fill="url(#paint3_linear_138_2376)"/>
<path d="M198.443 165.036V160.626L7 143.273V147.683H7.01788C7.05962 148.185 7.44117 148.68 8.20427 149.056L117.268 203.638C118.866 204.438 121.483 204.438 123.087 203.638L197.251 166.522C198.067 166.116 198.461 165.573 198.443 165.03V165.036Z" fill="url(#paint4_linear_138_2376)"/>
<path d="M123.086 199.276C121.482 200.075 118.865 200.075 117.267 199.276L8.20368 144.693C6.60594 143.894 6.60594 142.581 8.20368 141.781L82.3675 104.665C83.9712 103.865 86.5884 103.865 88.1862 104.665L197.25 159.247C198.854 160.047 198.854 161.36 197.25 162.159L123.086 199.276Z" fill="url(#paint5_linear_138_2376)"/>
<path d="M147.327 182.777C146.791 183.045 145.909 183.045 145.372 182.777L41.1729 130.629C40.6364 130.36 40.6364 129.919 41.1729 129.65L84.3001 108.067C84.8366 107.798 85.7189 107.798 86.2555 108.067L190.455 160.215C190.991 160.483 190.991 160.925 190.455 161.193L147.327 182.777Z" fill="#E8EFFF"/>
<path d="M45.8051 160.811C45.1672 160.489 45.1672 159.964 45.8051 159.648L70.5284 147.272C71.1722 146.955 72.2096 146.949 72.8534 147.272L112.117 166.922C112.755 167.244 112.755 167.769 112.117 168.086L87.3941 180.456C86.7502 180.778 85.7069 180.778 85.069 180.456L45.8051 160.805V160.811Z" fill="#6E7E9F"/>
<path d="M86.9596 180.245C86.5601 180.441 85.9103 180.441 85.5049 180.245L46.241 160.594C45.8415 160.397 45.8415 160.069 46.241 159.866L70.9643 147.496C71.3637 147.299 72.0135 147.293 72.4189 147.496L111.683 167.146C112.082 167.343 112.082 167.677 111.683 167.874L86.9596 180.251V180.245Z" fill="url(#paint6_linear_138_2376)"/>
<path d="M89.2707 116.129C88.8713 116.332 88.2155 116.332 87.8161 116.129L79.8214 112.125C79.422 111.922 79.422 111.594 79.8214 111.397L84.1854 109.219C84.5848 109.016 85.2406 109.016 85.64 109.219L93.6407 113.217C94.0401 113.42 94.0401 113.748 93.6407 113.945L89.2767 116.129H89.2707Z" fill="url(#paint7_linear_138_2376)"/>
<path d="M96.5441 119.771C96.1447 119.974 95.4889 119.974 95.0894 119.771L90.7254 117.587C90.326 117.39 90.326 117.061 90.7254 116.859L95.0835 114.675C95.4829 114.478 96.1387 114.472 96.5381 114.675L100.902 116.859C101.302 117.061 101.302 117.39 100.902 117.587L96.5381 119.771H96.5441Z" fill="url(#paint8_linear_138_2376)"/>
<path d="M103.819 123.41C103.419 123.607 102.764 123.607 102.364 123.41L98.0062 121.226C97.6068 121.023 97.6068 120.7 98.0062 120.498L102.364 118.314C102.764 118.111 103.419 118.111 103.819 118.314L108.183 120.498C108.582 120.7 108.582 121.023 108.183 121.226L103.819 123.41Z" fill="url(#paint9_linear_138_2376)"/>
<path d="M111.091 127.05C110.692 127.247 110.036 127.253 109.636 127.05L105.272 124.866C104.873 124.664 104.873 124.335 105.272 124.138L109.636 121.954C110.036 121.752 110.692 121.752 111.091 121.954L115.455 124.138C115.855 124.341 115.849 124.67 115.455 124.866L111.091 127.05Z" fill="url(#paint10_linear_138_2376)"/>
<path d="M118.359 130.683C117.96 130.88 117.31 130.886 116.905 130.683L112.541 128.499C112.141 128.296 112.141 127.968 112.541 127.771L116.905 125.587C117.304 125.384 117.96 125.384 118.359 125.587L122.723 127.771C123.123 127.974 123.123 128.296 122.723 128.499L118.359 130.683Z" fill="url(#paint11_linear_138_2376)"/>
<path d="M125.632 134.322C125.232 134.525 124.577 134.525 124.177 134.322L119.813 132.138C119.414 131.941 119.414 131.607 119.813 131.41L124.177 129.226C124.577 129.029 125.232 129.023 125.632 129.226L129.996 131.41C130.395 131.613 130.395 131.941 129.996 132.138L125.638 134.322H125.632Z" fill="url(#paint12_linear_138_2376)"/>
<path d="M132.9 137.963C132.501 138.166 131.845 138.166 131.446 137.963L127.082 135.779C126.682 135.582 126.682 135.254 127.082 135.051L131.446 132.867C131.851 132.67 132.501 132.664 132.9 132.867L137.264 135.051C137.658 135.254 137.658 135.582 137.264 135.779L132.9 137.963Z" fill="url(#paint13_linear_138_2376)"/>
<path d="M140.173 141.595C139.773 141.798 139.117 141.798 138.718 141.595L134.354 139.411C133.955 139.214 133.955 138.88 134.354 138.683L138.718 136.499C139.117 136.302 139.773 136.302 140.173 136.499L144.537 138.683C144.936 138.88 144.936 139.214 144.537 139.411L140.179 141.595H140.173Z" fill="url(#paint14_linear_138_2376)"/>
<path d="M147.445 145.245C147.046 145.442 146.39 145.447 145.991 145.245L141.627 143.061C141.227 142.864 141.227 142.529 141.627 142.333L145.991 140.149C146.384 139.946 147.046 139.946 147.445 140.149L151.803 142.333C152.203 142.535 152.203 142.864 151.803 143.061L147.445 145.245Z" fill="url(#paint15_linear_138_2376)"/>
<path d="M154.714 148.877C154.314 149.074 153.659 149.08 153.259 148.877L148.901 146.693C148.502 146.496 148.502 146.162 148.901 145.965L153.259 143.781C153.659 143.584 154.314 143.584 154.714 143.781L159.072 145.965C159.471 146.168 159.471 146.496 159.072 146.693L154.714 148.877Z" fill="url(#paint16_linear_138_2376)"/>
<path d="M161.988 152.518C161.589 152.715 160.933 152.721 160.533 152.518L156.169 150.334C155.77 150.137 155.77 149.809 156.169 149.606L160.533 147.422C160.933 147.225 161.589 147.219 161.988 147.422L166.352 149.606C166.751 149.809 166.751 150.137 166.352 150.334L161.988 152.518Z" fill="url(#paint17_linear_138_2376)"/>
<path d="M169.254 156.157C168.86 156.36 168.198 156.36 167.799 156.157L163.441 153.973C163.041 153.776 163.041 153.442 163.441 153.245L167.799 151.061C168.198 150.858 168.854 150.858 169.254 151.061L173.618 153.245C174.017 153.448 174.017 153.776 173.618 153.973L169.254 156.157Z" fill="url(#paint18_linear_138_2376)"/>
<path d="M176.528 159.795C176.128 159.998 175.473 159.998 175.073 159.795L170.709 157.611C170.31 157.414 170.31 157.086 170.709 156.883L175.073 154.699C175.473 154.502 176.128 154.502 176.528 154.699L180.892 156.883C181.291 157.086 181.291 157.414 180.892 157.611L176.528 159.795Z" fill="url(#paint19_linear_138_2376)"/>
<path d="M183.8 163.43C183.401 163.627 182.745 163.633 182.346 163.43L177.982 161.246C177.582 161.049 177.582 160.721 177.982 160.518L182.34 158.334C182.739 158.137 183.395 158.137 183.794 158.334L188.158 160.518C188.558 160.715 188.558 161.043 188.158 161.246L183.794 163.424L183.8 163.43Z" fill="url(#paint20_linear_138_2376)"/>
<path d="M58.7361 129.954C58.3367 130.151 57.6809 130.157 57.2815 129.954L50.7355 126.678C50.3361 126.481 50.342 126.152 50.7355 125.95L55.0995 123.766C55.4989 123.563 56.1547 123.563 56.5541 123.766L63.1001 127.042C63.4995 127.244 63.4995 127.567 63.1001 127.77L58.7361 129.954Z" fill="url(#paint21_linear_138_2376)"/>
<path d="M66.0082 133.594C65.6088 133.797 64.953 133.797 64.5536 133.594L60.1955 131.41C59.7961 131.207 59.7961 130.879 60.1955 130.682L64.5536 128.498C64.953 128.301 65.6088 128.295 66.0082 128.498L70.3722 130.682C70.7716 130.885 70.7716 131.213 70.3722 131.41L66.0142 133.594H66.0082Z" fill="url(#paint22_linear_138_2376)"/>
<path d="M73.2815 137.233C72.8821 137.43 72.2263 137.436 71.8268 137.233L67.4628 135.049C67.0634 134.852 67.0634 134.524 67.4628 134.321L71.8268 132.137C72.2263 131.94 72.8821 131.94 73.2815 132.137L77.6455 134.321C78.0449 134.524 78.0449 134.852 77.6455 135.049L73.2815 137.233Z" fill="url(#paint23_linear_138_2376)"/>
<path d="M80.5488 140.878C80.1494 141.081 79.4936 141.081 79.0941 140.878L74.7302 138.694C74.3307 138.497 74.3307 138.169 74.7302 137.966L79.0941 135.782C79.4936 135.585 80.1434 135.585 80.5488 135.782L84.9128 137.966C85.3122 138.169 85.3122 138.497 84.9128 138.694L80.5488 140.878Z" fill="url(#paint24_linear_138_2376)"/>
<path d="M87.8223 144.516C87.4229 144.713 86.7671 144.719 86.3676 144.516L82.0037 142.332C81.6042 142.136 81.6042 141.807 82.0037 141.604L86.3676 139.42C86.7671 139.224 87.4229 139.224 87.8223 139.42L92.1863 141.604C92.5857 141.807 92.5857 142.13 92.1863 142.332L87.8223 144.516Z" fill="url(#paint25_linear_138_2376)"/>
<path d="M95.0896 148.151C94.6902 148.354 94.0344 148.354 93.6349 148.151L89.271 145.967C88.8715 145.764 88.8715 145.436 89.271 145.239L93.6349 143.055C94.0403 142.858 94.6902 142.858 95.0896 143.055L99.4536 145.239C99.853 145.442 99.853 145.77 99.4536 145.967L95.0896 148.151Z" fill="url(#paint26_linear_138_2376)"/>
<path d="M102.362 151.79C101.963 151.987 101.307 151.993 100.907 151.79L96.5434 149.606C96.144 149.409 96.144 149.081 96.5434 148.878L100.907 146.694C101.307 146.497 101.963 146.497 102.362 146.694L106.726 148.878C107.125 149.081 107.125 149.409 106.726 149.606L102.362 151.79Z" fill="url(#paint27_linear_138_2376)"/>
<path d="M109.637 155.429C109.237 155.626 108.581 155.632 108.182 155.429L103.818 153.245C103.419 153.048 103.419 152.72 103.818 152.517L108.182 150.333C108.581 150.136 109.237 150.136 109.637 150.333L114.001 152.517C114.4 152.72 114.4 153.042 114.001 153.245L109.637 155.429Z" fill="url(#paint28_linear_138_2376)"/>
<path d="M116.905 159.068C116.506 159.265 115.856 159.265 115.45 159.068L111.086 156.884C110.687 156.687 110.687 156.358 111.086 156.156L115.45 153.972C115.844 153.775 116.5 153.775 116.905 153.972L121.263 156.156C121.668 156.358 121.662 156.687 121.263 156.884L116.905 159.068Z" fill="url(#paint29_linear_138_2376)"/>
<path d="M109.635 162.709C109.236 162.906 108.58 162.912 108.181 162.709L74.7353 145.971C74.3359 145.768 74.3359 145.44 74.7353 145.243L79.0993 143.059C79.4987 142.862 80.1545 142.862 80.554 143.059L113.999 159.797C114.399 160 114.399 160.323 113.999 160.525L109.635 162.709Z" fill="url(#paint30_linear_138_2376)"/>
<path d="M124.177 162.711C123.778 162.908 123.122 162.908 122.723 162.711L118.359 160.527C117.959 160.324 117.959 160.001 118.359 159.799L122.723 157.615C123.122 157.418 123.772 157.418 124.177 157.615L128.535 159.799C128.935 160.001 128.935 160.324 128.535 160.527L124.177 162.711Z" fill="url(#paint31_linear_138_2376)"/>
<path d="M131.45 166.344C131.05 166.541 130.395 166.547 129.989 166.344L125.631 164.16C125.232 163.957 125.232 163.635 125.631 163.432L129.989 161.254C130.389 161.051 131.044 161.051 131.444 161.254L135.808 163.432C136.207 163.635 136.207 163.963 135.808 164.16L131.45 166.344Z" fill="url(#paint32_linear_138_2376)"/>
<path d="M138.718 169.984C138.319 170.181 137.663 170.187 137.264 169.984L132.9 167.8C132.5 167.603 132.5 167.269 132.9 167.072L137.264 164.888C137.663 164.691 138.319 164.691 138.718 164.888L143.082 167.072C143.482 167.275 143.482 167.597 143.082 167.8L138.718 169.984Z" fill="url(#paint33_linear_138_2376)"/>
<path d="M125.632 170.707C125.233 170.904 124.577 170.91 124.178 170.707L119.814 168.523C119.414 168.326 119.414 167.992 119.814 167.795L124.178 165.611C124.577 165.414 125.233 165.408 125.632 165.611L129.996 167.795C130.396 167.998 130.396 168.326 129.996 168.523L125.632 170.707Z" fill="url(#paint34_linear_138_2376)"/>
<path d="M132.899 174.346C132.5 174.543 131.85 174.549 131.445 174.346L127.081 172.162C126.681 171.959 126.681 171.637 127.081 171.434L131.445 169.25C131.844 169.047 132.5 169.047 132.899 169.25L137.263 171.434C137.663 171.637 137.663 171.965 137.263 172.162L132.899 174.346Z" fill="url(#paint35_linear_138_2376)"/>
<path d="M140.173 177.991C139.774 178.193 139.118 178.193 138.718 177.991L134.354 175.807C133.955 175.604 133.955 175.281 134.354 175.079L138.718 172.895C139.112 172.698 139.774 172.698 140.173 172.895L144.537 175.079C144.936 175.275 144.936 175.604 144.537 175.807L140.173 177.991Z" fill="url(#paint36_linear_138_2376)"/>
<path d="M147.445 181.629C147.046 181.826 146.39 181.826 145.991 181.629L141.627 179.445C141.227 179.248 141.227 178.92 141.627 178.717L145.991 176.533C146.384 176.336 147.046 176.336 147.445 176.533L151.803 178.717C152.203 178.914 152.203 179.248 151.803 179.445L147.445 181.629Z" fill="url(#paint37_linear_138_2376)"/>
<path d="M154.713 177.993C154.313 178.196 153.657 178.196 153.258 177.993L140.172 171.441C139.773 171.244 139.773 170.916 140.172 170.713L144.53 168.529C144.929 168.332 145.585 168.332 145.985 168.529L159.071 175.081C159.47 175.278 159.47 175.606 159.071 175.809L154.713 177.993Z" fill="url(#paint38_linear_138_2376)"/>
<path d="M74.7369 123.406C74.3375 123.603 73.6817 123.609 73.2823 123.406L65.2816 119.402C64.8822 119.205 64.8822 118.877 65.2816 118.674L69.6456 116.49C70.045 116.293 70.6949 116.293 71.1003 116.49L79.1009 120.494C79.5003 120.697 79.5003 121.019 79.1009 121.222L74.7369 123.406Z" fill="url(#paint39_linear_138_2376)"/>
<path d="M82.0033 127.048C81.6038 127.245 80.9481 127.251 80.5486 127.048L76.1846 124.864C75.7852 124.661 75.7852 124.333 76.1846 124.136L80.5486 121.952C80.9481 121.755 81.6038 121.755 82.0033 121.952L86.3673 124.136C86.7667 124.333 86.7667 124.661 86.3673 124.864L82.0033 127.048Z" fill="url(#paint40_linear_138_2376)"/>
<path d="M89.2716 130.683C88.8722 130.88 88.2164 130.886 87.817 130.683L83.453 128.499C83.0535 128.296 83.0535 127.968 83.453 127.771L87.817 125.587C88.2164 125.384 88.8722 125.384 89.2716 125.587L93.6356 127.771C94.041 127.974 94.041 128.296 93.6356 128.499L89.2716 130.683Z" fill="url(#paint41_linear_138_2376)"/>
<path d="M96.5454 134.322C96.1459 134.525 95.4961 134.525 95.0907 134.322L90.7327 132.138C90.3332 131.941 90.3332 131.613 90.7327 131.41L95.0967 129.226C95.4961 129.029 96.1519 129.023 96.5513 129.226L100.915 131.41C101.315 131.613 101.315 131.941 100.915 132.138L96.5513 134.322H96.5454Z" fill="url(#paint42_linear_138_2376)"/>
<path d="M103.819 137.96C103.419 138.163 102.764 138.163 102.364 137.96L98.0062 135.776C97.6068 135.579 97.6068 135.251 98.0062 135.048L102.37 132.864C102.77 132.667 103.425 132.667 103.825 132.864L108.189 135.048C108.588 135.251 108.588 135.579 108.189 135.776L103.825 137.96H103.819Z" fill="url(#paint43_linear_138_2376)"/>
<path d="M111.091 141.603C110.692 141.8 110.036 141.806 109.636 141.603L105.272 139.419C104.873 139.222 104.873 138.888 105.272 138.691L109.636 136.507C110.036 136.31 110.692 136.31 111.091 136.507L115.455 138.691C115.855 138.888 115.849 139.222 115.455 139.419L111.091 141.603Z" fill="url(#paint44_linear_138_2376)"/>
<path d="M118.359 145.244C117.96 145.441 117.304 145.447 116.905 145.244L112.541 143.06C112.141 142.863 112.141 142.529 112.541 142.332L116.905 140.148C117.304 139.951 117.954 139.951 118.359 140.148L122.723 142.332C123.123 142.529 123.123 142.857 122.723 143.06L118.359 145.244Z" fill="url(#paint45_linear_138_2376)"/>
<path d="M125.632 148.877C125.232 149.074 124.577 149.08 124.177 148.877L119.813 146.693C119.414 146.496 119.414 146.162 119.813 145.965L124.177 143.781C124.577 143.584 125.232 143.584 125.632 143.781L129.99 145.965C130.389 146.168 130.389 146.496 129.99 146.693L125.632 148.877Z" fill="url(#paint46_linear_138_2376)"/>
<path d="M132.9 152.518C132.501 152.715 131.851 152.721 131.446 152.518L127.082 150.334C126.682 150.137 126.682 149.809 127.082 149.606L131.446 147.422C131.845 147.225 132.501 147.219 132.9 147.422L137.264 149.606C137.664 149.809 137.664 150.137 137.264 150.334L132.9 152.518Z" fill="url(#paint47_linear_138_2376)"/>
<path d="M140.173 156.157C139.773 156.36 139.117 156.36 138.718 156.157L134.354 153.973C133.955 153.776 133.955 153.442 134.354 153.245L138.718 151.061C139.117 150.858 139.773 150.858 140.173 151.061L144.537 153.245C144.936 153.448 144.936 153.776 144.537 153.973L140.173 156.157Z" fill="url(#paint48_linear_138_2376)"/>
<path d="M147.445 159.795C147.046 159.998 146.39 159.998 145.991 159.795L141.627 157.611C141.227 157.414 141.227 157.086 141.627 156.883L145.991 154.699C146.384 154.502 147.046 154.502 147.445 154.699L151.803 156.883C152.203 157.086 152.203 157.414 151.803 157.611L147.445 159.795Z" fill="url(#paint49_linear_138_2376)"/>
<path d="M154.714 163.432C154.314 163.629 153.659 163.635 153.259 163.432L148.901 161.254C148.502 161.051 148.502 160.723 148.901 160.526L153.259 158.342C153.659 158.145 154.314 158.145 154.714 158.342L159.072 160.526C159.471 160.723 159.471 161.051 159.072 161.254L154.714 163.438V163.432Z" fill="url(#paint50_linear_138_2376)"/>
<path d="M161.988 167.073C161.589 167.27 160.933 167.276 160.533 167.073L156.169 164.889C155.77 164.692 155.77 164.364 156.169 164.161L160.533 161.977C160.933 161.78 161.589 161.78 161.988 161.977L166.352 164.161C166.751 164.364 166.751 164.692 166.352 164.889L161.988 167.073Z" fill="url(#paint51_linear_138_2376)"/>
<path d="M68.9181 127.779C68.5186 127.976 67.8629 127.982 67.4634 127.779L58.0081 123.047C57.6087 122.85 57.6087 122.522 58.0081 122.319L62.3721 120.135C62.7715 119.938 63.4273 119.938 63.8268 120.135L73.2821 124.867C73.6815 125.064 73.6815 125.392 73.2821 125.595L68.9181 127.779Z" fill="url(#paint52_linear_138_2376)"/>
<path d="M76.1863 131.411C75.7869 131.614 75.1371 131.614 74.7317 131.411L70.3677 129.227C69.9683 129.024 69.9683 128.696 70.3677 128.499L74.7317 126.315C75.1252 126.112 75.7809 126.112 76.1863 126.315L80.5503 128.499C80.9498 128.702 80.9498 129.024 80.5503 129.227L76.1863 131.411Z" fill="url(#paint53_linear_138_2376)"/>
<path d="M83.4603 135.05C83.0608 135.252 82.405 135.252 82.0056 135.05L77.6476 132.866C77.2422 132.663 77.2481 132.34 77.6476 132.138L82.0056 129.953C82.405 129.757 83.0608 129.751 83.4603 129.953L87.8242 132.138C88.2237 132.34 88.2237 132.669 87.8242 132.866L83.4603 135.05Z" fill="url(#paint54_linear_138_2376)"/>
<path d="M90.7261 138.692C90.3267 138.889 89.6709 138.889 89.2715 138.692L84.9075 136.508C84.508 136.311 84.508 135.983 84.9075 135.78L89.2715 133.596C89.6709 133.399 90.3267 133.399 90.7261 133.596L95.0841 135.78C95.4836 135.983 95.4836 136.305 95.0841 136.508L90.7261 138.692Z" fill="url(#paint55_linear_138_2376)"/>
<path d="M97.9999 142.331C97.6004 142.534 96.9446 142.534 96.5452 142.331L92.1872 140.147C91.7877 139.95 91.7877 139.622 92.1872 139.419L96.5452 137.235C96.9446 137.038 97.6004 137.038 97.9999 137.235L102.358 139.419C102.757 139.622 102.757 139.95 102.358 140.147L97.9999 142.331Z" fill="url(#paint56_linear_138_2376)"/>
<path d="M105.274 145.972C104.875 146.169 104.219 146.175 103.819 145.972L99.4555 143.788C99.0561 143.591 99.0561 143.263 99.4555 143.06L103.819 140.876C104.219 140.679 104.875 140.679 105.274 140.876L109.638 143.06C110.038 143.263 110.038 143.585 109.638 143.788L105.274 145.972Z" fill="url(#paint57_linear_138_2376)"/>
<path d="M112.538 149.605C112.139 149.808 111.483 149.808 111.084 149.605L106.72 147.421C106.32 147.218 106.32 146.89 106.72 146.693L111.084 144.509C111.483 144.306 112.133 144.306 112.538 144.509L116.902 146.693C117.302 146.896 117.302 147.224 116.902 147.421L112.538 149.605Z" fill="url(#paint58_linear_138_2376)"/>
<path d="M119.813 153.246C119.414 153.448 118.764 153.448 118.358 153.246L114 151.061C113.601 150.859 113.601 150.536 114 150.333L118.358 148.149C118.758 147.953 119.414 147.953 119.813 148.149L124.177 150.333C124.577 150.536 124.577 150.865 124.177 151.061L119.813 153.246Z" fill="url(#paint59_linear_138_2376)"/>
<path d="M127.081 156.884C126.682 157.087 126.026 157.087 125.626 156.884L121.262 154.7C120.863 154.503 120.869 154.175 121.262 153.972L125.626 151.788C126.026 151.591 126.682 151.591 127.081 151.788L131.445 153.972C131.85 154.175 131.85 154.503 131.445 154.7L127.081 156.884Z" fill="url(#paint60_linear_138_2376)"/>
<path d="M134.354 160.527C133.954 160.724 133.298 160.724 132.899 160.527L128.535 158.343C128.136 158.146 128.136 157.818 128.535 157.615L132.899 155.431C133.298 155.234 133.954 155.234 134.354 155.431L138.718 157.615C139.117 157.818 139.117 158.146 138.718 158.343L134.354 160.527Z" fill="url(#paint61_linear_138_2376)"/>
<path d="M141.626 164.156C141.227 164.353 140.571 164.359 140.172 164.156L135.808 161.972C135.408 161.775 135.408 161.447 135.808 161.244L140.172 159.06C140.571 158.857 141.227 158.857 141.626 159.06L145.99 161.244C146.39 161.447 146.384 161.775 145.99 161.972L141.626 164.156Z" fill="url(#paint62_linear_138_2376)"/>
<path d="M148.9 167.801C148.5 168.004 147.844 168.004 147.445 167.801L143.081 165.617C142.682 165.414 142.682 165.092 143.081 164.889L147.445 162.705C147.844 162.502 148.5 162.502 148.9 162.705L153.258 164.889C153.657 165.092 153.657 165.42 153.258 165.617L148.9 167.801Z" fill="url(#paint63_linear_138_2376)"/>
<path d="M156.167 171.44C155.768 171.643 155.118 171.643 154.712 171.44L150.348 169.256C149.949 169.053 149.949 168.731 150.348 168.528L154.712 166.344C155.112 166.147 155.762 166.141 156.167 166.344L160.531 168.528C160.93 168.731 160.93 169.053 160.531 169.256L156.167 171.44Z" fill="url(#paint64_linear_138_2376)"/>
<path d="M169.254 165.616C168.861 165.413 168.199 165.419 167.8 165.616L163.442 167.8C163.042 167.997 163.042 168.331 163.442 168.528C163.841 168.731 163.841 169.053 163.442 169.256L157.623 172.168C157.223 172.371 157.223 172.693 157.623 172.896L160.532 174.352C160.932 174.555 161.587 174.555 161.987 174.352L167.8 171.44C168.199 171.243 168.855 170.915 169.254 170.712L170.709 169.984C171.108 169.787 171.764 169.459 172.164 169.256L173.618 168.528C174.018 168.331 174.018 168.003 173.618 167.8L169.254 165.616Z" fill="url(#paint65_linear_138_2376)"/>
<path d="M171.437 160.162C171.837 159.959 172.493 159.959 172.892 160.162L180.893 164.166C181.292 164.369 181.292 164.697 180.893 164.894L176.529 167.078C176.129 167.275 175.474 167.281 175.074 167.078L167.073 163.074C166.674 162.871 166.674 162.549 167.073 162.346L171.437 160.162Z" fill="url(#paint66_linear_138_2376)"/>
<path d="M164.163 156.521C164.563 156.324 165.218 156.324 165.618 156.521L169.982 158.705C170.381 158.908 170.381 159.236 169.982 159.433L165.618 161.617C165.224 161.814 164.569 161.814 164.163 161.617L159.805 159.433C159.406 159.236 159.406 158.908 159.805 158.705L164.163 156.521Z" fill="url(#paint67_linear_138_2376)"/>
<path d="M156.895 152.88C157.294 152.683 157.95 152.683 158.349 152.88L162.707 155.064C163.107 155.267 163.107 155.595 162.707 155.792L158.349 157.976C157.95 158.179 157.294 158.179 156.895 157.976L152.531 155.792C152.131 155.595 152.131 155.267 152.531 155.064L156.895 152.88Z" fill="url(#paint68_linear_138_2376)"/>
<path d="M149.628 149.243C150.022 149.046 150.678 149.04 151.083 149.243L155.447 151.427C155.846 151.63 155.846 151.958 155.447 152.155L151.083 154.339C150.684 154.536 150.028 154.542 149.628 154.339L145.264 152.155C144.865 151.958 144.865 151.63 145.264 151.427L149.628 149.243Z" fill="url(#paint69_linear_138_2376)"/>
<path d="M142.354 145.598C142.747 145.401 143.403 145.401 143.808 145.598L148.172 147.782C148.572 147.979 148.572 148.313 148.172 148.51L143.808 150.694C143.409 150.897 142.747 150.897 142.354 150.694L137.99 148.51C137.59 148.307 137.59 147.985 137.99 147.782L142.354 145.598Z" fill="url(#paint70_linear_138_2376)"/>
<path d="M135.081 141.963C135.481 141.767 136.137 141.767 136.536 141.963L140.9 144.147C141.299 144.344 141.299 144.673 140.9 144.876L136.536 147.06C136.137 147.256 135.481 147.256 135.081 147.06L130.717 144.876C130.318 144.679 130.318 144.35 130.717 144.147L135.081 141.963Z" fill="url(#paint71_linear_138_2376)"/>
<path d="M127.808 138.325C128.207 138.128 128.863 138.128 129.263 138.325L133.627 140.509C134.026 140.706 134.026 141.04 133.627 141.237L129.263 143.421C128.863 143.618 128.213 143.624 127.808 143.421L123.45 141.237C123.051 141.04 123.051 140.706 123.45 140.509L127.808 138.325Z" fill="url(#paint72_linear_138_2376)"/>
<path d="M120.54 134.686C120.94 134.489 121.596 134.489 121.995 134.686L126.353 136.87C126.753 137.073 126.753 137.395 126.353 137.598L121.995 139.782C121.596 139.979 120.946 139.979 120.54 139.782L116.177 137.598C115.777 137.401 115.777 137.073 116.177 136.87L120.54 134.686Z" fill="url(#paint73_linear_138_2376)"/>
<path d="M113.273 131.047C113.673 130.85 114.328 130.85 114.728 131.047L119.092 133.231C119.491 133.434 119.485 133.762 119.092 133.959L114.728 136.143C114.328 136.34 113.673 136.346 113.273 136.143L108.909 133.959C108.51 133.762 108.51 133.434 108.909 133.231L113.273 131.047Z" fill="url(#paint74_linear_138_2376)"/>
<path d="M106.001 127.408C106.4 127.211 107.056 127.211 107.455 127.408L111.819 129.592C112.219 129.795 112.219 130.117 111.819 130.32L107.455 132.504C107.056 132.707 106.4 132.707 106.001 132.504L101.637 130.32C101.237 130.117 101.237 129.789 101.637 129.592L106.001 127.408Z" fill="url(#paint75_linear_138_2376)"/>
<path d="M98.7251 123.774C99.1246 123.577 99.7804 123.577 100.18 123.774L104.544 125.958C104.943 126.16 104.943 126.489 104.544 126.686L100.18 128.87C99.7804 129.066 99.1246 129.072 98.7251 128.87L94.3612 126.686C93.9617 126.489 93.9617 126.16 94.3612 125.958L98.7251 123.774Z" fill="url(#paint76_linear_138_2376)"/>
<path d="M91.4527 120.135C91.8521 119.938 92.5079 119.938 92.9073 120.135L97.2713 122.319C97.6708 122.516 97.6708 122.844 97.2713 123.047L92.9073 125.231C92.5079 125.428 91.8521 125.428 91.4527 125.231L87.0887 123.047C86.6893 122.844 86.6893 122.516 87.0887 122.319L91.4527 120.135Z" fill="url(#paint77_linear_138_2376)"/>
<path d="M84.1854 116.49C84.5848 116.293 85.2406 116.293 85.64 116.49L90.004 118.674C90.4035 118.877 90.4035 119.205 90.004 119.402L85.64 121.586C85.2406 121.783 84.5908 121.783 84.1854 121.586L79.8214 119.402C79.422 119.205 79.422 118.877 79.8214 118.674L84.1854 116.49Z" fill="url(#paint78_linear_138_2376)"/>
<path d="M76.9141 112.853C77.3135 112.656 77.9693 112.65 78.3688 112.853L82.7268 115.037C83.1262 115.24 83.1262 115.568 82.7268 115.765L78.3688 117.949C77.9693 118.152 77.3135 118.152 76.9141 117.949L72.5501 115.765C72.1447 115.568 72.1507 115.24 72.5501 115.037L76.9141 112.853Z" fill="url(#paint79_linear_138_2376)"/>
<path d="M69.6456 138.325C70.045 138.128 70.6949 138.128 71.1003 138.325L77.6462 141.601C78.0457 141.804 78.0457 142.132 77.6462 142.329L73.2823 144.513C72.8828 144.71 72.227 144.716 71.8276 144.513L65.2816 141.237C64.8822 141.04 64.8822 140.706 65.2816 140.509L69.6456 138.325Z" fill="url(#paint80_linear_138_2376)"/>
<path d="M115.455 161.253C115.849 161.056 116.505 161.056 116.91 161.253L122.729 164.165C123.128 164.368 123.128 164.696 122.729 164.893L118.365 167.077C117.965 167.274 117.316 167.28 116.91 167.077L111.091 164.165C110.692 163.962 110.692 163.64 111.091 163.437L115.455 161.253Z" fill="url(#paint81_linear_138_2376)"/>
<path d="M62.3721 134.686C62.7715 134.489 63.4273 134.489 63.8268 134.686L68.1908 136.87C68.5902 137.073 68.5902 137.395 68.1908 137.598L63.8268 139.782C63.4273 139.979 62.7715 139.979 62.3721 139.782L58.0081 137.598C57.6087 137.401 57.6087 137.067 58.0081 136.87L62.3721 134.686Z" fill="url(#paint82_linear_138_2376)"/>
<path d="M55.1046 131.047C55.5041 130.85 56.1599 130.85 56.5593 131.047L60.9233 133.231C61.3227 133.434 61.3227 133.762 60.9233 133.959L56.5593 136.143C56.1599 136.34 55.5041 136.346 55.1046 136.143L50.7407 133.959C50.3412 133.762 50.3472 133.434 50.7407 133.231L55.1046 131.047Z" fill="url(#paint83_linear_138_2376)"/>
<path d="M47.8317 127.408C48.2311 127.211 48.8869 127.211 49.2864 127.408L53.6504 129.592C54.0498 129.795 54.0498 130.117 53.6504 130.32L49.2864 132.504C48.8869 132.707 48.2371 132.707 47.8317 132.504L43.4737 130.32C43.0683 130.117 43.0743 129.789 43.4737 129.592L47.8317 127.408Z" fill="url(#paint84_linear_138_2376)"/>
<path d="M190.358 155.806L95.1076 108.134L93.0508 109.16L188.301 156.833L190.358 155.806Z" fill="#6E7E9F"/>
<g style="mix-blend-mode:multiply">
<path d="M40.0049 120.004C39.2615 120.376 38.2984 120.574 37.3297 120.574H34.0013L19.3978 112.439C17.8772 111.678 17.8772 110.449 19.3978 109.688L55.1152 91.8129C56.6302 91.0519 59.0913 91.0519 60.612 91.8129L75.7223 99.378C77.2373 100.139 77.2373 101.368 75.7223 102.129L40.0049 120.004Z" fill="#DFD8F0"/>
</g>
<path d="M73.654 98.0086L15.0542 108.437V111.188H15.0767C15.1331 111.645 15.4935 112.09 16.1918 112.44L31.3022 120.005C32.8172 120.766 35.2783 120.766 36.7989 120.005L72.5164 102.129C73.271 101.752 73.6484 101.256 73.6484 100.754V98.0029L73.654 98.0086Z" fill="url(#paint85_linear_138_2376)"/>
<path d="M36.7998 117.253C35.2792 118.014 32.8237 118.014 31.3031 117.253L16.1927 109.688C14.6721 108.927 14.6721 107.698 16.1927 106.937L51.9102 89.062C53.4251 88.301 55.8863 88.301 57.4069 89.062L72.5172 96.627C74.0322 97.388 74.0322 98.6169 72.5172 99.3779L36.7998 117.253Z" fill="url(#paint86_linear_138_2376)"/>
<path d="M68.401 100.066L38.1746 115.191L20.3159 106.256L50.5423 91.1313L68.401 100.066Z" fill="url(#paint87_linear_138_2376)"/>
<path d="M63.7322 93.9328C63.4732 94.0625 63.0564 94.0625 62.7973 93.9328C62.5383 93.8032 62.5383 93.5946 62.7973 93.4649C63.0564 93.3353 63.4732 93.3353 63.7322 93.4649C63.9913 93.5946 63.9913 93.8032 63.7322 93.9328Z" fill="#6E7E9F"/>
<path d="M64.5642 96.1022C64.3558 96.2037 64.0123 96.2037 63.8039 96.1022L58.4649 93.4302C58.2565 93.3231 58.2565 93.154 58.4649 93.0525C58.6733 92.9454 59.0168 92.9454 59.2252 93.0525L64.5642 95.7245C64.7726 95.8316 64.7726 96.0007 64.5642 96.1078V96.1022Z" fill="#6E7E9F"/>
<path style="mix-blend-mode:screen" d="M64.1878 97.9579L50.5418 91.1313L28.2451 102.287L64.1878 97.9579Z" fill="url(#paint88_linear_138_2376)"/>
<path d="M93.9771 100.277V49.176C93.9771 48.6462 94.5346 48.3023 95.0077 48.539L177.295 89.7296C177.537 89.848 177.689 90.096 177.689 90.3666V141.467C177.689 141.997 177.132 142.341 176.659 142.104L94.3713 100.914C94.1291 100.795 93.9771 100.547 93.9771 100.277Z" fill="#FAF7FF"/>
<path d="M93.9771 52.2032V49.176C93.9771 48.6462 94.5346 48.3023 95.0077 48.539L177.295 89.7296C177.537 89.848 177.689 90.096 177.689 90.3666V94.104L93.9771 52.2032Z" fill="url(#paint89_linear_138_2376)"/>
<path d="M96.7596 51.4991C96.7596 51.8486 96.478 51.9895 96.1288 51.8148C95.7796 51.64 95.498 51.2172 95.498 50.8677C95.498 50.5182 95.7796 50.3773 96.1288 50.5521C96.478 50.7268 96.7596 51.1496 96.7596 51.4991Z" fill="white"/>
<path d="M99.0911 52.6773C99.0911 53.0268 98.8095 53.1677 98.4604 52.993C98.1112 52.8182 97.8296 52.3955 97.8296 52.046C97.8296 51.6965 98.1112 51.5555 98.4604 51.7303C98.8095 51.905 99.0911 52.3278 99.0911 52.6773Z" fill="white"/>
<path d="M101.417 53.856C101.417 54.2055 101.136 54.3465 100.787 54.1717C100.437 53.997 100.156 53.5742 100.156 53.2247C100.156 52.8752 100.437 52.7342 100.787 52.909C101.136 53.0837 101.417 53.5065 101.417 53.856Z" fill="white"/>
<path d="M165.024 106.557H164.461V136.141H165.024V106.557Z" fill="#564991"/>
<path d="M137.242 92.6553H136.679V122.239H137.242V92.6553Z" fill="#564991"/>
<path d="M105.326 76.6978H104.763V106.281H105.326V76.6978Z" fill="#564991"/>
<path opacity="0.9" d="M166.357 114.321C159.002 110.64 157.166 124.225 151.027 121.153C147.89 119.586 143.261 90.6168 134.435 86.1973C125.216 81.5804 121.482 102.449 117.269 100.341C110.342 96.874 110.173 90.2898 105.955 88.1815C100.205 85.301 97.9577 94.6079 94.0098 92.6349V101.587L180.566 144.914V133.809C173.729 130.387 175.171 118.729 166.351 114.315L166.357 114.321Z" fill="url(#paint90_linear_138_2376)"/>
<g opacity="0.85">
<path d="M56.2124 76.2124V44.5261C56.2124 44.1991 56.556 43.9849 56.8544 44.1315L107.885 69.6733C108.037 69.7466 108.127 69.8988 108.127 70.0679V101.76C108.127 102.087 107.784 102.301 107.485 102.154L56.4546 76.6126C56.3025 76.5393 56.2124 76.3871 56.2124 76.218V76.2124Z" fill="#E3EAFF"/>
<path d="M56.2124 46.3988V44.5217C56.2124 44.1947 56.556 43.9805 56.8544 44.1271L107.885 69.6689C108.037 69.7422 108.127 69.8944 108.127 70.0635V72.3804L56.2124 46.3988Z" fill="url(#paint91_linear_138_2376)"/>
<path d="M57.9423 45.964C57.9423 46.1782 57.7677 46.2684 57.548 46.1613C57.334 46.0542 57.1538 45.7892 57.1538 45.575C57.1538 45.3608 57.3284 45.2706 57.548 45.3777C57.7621 45.4848 57.9423 45.7498 57.9423 45.964Z" fill="url(#paint92_linear_138_2376)"/>
<path d="M59.3832 46.6979C59.3832 46.9121 59.2086 47.0023 58.989 46.8952C58.7749 46.7881 58.5947 46.5231 58.5947 46.3089C58.5947 46.0947 58.7693 46.0045 58.989 46.1116C59.203 46.2187 59.3832 46.4837 59.3832 46.6979Z" fill="url(#paint93_linear_138_2376)"/>
<path d="M60.83 47.4239C60.83 47.6381 60.6554 47.7283 60.4357 47.6212C60.2217 47.5141 60.0415 47.2492 60.0415 47.035C60.0415 46.8208 60.2161 46.7306 60.4357 46.8377C60.6497 46.9448 60.83 47.2097 60.83 47.4239Z" fill="url(#paint94_linear_138_2376)"/>
<path d="M69.1547 58.4419C66.243 57.3201 63.7818 57.6866 62.2612 59.1748L70.2529 68.5888L78.5712 67.8447C76.6901 63.7183 73.0632 59.9471 69.1547 58.4363V58.4419Z" fill="white"/>
<path d="M62.2553 59.1768C61.005 60.3944 60.3855 62.3674 60.6558 64.8928C60.6783 65.0958 60.7065 65.2987 60.7403 65.5073L70.2469 68.5964L62.2553 59.1824V59.1768Z" fill="#1880FF"/>
<path d="M70.2532 68.5935L60.7466 65.5044C61.6195 70.9442 66.2489 76.773 71.3571 78.746C75.9414 80.5161 79.405 78.5882 79.8612 74.3998L70.2588 68.5935H70.2532Z" fill="#5C41D2"/>
<path d="M79.844 72.2919C79.6863 70.8206 79.2358 69.3099 78.5712 67.8442L70.2529 68.5883L79.8553 74.3946C79.9285 73.7463 79.9285 73.0417 79.844 72.2919Z" fill="#1880FF"/>
<path d="M95.2478 77.3018L83.6743 71.5068V72.5723L95.2478 78.3672V77.3018Z" fill="#6E7E9F"/>
<path d="M91.2548 72.4945L83.6743 68.7007V67.6353L91.2548 71.429V72.4945Z" fill="#6E7E9F"/>
<path d="M100.508 77.1287L92.3135 73.0249V71.9595L100.508 76.0633V77.1287Z" fill="#6E7E9F"/>
<path d="M89.729 73.666L92.314 74.9625V73.8915L89.729 72.6006V73.666Z" fill="#6E7E9F"/>
<path d="M83.6743 70.6343L88.4051 73.0075V71.9421L83.6743 69.5688V70.6343Z" fill="#6E7E9F"/>
<path d="M91.2543 83.1859L83.6738 79.3921V80.4575L91.2543 84.2513V83.1859Z" fill="#6E7E9F"/>
<path d="M89.729 80.4902L92.314 81.7811V82.8466L89.729 81.5557V80.4902Z" fill="#6E7E9F"/>
<path d="M83.6738 77.4585L88.4046 79.8261V80.8915L83.6738 78.5239V77.4585Z" fill="#6E7E9F"/>
</g>
<g opacity="0.8">
<path d="M146.856 128.851V87.5479C146.856 87.1195 147.306 86.8376 147.689 87.0349L214.196 120.328C214.394 120.424 214.517 120.627 214.517 120.841V162.144C214.517 162.573 214.067 162.854 213.684 162.657L147.177 129.364C146.98 129.268 146.856 129.065 146.856 128.851Z" fill="#FAF7FF"/>
<path d="M146.856 89.9944V87.5479C146.856 87.1195 147.306 86.8376 147.689 87.0349L214.196 120.328C214.394 120.424 214.517 120.627 214.517 120.841V123.862L146.856 89.9888V89.9944Z" fill="url(#paint95_linear_138_2376)"/>
<path d="M149.103 89.425C149.103 89.7068 148.872 89.8196 148.59 89.6786C148.309 89.5377 148.078 89.1939 148.078 88.912C148.078 88.6301 148.309 88.5174 148.59 88.6583C148.872 88.7993 149.103 89.1431 149.103 89.425Z" fill="white"/>
<path d="M150.991 90.3771C150.991 90.659 150.76 90.7717 150.478 90.6308C150.197 90.4899 149.966 90.146 149.966 89.8641C149.966 89.5823 150.197 89.4695 150.478 89.6105C150.76 89.7514 150.991 90.0953 150.991 90.3771Z" fill="white"/>
<path d="M152.871 91.3249C152.871 91.6067 152.64 91.7195 152.358 91.5786C152.077 91.4376 151.846 91.0938 151.846 90.8119C151.846 90.53 152.077 90.4173 152.358 90.5582C152.64 90.6992 152.871 91.043 152.871 91.3249Z" fill="white"/>
<path d="M162.101 129.512L158.204 127.562V110.312L162.101 112.262V129.512Z" fill="url(#paint96_linear_138_2376)"/>
<path d="M155.872 126.394L151.975 124.443V99.7979L155.872 101.748V126.394Z" fill="url(#paint97_linear_138_2376)"/>
<path d="M168.325 132.627L164.433 130.677V110.964L168.325 112.914V132.627Z" fill="url(#paint98_linear_138_2376)"/>
</g>
</g>
<defs>
<linearGradient id="paint0_linear_138_2376" x1="-13.1459" y1="-2.35577" x2="83.1589" y2="103.526" gradientUnits="userSpaceOnUse">
<stop stop-color="#3486E7"/>
<stop offset="1" stop-color="#6851C1"/>
</linearGradient>
<linearGradient id="paint1_linear_138_2376" x1="143.381" y1="161.106" x2="143.381" y2="25.7684" gradientUnits="userSpaceOnUse">
<stop stop-color="#8295BC"/>
<stop offset="1" stop-color="#A4B6C7"/>
</linearGradient>
<linearGradient id="paint2_linear_138_2376" x1="143.381" y1="157.854" x2="143.381" y2="29.0205" gradientUnits="userSpaceOnUse">
<stop stop-color="#D7E3F5"/>
<stop offset="1" stop-color="#E7EDF8"/>
</linearGradient>
<linearGradient id="paint3_linear_138_2376" x1="125.758" y1="50.2868" x2="125.758" y2="129.491" gradientUnits="userSpaceOnUse">
<stop stop-color="#1C1C1C"/>
<stop offset="1"/>
</linearGradient>
<linearGradient id="paint4_linear_138_2376" x1="9.15218" y1="173.76" x2="198.443" y2="173.76" gradientUnits="userSpaceOnUse">
<stop stop-color="#9CB5D6"/>
<stop offset="0.05" stop-color="#9FA9BD"/>
<stop offset="0.58" stop-color="#BCC6E0"/>
<stop offset="0.61" stop-color="#A5ACC4"/>
<stop offset="0.97" stop-color="#9CB0D6"/>
<stop offset="0.98" stop-color="#96AFD4"/>
<stop offset="0.99" stop-color="#88A5D0"/>
<stop offset="1" stop-color="#6B90C7"/>
</linearGradient>
<linearGradient id="paint5_linear_138_2376" x1="121.226" y1="191.65" x2="81.4185" y2="106.424" gradientUnits="userSpaceOnUse">
<stop stop-color="#D5DEF2"/>
<stop offset="0.58" stop-color="#E9EDF8"/>
<stop offset="1" stop-color="#F2F6FC"/>
</linearGradient>
<linearGradient id="paint6_linear_138_2376" x1="86.5" y1="180" x2="70.5" y2="150" gradientUnits="userSpaceOnUse">
<stop stop-color="#9DACCC"/>
<stop offset="1" stop-color="#B9CBE7"/>
</linearGradient>
<linearGradient id="paint7_linear_138_2376" x1="147" y1="182" x2="86.5" y2="109" gradientUnits="userSpaceOnUse">
<stop stop-color="#9FB5D5"/>
<stop offset="1" stop-color="#98A5BF"/>
</linearGradient>
<linearGradient id="paint8_linear_138_2376" x1="147" y1="182" x2="86.5" y2="109" gradientUnits="userSpaceOnUse">
<stop stop-color="#9FB5D5"/>
<stop offset="1" stop-color="#98A5BF"/>
</linearGradient>
<linearGradient id="paint9_linear_138_2376" x1="147" y1="182" x2="86.5" y2="109" gradientUnits="userSpaceOnUse">
<stop stop-color="#9FB5D5"/>
<stop offset="1" stop-color="#98A5BF"/>
</linearGradient>
<linearGradient id="paint10_linear_138_2376" x1="147" y1="182" x2="86.5" y2="109" gradientUnits="userSpaceOnUse">
<stop stop-color="#9FB5D5"/>
<stop offset="1" stop-color="#98A5BF"/>
</linearGradient>
<linearGradient id="paint11_linear_138_2376" x1="147" y1="182" x2="86.5" y2="109" gradientUnits="userSpaceOnUse">
<stop stop-color="#9FB5D5"/>
<stop offset="1" stop-color="#98A5BF"/>
</linearGradient>
<linearGradient id="paint12_linear_138_2376" x1="147" y1="182" x2="86.5" y2="109" gradientUnits="userSpaceOnUse">
<stop stop-color="#9FB5D5"/>
<stop offset="1" stop-color="#98A5BF"/>
</linearGradient>
<linearGradient id="paint13_linear_138_2376" x1="147" y1="182" x2="86.5" y2="109" gradientUnits="userSpaceOnUse">
<stop stop-color="#9FB5D5"/>
<stop offset="1" stop-color="#98A5BF"/>
</linearGradient>
<linearGradient id="paint14_linear_138_2376" x1="147" y1="182" x2="86.5" y2="109" gradientUnits="userSpaceOnUse">
<stop stop-color="#9FB5D5"/>
<stop offset="1" stop-color="#98A5BF"/>
</linearGradient>
<linearGradient id="paint15_linear_138_2376" x1="147" y1="182" x2="86.5" y2="109" gradientUnits="userSpaceOnUse">
<stop stop-color="#9FB5D5"/>
<stop offset="1" stop-color="#98A5BF"/>
</linearGradient>
<linearGradient id="paint16_linear_138_2376" x1="147" y1="182" x2="86.5" y2="109" gradientUnits="userSpaceOnUse">
<stop stop-color="#9FB5D5"/>
<stop offset="1" stop-color="#98A5BF"/>
</linearGradient>
<linearGradient id="paint17_linear_138_2376" x1="147" y1="182" x2="86.5" y2="109" gradientUnits="userSpaceOnUse">
<stop stop-color="#9FB5D5"/>
<stop offset="1" stop-color="#98A5BF"/>
</linearGradient>
<linearGradient id="paint18_linear_138_2376" x1="147" y1="182" x2="86.5" y2="109" gradientUnits="userSpaceOnUse">
<stop stop-color="#9FB5D5"/>
<stop offset="1" stop-color="#98A5BF"/>
</linearGradient>
<linearGradient id="paint19_linear_138_2376" x1="147" y1="182" x2="86.5" y2="109" gradientUnits="userSpaceOnUse">
<stop stop-color="#9FB5D5"/>
<stop offset="1" stop-color="#98A5BF"/>
</linearGradient>
<linearGradient id="paint20_linear_138_2376" x1="147" y1="182" x2="86.5" y2="109" gradientUnits="userSpaceOnUse">
<stop stop-color="#9FB5D5"/>
<stop offset="1" stop-color="#98A5BF"/>
</linearGradient>
<linearGradient id="paint21_linear_138_2376" x1="147" y1="182" x2="86.5" y2="109" gradientUnits="userSpaceOnUse">
<stop stop-color="#9FB5D5"/>
<stop offset="1" stop-color="#98A5BF"/>
</linearGradient>
<linearGradient id="paint22_linear_138_2376" x1="147" y1="182" x2="86.5" y2="109" gradientUnits="userSpaceOnUse">
<stop stop-color="#9FB5D5"/>
<stop offset="1" stop-color="#98A5BF"/>
</linearGradient>
<linearGradient id="paint23_linear_138_2376" x1="147" y1="182" x2="86.5" y2="109" gradientUnits="userSpaceOnUse">
<stop stop-color="#9FB5D5"/>
<stop offset="1" stop-color="#98A5BF"/>
</linearGradient>
<linearGradient id="paint24_linear_138_2376" x1="147" y1="182" x2="86.5" y2="109" gradientUnits="userSpaceOnUse">
<stop stop-color="#9FB5D5"/>
<stop offset="1" stop-color="#98A5BF"/>
</linearGradient>
<linearGradient id="paint25_linear_138_2376" x1="147" y1="182" x2="86.5" y2="109" gradientUnits="userSpaceOnUse">
<stop stop-color="#9FB5D5"/>
<stop offset="1" stop-color="#98A5BF"/>
</linearGradient>
<linearGradient id="paint26_linear_138_2376" x1="147" y1="182" x2="86.5" y2="109" gradientUnits="userSpaceOnUse">
<stop stop-color="#9FB5D5"/>
<stop offset="1" stop-color="#98A5BF"/>
</linearGradient>
<linearGradient id="paint27_linear_138_2376" x1="147" y1="182" x2="86.5" y2="109" gradientUnits="userSpaceOnUse">
<stop stop-color="#9FB5D5"/>
<stop offset="1" stop-color="#98A5BF"/>
</linearGradient>
<linearGradient id="paint28_linear_138_2376" x1="147" y1="182" x2="86.5" y2="109" gradientUnits="userSpaceOnUse">
<stop stop-color="#9FB5D5"/>
<stop offset="1" stop-color="#98A5BF"/>
</linearGradient>
<linearGradient id="paint29_linear_138_2376" x1="147" y1="182" x2="86.5" y2="109" gradientUnits="userSpaceOnUse">
<stop stop-color="#9FB5D5"/>
<stop offset="1" stop-color="#98A5BF"/>
</linearGradient>
<linearGradient id="paint30_linear_138_2376" x1="147" y1="182" x2="86.5" y2="109" gradientUnits="userSpaceOnUse">
<stop stop-color="#9FB5D5"/>
<stop offset="1" stop-color="#98A5BF"/>
</linearGradient>
<linearGradient id="paint31_linear_138_2376" x1="147" y1="182" x2="86.5" y2="109" gradientUnits="userSpaceOnUse">
<stop stop-color="#9FB5D5"/>
<stop offset="1" stop-color="#98A5BF"/>
</linearGradient>
<linearGradient id="paint32_linear_138_2376" x1="147" y1="182" x2="86.5" y2="109" gradientUnits="userSpaceOnUse">
<stop stop-color="#9FB5D5"/>
<stop offset="1" stop-color="#98A5BF"/>
</linearGradient>
<linearGradient id="paint33_linear_138_2376" x1="147" y1="182" x2="86.5" y2="109" gradientUnits="userSpaceOnUse">
<stop stop-color="#9FB5D5"/>
<stop offset="1" stop-color="#98A5BF"/>
</linearGradient>
<linearGradient id="paint34_linear_138_2376" x1="147" y1="182" x2="86.5" y2="109" gradientUnits="userSpaceOnUse">
<stop stop-color="#9FB5D5"/>
<stop offset="1" stop-color="#98A5BF"/>
</linearGradient>
<linearGradient id="paint35_linear_138_2376" x1="147" y1="182" x2="86.5" y2="109" gradientUnits="userSpaceOnUse">
<stop stop-color="#9FB5D5"/>
<stop offset="1" stop-color="#98A5BF"/>
</linearGradient>
<linearGradient id="paint36_linear_138_2376" x1="147" y1="182" x2="86.5" y2="109" gradientUnits="userSpaceOnUse">
<stop stop-color="#9FB5D5"/>
<stop offset="1" stop-color="#98A5BF"/>
</linearGradient>
<linearGradient id="paint37_linear_138_2376" x1="147" y1="182" x2="86.5" y2="109" gradientUnits="userSpaceOnUse">
<stop stop-color="#9FB5D5"/>
<stop offset="1" stop-color="#98A5BF"/>
</linearGradient>
<linearGradient id="paint38_linear_138_2376" x1="147" y1="182" x2="86.5" y2="109" gradientUnits="userSpaceOnUse">
<stop stop-color="#9FB5D5"/>
<stop offset="1" stop-color="#98A5BF"/>
</linearGradient>
<linearGradient id="paint39_linear_138_2376" x1="147" y1="182" x2="86.5" y2="109" gradientUnits="userSpaceOnUse">
<stop stop-color="#9FB5D5"/>
<stop offset="1" stop-color="#98A5BF"/>
</linearGradient>
<linearGradient id="paint40_linear_138_2376" x1="147" y1="182" x2="86.5" y2="109" gradientUnits="userSpaceOnUse">
<stop stop-color="#9FB5D5"/>
<stop offset="1" stop-color="#98A5BF"/>
</linearGradient>
<linearGradient id="paint41_linear_138_2376" x1="147" y1="182" x2="86.5" y2="109" gradientUnits="userSpaceOnUse">
<stop stop-color="#9FB5D5"/>
<stop offset="1" stop-color="#98A5BF"/>
</linearGradient>
<linearGradient id="paint42_linear_138_2376" x1="147" y1="182" x2="86.5" y2="109" gradientUnits="userSpaceOnUse">
<stop stop-color="#9FB5D5"/>
<stop offset="1" stop-color="#98A5BF"/>
</linearGradient>
<linearGradient id="paint43_linear_138_2376" x1="147" y1="182" x2="86.5" y2="109" gradientUnits="userSpaceOnUse">
<stop stop-color="#9FB5D5"/>
<stop offset="1" stop-color="#98A5BF"/>
</linearGradient>
<linearGradient id="paint44_linear_138_2376" x1="147" y1="182" x2="86.5" y2="109" gradientUnits="userSpaceOnUse">
<stop stop-color="#9FB5D5"/>
<stop offset="1" stop-color="#98A5BF"/>
</linearGradient>
<linearGradient id="paint45_linear_138_2376" x1="147" y1="182" x2="86.5" y2="109" gradientUnits="userSpaceOnUse">
<stop stop-color="#9FB5D5"/>
<stop offset="1" stop-color="#98A5BF"/>
</linearGradient>
<linearGradient id="paint46_linear_138_2376" x1="147" y1="182" x2="86.5" y2="109" gradientUnits="userSpaceOnUse">
<stop stop-color="#9FB5D5"/>
<stop offset="1" stop-color="#98A5BF"/>
</linearGradient>
<linearGradient id="paint47_linear_138_2376" x1="147" y1="182" x2="86.5" y2="109" gradientUnits="userSpaceOnUse">
<stop stop-color="#9FB5D5"/>
<stop offset="1" stop-color="#98A5BF"/>
</linearGradient>
<linearGradient id="paint48_linear_138_2376" x1="147" y1="182" x2="86.5" y2="109" gradientUnits="userSpaceOnUse">
<stop stop-color="#9FB5D5"/>
<stop offset="1" stop-color="#98A5BF"/>
</linearGradient>
<linearGradient id="paint49_linear_138_2376" x1="147" y1="182" x2="86.5" y2="109" gradientUnits="userSpaceOnUse">
<stop stop-color="#9FB5D5"/>
<stop offset="1" stop-color="#98A5BF"/>
</linearGradient>
<linearGradient id="paint50_linear_138_2376" x1="147" y1="182" x2="86.5" y2="109" gradientUnits="userSpaceOnUse">
<stop stop-color="#9FB5D5"/>
<stop offset="1" stop-color="#98A5BF"/>
</linearGradient>
<linearGradient id="paint51_linear_138_2376" x1="147" y1="182" x2="86.5" y2="109" gradientUnits="userSpaceOnUse">
<stop stop-color="#9FB5D5"/>
<stop offset="1" stop-color="#98A5BF"/>
</linearGradient>
<linearGradient id="paint52_linear_138_2376" x1="147" y1="182" x2="86.5" y2="109" gradientUnits="userSpaceOnUse">
<stop stop-color="#9FB5D5"/>
<stop offset="1" stop-color="#98A5BF"/>
</linearGradient>
<linearGradient id="paint53_linear_138_2376" x1="147" y1="182" x2="86.5" y2="109" gradientUnits="userSpaceOnUse">
<stop stop-color="#9FB5D5"/>
<stop offset="1" stop-color="#98A5BF"/>
</linearGradient>
<linearGradient id="paint54_linear_138_2376" x1="147" y1="182" x2="86.5" y2="109" gradientUnits="userSpaceOnUse">
<stop stop-color="#9FB5D5"/>
<stop offset="1" stop-color="#98A5BF"/>
</linearGradient>
<linearGradient id="paint55_linear_138_2376" x1="147" y1="182" x2="86.5" y2="109" gradientUnits="userSpaceOnUse">
<stop stop-color="#9FB5D5"/>
<stop offset="1" stop-color="#98A5BF"/>
</linearGradient>
<linearGradient id="paint56_linear_138_2376" x1="147" y1="182" x2="86.5" y2="109" gradientUnits="userSpaceOnUse">
<stop stop-color="#9FB5D5"/>
<stop offset="1" stop-color="#98A5BF"/>
</linearGradient>
<linearGradient id="paint57_linear_138_2376" x1="147" y1="182" x2="86.5" y2="109" gradientUnits="userSpaceOnUse">
<stop stop-color="#9FB5D5"/>
<stop offset="1" stop-color="#98A5BF"/>
</linearGradient>
<linearGradient id="paint58_linear_138_2376" x1="147" y1="182" x2="86.5" y2="109" gradientUnits="userSpaceOnUse">
<stop stop-color="#9FB5D5"/>
<stop offset="1" stop-color="#98A5BF"/>
</linearGradient>
<linearGradient id="paint59_linear_138_2376" x1="147" y1="182" x2="86.5" y2="109" gradientUnits="userSpaceOnUse">
<stop stop-color="#9FB5D5"/>
<stop offset="1" stop-color="#98A5BF"/>
</linearGradient>
<linearGradient id="paint60_linear_138_2376" x1="147" y1="182" x2="86.5" y2="109" gradientUnits="userSpaceOnUse">
<stop stop-color="#9FB5D5"/>
<stop offset="1" stop-color="#98A5BF"/>
</linearGradient>
<linearGradient id="paint61_linear_138_2376" x1="147" y1="182" x2="86.5" y2="109" gradientUnits="userSpaceOnUse">
<stop stop-color="#9FB5D5"/>
<stop offset="1" stop-color="#98A5BF"/>
</linearGradient>
<linearGradient id="paint62_linear_138_2376" x1="147" y1="182" x2="86.5" y2="109" gradientUnits="userSpaceOnUse">
<stop stop-color="#9FB5D5"/>
<stop offset="1" stop-color="#98A5BF"/>
</linearGradient>
<linearGradient id="paint63_linear_138_2376" x1="147" y1="182" x2="86.5" y2="109" gradientUnits="userSpaceOnUse">
<stop stop-color="#9FB5D5"/>
<stop offset="1" stop-color="#98A5BF"/>
</linearGradient>
<linearGradient id="paint64_linear_138_2376" x1="147" y1="182" x2="86.5" y2="109" gradientUnits="userSpaceOnUse">
<stop stop-color="#9FB5D5"/>
<stop offset="1" stop-color="#98A5BF"/>
</linearGradient>
<linearGradient id="paint65_linear_138_2376" x1="147" y1="182" x2="86.5" y2="109" gradientUnits="userSpaceOnUse">
<stop stop-color="#9FB5D5"/>
<stop offset="1" stop-color="#98A5BF"/>
</linearGradient>
<linearGradient id="paint66_linear_138_2376" x1="147" y1="182" x2="86.5" y2="109" gradientUnits="userSpaceOnUse">
<stop stop-color="#9FB5D5"/>
<stop offset="1" stop-color="#98A5BF"/>
</linearGradient>
<linearGradient id="paint67_linear_138_2376" x1="147" y1="182" x2="86.5" y2="109" gradientUnits="userSpaceOnUse">
<stop stop-color="#9FB5D5"/>
<stop offset="1" stop-color="#98A5BF"/>
</linearGradient>
<linearGradient id="paint68_linear_138_2376" x1="147" y1="182" x2="86.5" y2="109" gradientUnits="userSpaceOnUse">
<stop stop-color="#9FB5D5"/>
<stop offset="1" stop-color="#98A5BF"/>
</linearGradient>
<linearGradient id="paint69_linear_138_2376" x1="147" y1="182" x2="86.5" y2="109" gradientUnits="userSpaceOnUse">
<stop stop-color="#9FB5D5"/>
<stop offset="1" stop-color="#98A5BF"/>
</linearGradient>
<linearGradient id="paint70_linear_138_2376" x1="147" y1="182" x2="86.5" y2="109" gradientUnits="userSpaceOnUse">
<stop stop-color="#9FB5D5"/>
<stop offset="1" stop-color="#98A5BF"/>
</linearGradient>
<linearGradient id="paint71_linear_138_2376" x1="147" y1="182" x2="86.5" y2="109" gradientUnits="userSpaceOnUse">
<stop stop-color="#9FB5D5"/>
<stop offset="1" stop-color="#98A5BF"/>
</linearGradient>
<linearGradient id="paint72_linear_138_2376" x1="147" y1="182" x2="86.5" y2="109" gradientUnits="userSpaceOnUse">
<stop stop-color="#9FB5D5"/>
<stop offset="1" stop-color="#98A5BF"/>
</linearGradient>
<linearGradient id="paint73_linear_138_2376" x1="147" y1="182" x2="86.5" y2="109" gradientUnits="userSpaceOnUse">
<stop stop-color="#9FB5D5"/>
<stop offset="1" stop-color="#98A5BF"/>
</linearGradient>
<linearGradient id="paint74_linear_138_2376" x1="147" y1="182" x2="86.5" y2="109" gradientUnits="userSpaceOnUse">
<stop stop-color="#9FB5D5"/>
<stop offset="1" stop-color="#98A5BF"/>
</linearGradient>
<linearGradient id="paint75_linear_138_2376" x1="147" y1="182" x2="86.5" y2="109" gradientUnits="userSpaceOnUse">
<stop stop-color="#9FB5D5"/>
<stop offset="1" stop-color="#98A5BF"/>
</linearGradient>
<linearGradient id="paint76_linear_138_2376" x1="147" y1="182" x2="86.5" y2="109" gradientUnits="userSpaceOnUse">
<stop stop-color="#9FB5D5"/>
<stop offset="1" stop-color="#98A5BF"/>
</linearGradient>
<linearGradient id="paint77_linear_138_2376" x1="147" y1="182" x2="86.5" y2="109" gradientUnits="userSpaceOnUse">
<stop stop-color="#9FB5D5"/>
<stop offset="1" stop-color="#98A5BF"/>
</linearGradient>
<linearGradient id="paint78_linear_138_2376" x1="147" y1="182" x2="86.5" y2="109" gradientUnits="userSpaceOnUse">
<stop stop-color="#9FB5D5"/>
<stop offset="1" stop-color="#98A5BF"/>
</linearGradient>
<linearGradient id="paint79_linear_138_2376" x1="147" y1="182" x2="86.5" y2="109" gradientUnits="userSpaceOnUse">
<stop stop-color="#9FB5D5"/>
<stop offset="1" stop-color="#98A5BF"/>
</linearGradient>
<linearGradient id="paint80_linear_138_2376" x1="147" y1="182" x2="86.5" y2="109" gradientUnits="userSpaceOnUse">
<stop stop-color="#9FB5D5"/>
<stop offset="1" stop-color="#98A5BF"/>
</linearGradient>
<linearGradient id="paint81_linear_138_2376" x1="147" y1="182" x2="86.5" y2="109" gradientUnits="userSpaceOnUse">
<stop stop-color="#9FB5D5"/>
<stop offset="1" stop-color="#98A5BF"/>
</linearGradient>
<linearGradient id="paint82_linear_138_2376" x1="147" y1="182" x2="86.5" y2="109" gradientUnits="userSpaceOnUse">
<stop stop-color="#9FB5D5"/>
<stop offset="1" stop-color="#98A5BF"/>
</linearGradient>
<linearGradient id="paint83_linear_138_2376" x1="147" y1="182" x2="86.5" y2="109" gradientUnits="userSpaceOnUse">
<stop stop-color="#9FB5D5"/>
<stop offset="1" stop-color="#98A5BF"/>
</linearGradient>
<linearGradient id="paint84_linear_138_2376" x1="147" y1="182" x2="86.5" y2="109" gradientUnits="userSpaceOnUse">
<stop stop-color="#9FB5D5"/>
<stop offset="1" stop-color="#98A5BF"/>
</linearGradient>
<linearGradient id="paint85_linear_138_2376" x1="15.7131" y1="109.294" x2="73.654" y2="109.294" gradientUnits="userSpaceOnUse">
<stop stop-color="#9CAAD6"/>
<stop offset="0.05" stop-color="#9FA9BD"/>
<stop offset="0.27" stop-color="#BCC6E0"/>
<stop offset="0.32" stop-color="#A5B5C4"/>
<stop offset="0.97" stop-color="#9CBAD6"/>
<stop offset="0.98" stop-color="#96ACD4"/>
<stop offset="0.99" stop-color="#8899D0"/>
<stop offset="1" stop-color="#6B96C7"/>
</linearGradient>
<linearGradient id="paint86_linear_138_2376" x1="44.3578" y1="117.828" x2="44.3578" y2="88.4983" gradientUnits="userSpaceOnUse">
<stop stop-color="#E1E8F7"/>
<stop offset="0.21" stop-color="#E4EBF8"/>
<stop offset="1" stop-color="#EDF4FC"/>
</linearGradient>
<linearGradient id="paint87_linear_138_2376" x1="20.3159" y1="103.161" x2="68.401" y2="103.161" gradientUnits="userSpaceOnUse">
<stop stop-color="#799FCF"/>
<stop offset="1" stop-color="#9F93D2"/>
</linearGradient>
<linearGradient id="paint88_linear_138_2376" x1="46.2165" y1="94.0288" x2="46.2165" y2="103.403" gradientUnits="userSpaceOnUse">
<stop stop-color="#1C1C1C"/>
<stop offset="1"/>
</linearGradient>
<linearGradient id="paint89_linear_138_2376" x1="173.5" y1="85.5" x2="98.0005" y2="48" gradientUnits="userSpaceOnUse">
<stop stop-color="#BACAE1"/>
<stop offset="1" stop-color="#8090BA"/>
</linearGradient>
<linearGradient id="paint90_linear_138_2376" x1="94.0154" y1="115.223" x2="180.572" y2="115.223" gradientUnits="userSpaceOnUse">
<stop stop-color="#6752C2"/>
<stop offset="1" stop-color="#3685E6"/>
</linearGradient>
<linearGradient id="paint91_linear_138_2376" x1="82.1698" y1="72.386" x2="82.1698" y2="44.082" gradientUnits="userSpaceOnUse">
<stop stop-color="#7F8FAD"/>
<stop offset="0.25" stop-color="#7F96B1"/>
<stop offset="1" stop-color="#8099BA"/>
</linearGradient>
<linearGradient id="paint92_linear_138_2376" x1="35.9515" y1="35.0847" x2="36.2636" y2="34.4612" gradientUnits="userSpaceOnUse">
<stop stop-color="#68578F"/>
<stop offset="0.09" stop-color="#695890"/>
<stop offset="1" stop-color="#716099"/>
</linearGradient>
<linearGradient id="paint93_linear_138_2376" x1="37.3983" y1="35.816" x2="37.7104" y2="35.1925" gradientUnits="userSpaceOnUse">
<stop stop-color="#68578F"/>
<stop offset="0.09" stop-color="#695890"/>
<stop offset="1" stop-color="#716099"/>
</linearGradient>
<linearGradient id="paint94_linear_138_2376" x1="38.8398" y1="36.5424" x2="39.1519" y2="35.9189" gradientUnits="userSpaceOnUse">
<stop stop-color="#68578F"/>
<stop offset="0.09" stop-color="#695890"/>
<stop offset="1" stop-color="#716099"/>
</linearGradient>
<linearGradient id="paint95_linear_138_2376" x1="174.5" y1="100" x2="147" y2="88" gradientUnits="userSpaceOnUse">
<stop stop-color="#B8C8E0"/>
<stop offset="1" stop-color="#8092BA"/>
</linearGradient>
<linearGradient id="paint96_linear_138_2376" x1="108.902" y1="93.6462" x2="112.808" y2="95.5975" gradientUnits="userSpaceOnUse">
<stop stop-color="#3585E6"/>
<stop offset="1" stop-color="#6852C2"/>
</linearGradient>
<linearGradient id="paint97_linear_138_2376" x1="104.134" y1="87.5784" x2="108.039" y2="89.5297" gradientUnits="userSpaceOnUse">
<stop stop-color="#3585E6"/>
<stop offset="1" stop-color="#6752C2"/>
</linearGradient>
<linearGradient id="paint98_linear_138_2376" x1="115.633" y1="95.7848" x2="119.533" y2="97.7333" gradientUnits="userSpaceOnUse">
<stop stop-color="#3685E6"/>
<stop offset="1" stop-color="#6752C2"/>
</linearGradient>
</defs>
</svg>
