<svg width="130" height="108" viewBox="0 0 130 108" fill="none" xmlns="http://www.w3.org/2000/svg">
<path d="M56.7892 24.7995L57.8543 23.0215L57.4816 22.7721C57.9917 18.9594 54.9346 13.8626 49.7364 10.4038C44.5343 6.94749 38.8529 6.22655 35.8014 8.35016L35.4287 8.10073L34.3636 9.87873C32.0676 13.7078 35.2234 20.1538 41.4164 24.2744C47.6093 28.3951 54.4924 28.6318 56.7883 24.8027L56.7892 24.7995Z" fill="#E7A349"/>
<path d="M57.8458 23.0392C60.1578 19.2199 57.0159 12.7759 50.8281 8.646C44.6403 4.51614 37.7499 4.26436 35.4378 8.08363C33.1258 11.9029 36.2677 18.3469 42.4555 22.4768C48.6432 26.6066 55.5337 26.8584 57.8458 23.0392Z" fill="#FFEA79"/>
<path d="M54.6774 20.9295C56.3368 18.1882 54.0817 13.563 49.6405 10.5988C45.1992 7.63461 40.2536 7.4539 38.5941 10.1952C36.9346 12.9364 39.1897 17.5616 43.631 20.5258C48.0723 23.49 53.0179 23.6707 54.6774 20.9295Z" stroke="#E7A349" stroke-width="1.5" stroke-miterlimit="10"/>
<path d="M42.9745 13.9748L44.2892 12.5217C45.5054 11.1774 46.6856 11.1995 47.5705 12.0001L47.6755 12.0951C48.5529 12.889 48.7405 14.1891 47.5664 15.4868L46.5541 16.6057L48.2415 18.1323C48.5264 18.3902 48.443 18.7386 48.204 19.0028C47.965 19.267 47.6266 19.3848 47.3416 19.1269L42.9994 15.1984C42.5269 14.771 42.5246 14.4721 42.9745 13.9748ZM44.0793 14.3666L45.7441 15.8729L46.637 14.8861C47.2275 14.2334 47.3835 13.6539 46.7536 13.0839L46.6711 13.0093C46.0786 12.4733 45.5626 12.7271 45.0494 13.2943L44.0793 14.3666Z" fill="#E7A349" stroke="#E7A349" stroke-width="0.5"/>
<path d="M102.27 20.7974L101.244 19.6157L100.958 19.8417C98.2686 18.6329 93.6432 19.8147 89.6418 22.9497C85.6404 26.0822 83.5392 30.1704 84.274 32.9098L83.9878 33.1358L85.0139 34.3176C87.2235 36.8629 92.8775 35.8998 97.6421 32.1678C102.407 28.4358 104.48 23.3452 102.273 20.7999L102.27 20.7974Z" fill="#E7A349"/>
<path d="M96.5952 30.9985C101.367 27.2714 103.454 22.1793 101.257 19.6251C99.06 17.0708 93.4107 18.0215 88.639 21.7486C83.8673 25.4757 81.7801 30.5677 83.9771 33.122C86.1742 35.6763 91.8235 34.7255 96.5952 30.9985Z" fill="#FFEA79"/>
<path d="M93.3893 23.9002L94.393 24.9374C95.3216 25.8969 95.2477 26.7632 94.616 27.3745L94.5411 27.447C93.9148 28.0531 92.9501 28.1274 92.0537 27.2011L91.2808 26.4024L90.0764 27.568C89.8729 27.7648 89.6209 27.6865 89.4384 27.4979C89.2559 27.3093 89.1859 27.0549 89.3893 26.858L92.4888 23.8587C92.826 23.5323 93.0458 23.5452 93.3893 23.9002ZM93.0473 24.693L91.8589 25.843L92.5406 26.5474C92.9915 27.0133 93.4097 27.1563 93.8594 26.7212L93.9183 26.6642C94.3412 26.2549 94.1799 25.8633 93.788 25.4584L93.0473 24.693Z" fill="#E7A349" stroke="#E7A349" stroke-width="0.5"/>
<path d="M95.4783 29.6963C98.9032 27.0212 100.401 23.3663 98.8243 21.533C97.2474 19.6997 93.1926 20.3821 89.7677 23.0572C86.3428 25.7323 84.8448 29.3871 86.4217 31.2204C87.9986 33.0537 92.0534 32.3714 95.4783 29.6963Z" stroke="#E7A349" stroke-miterlimit="10"/>
<path d="M111.792 47.0879H34.1933C31.9133 47.0879 30.0649 48.9488 30.0649 51.2444V101.56C30.0649 103.855 31.9133 105.716 34.1933 105.716H111.792C114.072 105.716 115.92 103.855 115.92 101.56V51.2444C115.92 48.9488 114.072 47.0879 111.792 47.0879Z" fill="url(#paint0_linear_138_1415)"/>
<g opacity="0.9">
<path d="M47.8945 63.7295H43.9639V76.4003H47.8945V63.7295Z" fill="white"/>
<path d="M40.5705 63.7295H43.1388V67.44H39.332V64.9765C39.332 64.2881 39.8869 63.7295 40.5705 63.7295Z" fill="white"/>
<path d="M43.1388 68.2104H39.332V71.921H43.1388V68.2104Z" fill="white"/>
<path d="M39.332 72.689H43.1388V76.3995H40.5705C39.8869 76.3995 39.332 75.8409 39.332 75.1526V72.689Z" fill="white"/>
<path d="M48.7202 63.7295H51.2885C51.9721 63.7295 52.527 64.2881 52.527 64.9765V67.44H48.7202V63.7295Z" fill="white"/>
<path d="M52.527 68.2104H48.7202V71.921H52.527V68.2104Z" fill="white"/>
<path d="M48.7202 72.689H52.527V75.1526C52.527 75.8409 51.9721 76.3995 51.2885 76.3995H48.7202V72.689Z" fill="white"/>
</g>
<g opacity="0.9">
<path d="M40.4298 88.6011C39.8233 88.6011 39.332 88.106 39.332 87.4959C39.332 86.8857 39.8237 86.3906 40.4298 86.3906H48.0251C48.6315 86.3906 49.1228 86.8857 49.1228 87.4959C49.1228 88.106 48.6311 88.6011 48.0251 88.6011H40.4298Z" fill="white"/>
<path d="M52.9757 88.6011C52.3692 88.6011 51.8779 88.106 51.8779 87.4959C51.8779 86.8857 52.3696 86.3906 52.9757 86.3906H60.571C61.1774 86.3906 61.6687 86.8857 61.6687 87.4959C61.6687 88.106 61.177 88.6011 60.571 88.6011H52.9757Z" fill="white"/>
<path d="M65.5225 88.6011C64.9161 88.6011 64.4248 88.106 64.4248 87.4959C64.4248 86.8857 64.9165 86.3906 65.5225 86.3906H73.1178C73.7243 86.3906 74.2156 86.8857 74.2156 87.4959C74.2156 88.106 73.7239 88.6011 73.1178 88.6011H65.5225Z" fill="white"/>
<path d="M78.0689 88.6011C77.4625 88.6011 76.9712 88.106 76.9712 87.4959C76.9712 86.8857 77.4629 86.3906 78.0689 86.3906H85.6642C86.2707 86.3906 86.762 86.8857 86.762 87.4959C86.762 88.106 86.2703 88.6011 85.6642 88.6011H78.0689Z" fill="white"/>
<path d="M100.937 54.8848C100.33 54.8848 99.8389 54.3897 99.8389 53.7795C99.8389 53.1694 100.331 52.6743 100.937 52.6743H109.292C109.898 52.6743 110.389 53.1694 110.389 53.7795C110.389 54.3897 109.898 54.8848 109.292 54.8848H100.937Z" fill="white"/>
<path d="M40.4298 93.1714C39.8233 93.1714 39.332 92.6763 39.332 92.0662C39.332 91.456 39.8237 90.9609 40.4298 90.9609H51.2035C51.8099 90.9609 52.3012 91.456 52.3012 92.0662C52.3012 92.6763 51.8095 93.1714 51.2035 93.1714H40.4298Z" fill="white"/>
<path d="M56.1544 93.1714C55.5479 93.1714 55.0566 92.6763 55.0566 92.0662C55.0566 91.456 55.5483 90.9609 56.1544 90.9609H60.5713C61.1777 90.9609 61.669 91.456 61.669 92.0662C61.669 92.6763 61.1773 93.1714 60.5713 93.1714H56.1544Z" fill="white"/>
</g>
<path opacity="0.85" d="M33.7491 85.6337C36.4944 85.6337 38.7407 83.3721 38.7407 80.608V42.0257C38.7407 39.2616 40.9869 37 43.7322 37H12.5728C9.50956 37 7.02637 39.5002 7.02637 42.5843V84.6839C7.02637 85.2085 7.4487 85.6337 7.96969 85.6337H33.7491Z" fill="white"/>
<path d="M43.7266 37C40.9841 37.0033 38.7412 39.2637 38.7412 42.0257V47.0892H46.7196C47.8219 47.0892 48.7153 46.1897 48.7153 45.0799V42.0253C48.7153 39.2628 46.4707 37.0017 43.7266 37Z" fill="url(#paint1_linear_138_1415)"/>
<path d="M33.7493 85.6324C31.004 85.6324 28.7577 83.3708 28.7577 80.6067V79.9263C28.7577 78.8165 27.8644 77.917 26.7621 77.917H2.97708C1.87523 77.917 0.981445 78.8165 0.981445 79.9263V80.6067C0.981445 83.3708 3.22767 85.6324 5.97302 85.6324H33.7493Z" fill="url(#paint2_linear_138_1415)"/>
<path d="M34.2078 50.5582C34.6285 50.5582 34.9695 50.2148 34.9695 49.7913C34.9695 49.3677 34.6285 49.0244 34.2078 49.0244H11.3471C10.9264 49.0244 10.5854 49.3677 10.5854 49.7913C10.5854 50.2148 10.9264 50.5582 11.3471 50.5582H34.2078Z" fill="url(#paint3_linear_138_1415)"/>
<path d="M30.0621 56.0191C30.4828 56.0191 30.8238 55.6758 30.8238 55.2522C30.8238 54.8287 30.4828 54.4854 30.0621 54.4854H11.3471C10.9264 54.4854 10.5854 54.8287 10.5854 55.2522C10.5854 55.6758 10.9264 56.0191 11.3471 56.0191H30.0621Z" fill="url(#paint4_linear_138_1415)"/>
<path d="M32.5163 61.4781C32.9369 61.4781 33.2779 61.1348 33.2779 60.7112C33.2779 60.2877 32.9369 59.9443 32.5163 59.9443H21.4668C21.0461 59.9443 20.7051 60.2877 20.7051 60.7112C20.7051 61.1348 21.0461 61.4781 21.4668 61.4781H32.5163Z" fill="url(#paint5_linear_138_1415)"/>
<path d="M18.0408 61.4781C18.4615 61.4781 18.8025 61.1348 18.8025 60.7112C18.8025 60.2877 18.4615 59.9443 18.0408 59.9443H11.3471C10.9264 59.9443 10.5854 60.2877 10.5854 60.7112C10.5854 61.1348 10.9264 61.4781 11.3471 61.4781H18.0408Z" fill="url(#paint6_linear_138_1415)"/>
<path d="M34.2078 66.9395C34.6285 66.9395 34.9695 66.5962 34.9695 66.1726C34.9695 65.7491 34.6285 65.4058 34.2078 65.4058H11.3471C10.9264 65.4058 10.5854 65.7491 10.5854 66.1726C10.5854 66.5962 10.9264 66.9395 11.3471 66.9395H34.2078Z" fill="url(#paint7_linear_138_1415)"/>
<path d="M28.365 72.3985C28.7856 72.3985 29.1266 72.0552 29.1266 71.6316C29.1266 71.2081 28.7856 70.8647 28.365 70.8647H11.3471C10.9264 70.8647 10.5854 71.2081 10.5854 71.6316C10.5854 72.0552 10.9264 72.3985 11.3471 72.3985H28.365Z" fill="url(#paint8_linear_138_1415)"/>
<path d="M126.989 107.533H100.716C99.9017 107.533 99.2412 106.873 99.2412 106.058V103.493C99.2412 102.679 99.9017 102.018 100.716 102.018H126.989C127.804 102.018 128.464 102.679 128.464 103.493V106.058C128.464 106.873 127.804 107.533 126.989 107.533Z" fill="#FFEA79"/>
<path d="M101.771 107.533H100.896V102.018H101.771V107.533Z" fill="#E7A349"/>
<path d="M104.556 107.533H103.68V102.018H104.556V107.533Z" fill="#E7A349"/>
<path d="M107.338 107.533H106.462V102.018H107.338V107.533Z" fill="#E7A349"/>
<path d="M110.123 107.533H109.248V102.018H110.123V107.533Z" fill="#E7A349"/>
<path d="M112.904 107.533H112.029V102.018H112.904V107.533Z" fill="#E7A349"/>
<path d="M115.688 107.533H114.812V102.018H115.688V107.533Z" fill="#E7A349"/>
<path d="M118.47 107.533H117.595V102.018H118.47V107.533Z" fill="#E7A349"/>
<path d="M121.256 107.533H120.38V102.018H121.256V107.533Z" fill="#E7A349"/>
<path d="M124.03 107.533H123.155V102.018H124.03V107.533Z" fill="#E7A349"/>
<path d="M126.816 107.533H125.94V102.018H126.816V107.533Z" fill="#E7A349"/>
<g style="mix-blend-mode:multiply" opacity="0.4">
<path d="M128.468 104.876V106.06C128.468 106.874 127.809 107.533 126.995 107.533H100.72C99.9035 107.533 99.2445 106.871 99.2445 106.06V104.876C99.2445 105.692 99.9064 106.351 100.72 106.351H126.995C127.812 106.351 128.468 105.689 128.468 104.876Z" fill="#FFEA79"/>
</g>
<path d="M124.665 102.028H98.3923C97.5775 102.028 96.917 101.367 96.917 100.553V97.9879C96.917 97.1732 97.5775 96.5127 98.3923 96.5127H124.665C125.48 96.5127 126.14 97.1732 126.14 97.9879V100.553C126.14 101.367 125.48 102.028 124.665 102.028Z" fill="#FFEA79"/>
<path d="M99.4401 102.028H98.5645V96.5127H99.4401V102.028Z" fill="#E7A349"/>
<path d="M102.227 102.028H101.352V96.5127H102.227V102.028Z" fill="#E7A349"/>
<path d="M105.008 102.028H104.133V96.5127H105.008V102.028Z" fill="#E7A349"/>
<path d="M107.793 102.028H106.917V96.5127H107.793V102.028Z" fill="#E7A349"/>
<path d="M110.568 102.028H109.692V96.5127H110.568V102.028Z" fill="#E7A349"/>
<path d="M113.355 102.028H112.479V96.5127H113.355V102.028Z" fill="#E7A349"/>
<path d="M116.134 102.028H115.259V96.5127H116.134V102.028Z" fill="#E7A349"/>
<path d="M118.92 102.028H118.044V96.5127H118.92V102.028Z" fill="#E7A349"/>
<path d="M121.699 102.028H120.824V96.5127H121.699V102.028Z" fill="#E7A349"/>
<path d="M124.486 102.028H123.61V96.5127H124.486V102.028Z" fill="#E7A349"/>
<g style="mix-blend-mode:multiply" opacity="0.4">
<path d="M126.137 99.3706V100.555C126.137 101.368 125.478 102.027 124.664 102.027H98.3887C97.5724 102.027 96.9134 101.365 96.9134 100.555V99.3706C96.9134 100.187 97.5754 100.846 98.3887 100.846H124.664C125.481 100.846 126.137 100.184 126.137 99.3706Z" fill="#FFEA79"/>
</g>
<path d="M127.04 96.5225H100.767C99.952 96.5225 99.2915 95.862 99.2915 95.0472V92.4826C99.2915 91.6678 99.952 91.0073 100.767 91.0073H127.04C127.854 91.0073 128.515 91.6678 128.515 92.4826V95.0472C128.515 95.862 127.854 96.5225 127.04 96.5225Z" fill="#FFEA79"/>
<path d="M101.821 96.5225H100.946V91.0073H101.821V96.5225Z" fill="#E7A349"/>
<path d="M104.608 96.5225H103.732V91.0073H104.608V96.5225Z" fill="#E7A349"/>
<path d="M107.388 96.5225H106.513V91.0073H107.388V96.5225Z" fill="#E7A349"/>
<path d="M110.174 96.5225H109.298V91.0073H110.174V96.5225Z" fill="#E7A349"/>
<path d="M112.955 96.5225H112.079V91.0073H112.955V96.5225Z" fill="#E7A349"/>
<path d="M115.738 96.5225H114.863V91.0073H115.738V96.5225Z" fill="#E7A349"/>
<path d="M118.521 96.5225H117.645V91.0073H118.521V96.5225Z" fill="#E7A349"/>
<path d="M121.306 96.5225H120.43V91.0073H121.306V96.5225Z" fill="#E7A349"/>
<path d="M124.081 96.5225H123.205V91.0073H124.081V96.5225Z" fill="#E7A349"/>
<path d="M126.866 96.5225H125.991V91.0073H126.866V96.5225Z" fill="#E7A349"/>
<g style="mix-blend-mode:multiply" opacity="0.4">
<path d="M128.518 93.8652V95.0496C128.518 95.8629 127.859 96.5219 127.046 96.5219H100.77C99.9538 96.5219 99.2948 95.86 99.2948 95.0496V93.8652C99.2948 94.6815 99.9567 95.3405 100.77 95.3405H127.046C127.862 95.3405 128.518 94.6786 128.518 93.8652Z" fill="#FFEA79"/>
</g>
<path d="M128.366 91.0186H102.093C101.279 91.0186 100.618 90.3581 100.618 89.5433V86.9786C100.618 86.1639 101.279 85.5034 102.093 85.5034H128.366C129.181 85.5034 129.841 86.1639 129.841 86.9786V89.5433C129.841 90.3581 129.181 91.0186 128.366 91.0186Z" fill="#FFEA79"/>
<path d="M103.148 91.0186H102.272V85.5034H103.148V91.0186Z" fill="#E7A349"/>
<path d="M105.935 91.0186H105.059V85.5034H105.935V91.0186Z" fill="#E7A349"/>
<path d="M108.715 91.0186H107.839V85.5034H108.715V91.0186Z" fill="#E7A349"/>
<path d="M111.5 91.0186H110.625V85.5034H111.5V91.0186Z" fill="#E7A349"/>
<path d="M114.281 91.0186H113.406V85.5034H114.281V91.0186Z" fill="#E7A349"/>
<path d="M117.061 91.0186H116.185V85.5034H117.061V91.0186Z" fill="#E7A349"/>
<path d="M119.847 91.0186H118.972V85.5034H119.847V91.0186Z" fill="#E7A349"/>
<path d="M122.627 91.0186H121.751V85.5034H122.627V91.0186Z" fill="#E7A349"/>
<path d="M125.407 91.0186H124.532V85.5034H125.407V91.0186Z" fill="#E7A349"/>
<path d="M128.193 91.0186H127.317V85.5034H128.193V91.0186Z" fill="#E7A349"/>
<g style="mix-blend-mode:multiply" opacity="0.4">
<path d="M129.845 88.3613V89.5457C129.845 90.359 129.186 91.018 128.372 91.018H102.097C101.28 91.018 100.621 90.3561 100.621 89.5457V88.3613C100.621 89.1776 101.283 89.8366 102.097 89.8366H128.369C129.186 89.8396 129.845 89.1776 129.845 88.3613Z" fill="#FFEA79"/>
</g>
<path d="M123.75 85.5151H97.4777C96.6629 85.5151 96.0024 84.8546 96.0024 84.0399V81.4752C96.0024 80.6605 96.6629 80 97.4777 80H123.75C124.565 80 125.226 80.6605 125.226 81.4752V84.0399C125.226 84.8546 124.565 85.5151 123.75 85.5151Z" fill="#FFEA79"/>
<path d="M98.5256 85.5151H97.6499V80H98.5256V85.5151Z" fill="#E7A349"/>
<path d="M101.313 85.5151H100.437V80H101.313V85.5151Z" fill="#E7A349"/>
<path d="M104.094 85.5151H103.218V80H104.094V85.5151Z" fill="#E7A349"/>
<path d="M106.873 85.5151H105.998V80H106.873V85.5151Z" fill="#E7A349"/>
<path d="M109.653 85.5151H108.778V80H109.653V85.5151Z" fill="#E7A349"/>
<path d="M112.44 85.5151H111.564V80H112.44V85.5151Z" fill="#E7A349"/>
<path d="M115.22 85.5151H114.344V80H115.22V85.5151Z" fill="#E7A349"/>
<path d="M118.006 85.5151H117.13V80H118.006V85.5151Z" fill="#E7A349"/>
<path d="M120.79 85.5151H119.915V80H120.79V85.5151Z" fill="#E7A349"/>
<path d="M123.571 85.5151H122.695V80H123.571V85.5151Z" fill="#E7A349"/>
<g style="mix-blend-mode:multiply" opacity="0.4">
<path d="M125.222 82.8579V84.0423C125.222 84.8556 124.563 85.5146 123.75 85.5146H97.4742C96.6579 85.5146 95.9989 84.8526 95.9989 84.0423V82.8579C95.9989 83.6742 96.6608 84.3332 97.4742 84.3332H123.75C124.566 84.3332 125.222 83.6712 125.222 82.8579Z" fill="#FFEA79"/>
</g>
<defs>
<linearGradient id="paint0_linear_138_1415" x1="72.9926" y1="105.42" x2="72.9926" y2="46.9362" gradientUnits="userSpaceOnUse">
<stop stop-color="#26B9A4"/>
<stop offset="1" stop-color="#7EDACD"/>
</linearGradient>
<linearGradient id="paint1_linear_138_1415" x1="31.9369" y1="42.0448" x2="48.7149" y2="42.0448" gradientUnits="userSpaceOnUse">
<stop stop-color="#FFC7A7"/>
<stop offset="0.99" stop-color="#FFE5D6"/>
</linearGradient>
<linearGradient id="paint2_linear_138_1415" x1="0.981445" y1="81.7747" x2="33.7493" y2="81.7747" gradientUnits="userSpaceOnUse">
<stop stop-color="#FFC7A7"/>
<stop offset="0.99" stop-color="#FFE9DD"/>
</linearGradient>
<linearGradient id="paint3_linear_138_1415" x1="10.585" y1="49.7913" x2="34.9699" y2="49.7913" gradientUnits="userSpaceOnUse">
<stop stop-color="#FFA674"/>
<stop offset="0.99" stop-color="#FFD4BC"/>
</linearGradient>
<linearGradient id="paint4_linear_138_1415" x1="10.585" y1="55.2518" x2="30.8242" y2="55.2518" gradientUnits="userSpaceOnUse">
<stop stop-color="#FFA775"/>
<stop offset="0.99" stop-color="#FFD4BC"/>
</linearGradient>
<linearGradient id="paint5_linear_138_1415" x1="20.7051" y1="60.7108" x2="33.2779" y2="60.7108" gradientUnits="userSpaceOnUse">
<stop stop-color="#FFA775"/>
<stop offset="0.99" stop-color="#FFD4BC"/>
</linearGradient>
<linearGradient id="paint6_linear_138_1415" x1="10.585" y1="60.7108" x2="18.8025" y2="60.7108" gradientUnits="userSpaceOnUse">
<stop stop-color="#FFA877"/>
<stop offset="0.99" stop-color="#FFD4BC"/>
</linearGradient>
<linearGradient id="paint7_linear_138_1415" x1="10.585" y1="66.1726" x2="34.9699" y2="66.1726" gradientUnits="userSpaceOnUse">
<stop stop-color="#FFA775"/>
<stop offset="0.99" stop-color="#FFD4BC"/>
</linearGradient>
<linearGradient id="paint8_linear_138_1415" x1="10.585" y1="71.6316" x2="29.1266" y2="71.6316" gradientUnits="userSpaceOnUse">
<stop stop-color="#FFA876"/>
<stop offset="0.99" stop-color="#FFD4BC"/>
</linearGradient>
</defs>
</svg>
