<svg width="186" height="131" viewBox="0 0 186 131" fill="none" xmlns="http://www.w3.org/2000/svg">
<path d="M163.793 31.9355C163.793 31.9355 181.784 36.4072 176.347 56.7322C176.347 56.7322 154.716 57.8765 154.355 36.3738L163.793 31.9355Z" fill="#3F3737" style="fill:#3F3737;fill:color(display-p3 0.2458 0.2161 0.2161);fill-opacity:1;"/>
<path d="M69.2025 82.3845C68.0912 79.1411 65.1669 76.681 65.1669 76.681L53.9257 68.5262C51.9643 67.248 52.5092 63.9581 55.395 64.6346C51.9262 62.9638 54.0236 59.9237 56.6068 61.4214C53.8928 59.8487 54.3635 57.1974 58.6584 58.2367L74.7005 61.4615C74.7005 61.4615 79.892 62.8658 83.501 66C87.1052 69.1346 89.3212 71.472 89.3212 71.472L97.831 81C105.064 59.6644 120.904 52.8867 120.904 52.8867C119.847 55.1188 114.395 100.141 117.001 103L114.501 110C109.899 112.23 102.626 114.937 97.831 115.929C82.7779 119.034 70.3189 85.6323 69.2076 82.3889L69.2025 82.3845Z" fill="url(#paint0_linear_2313_21298)" style=""/>
<path d="M60.2959 56.9158L52.3735 53.5273" stroke="#E68464" style="stroke:#E68464;stroke:color(display-p3 0.9000 0.5176 0.3938);stroke-opacity:1;" stroke-width="0.71" stroke-linecap="round" stroke-linejoin="round"/>
<path d="M62.9082 53.477L54.0981 49.9219" stroke="#E68464" style="stroke:#E68464;stroke:color(display-p3 0.9000 0.5176 0.3938);stroke-opacity:1;" stroke-width="0.71" stroke-linecap="round" stroke-linejoin="round"/>
<path d="M129.498 46.4316C128.388 48.3369 117.792 78.7218 114.607 94.2475L99.9665 75.4833C110.48 51.4643 129.498 46.4316 129.498 46.4316Z" fill="url(#paint1_linear_2313_21298)" style=""/>
<path d="M110.504 75.838C110.62 71.6553 128.057 48.9139 129.505 46.4253L134.071 44.3978L160.074 42.9258C164.601 44.1812 169.256 45.9032 174.011 48.014L189.767 123.893L111.813 123.293L114.714 91.0916C111.397 85.8867 110.381 80.193 110.504 75.8436V75.838Z" fill="url(#paint2_linear_2313_21298)" style=""/>
<path d="M125.294 21.3185C125.294 33.1669 133.544 42.7711 145.378 42.7711C146.055 42.7711 146.715 42.7378 147.375 42.6767L147.081 46.2762C160.118 41.5546 165.494 28.723 165.494 28.723C166.338 26.4122 166.804 23.9237 166.804 21.324C166.804 9.4756 157.084 1.62109 145.25 1.62109C133.416 1.62109 125.289 9.4756 125.289 21.3185H125.294Z" fill="url(#paint3_linear_2313_21298)" style=""/>
<path d="M129.195 8.83789C140.352 22.3083 147.464 22.4361 149.789 22.6194C150.765 21.3196 152.313 20.4752 154.066 20.4752C157.023 20.4752 159.425 22.8749 159.425 25.8412C159.425 27.8187 158.349 29.5462 156.757 30.4739L160.08 42.9333C147.176 54.2763 134.671 49.9935 134.671 49.9935L134.071 44.4054C134.071 44.4054 125.478 43.5055 122.271 34.0067C119.064 24.508 129.195 8.84345 129.195 8.84345V8.83789Z" fill="url(#paint4_linear_2313_21298)" style=""/>
<path d="M145.545 43.541C145.545 43.541 142.782 47.746 139.653 50.7567C136.574 50.6345 134.665 49.9846 134.665 49.9846L134.066 44.3965C134.066 44.3965 140.058 45.4463 145.545 43.541Z" fill="url(#paint5_linear_2313_21298)" style=""/>
<path d="M136.494 26.3276C135.957 26.1662 135.784 25.1612 136.107 24.0828C136.431 23.0045 137.128 22.2611 137.665 22.4226C138.202 22.584 138.376 23.589 138.052 24.6674C137.729 25.7457 137.031 26.489 136.494 26.3276Z" fill="#272525" style="fill:#272525;fill:color(display-p3 0.1529 0.1451 0.1451);fill-opacity:1;"/>
<path d="M125.885 22.8562C125.338 22.7324 125.096 21.7418 125.344 20.6436C125.592 19.5454 126.236 18.7555 126.783 18.8793C127.33 19.0031 127.572 19.9938 127.324 21.0919C127.076 22.1901 126.432 22.98 125.885 22.8562Z" fill="#272525" style="fill:#272525;fill:color(display-p3 0.1529 0.1451 0.1451);fill-opacity:1;"/>
<path d="M128.371 24.0512C127.844 23.9846 127.284 24.1956 126.94 24.6011C126.596 25.0066 126.463 25.5899 126.607 26.1009C126.751 26.612 127.167 27.0397 127.678 27.2008" stroke="#272525" style="stroke:#272525;stroke:color(display-p3 0.1529 0.1451 0.1451);stroke-opacity:1;" stroke-width="0.99" stroke-linecap="round" stroke-linejoin="round"/>
<path d="M139.67 20.5367C139.465 20.209 138.405 19.0536 138.094 19.659C138.061 19.7424 138.072 19.8368 138.111 19.909C138.405 20.37 138.821 20.7089 139.309 20.9477C139.559 21.0644 139.82 20.7589 139.67 20.5311V20.5367Z" fill="#272525" style="fill:#272525;fill:color(display-p3 0.1529 0.1451 0.1451);fill-opacity:1;"/>
<path d="M130.235 13.9805C129.819 13.8972 129.403 13.8583 128.986 13.9305C128.831 13.9638 128.731 14.1138 128.765 14.2638C128.787 14.3693 128.864 14.4526 128.964 14.4804C129.375 14.586 129.796 14.5804 130.213 14.5304C130.512 14.4915 130.523 14.036 130.235 13.9805Z" fill="#272525" style="fill:#272525;fill:color(display-p3 0.1529 0.1451 0.1451);fill-opacity:1;"/>
<path d="M126.573 32.3293C126.295 34.679 129.236 38.4618 131.838 37.9508C134.44 37.4397 133.557 32.7403 133.097 32.3293C132.636 31.9182 128.204 29.613 126.573 32.3293Z" fill="#E58464" style="fill:#E58464;fill:color(display-p3 0.8980 0.5176 0.3922);fill-opacity:1;"/>
<path d="M128.578 36.6832C129.538 37.5941 130.714 38.1663 131.835 37.9497C133.504 37.6219 133.737 35.5722 133.571 34.0391C131.946 34.4668 129.704 35.4167 128.578 36.6887V36.6832Z" fill="#E56955" style="fill:#E56955;fill:color(display-p3 0.8980 0.4118 0.3333);fill-opacity:1;"/>
<path d="M155.262 26.3183C155.617 26.3183 155.922 26.0461 155.955 25.685C155.977 25.4573 157.908 3.17694 141.819 0.927242C141.442 0.871694 141.087 1.13833 141.031 1.52161C140.976 1.90489 141.242 2.25484 141.625 2.31039C156.388 4.37123 154.585 25.3406 154.563 25.5573C154.529 25.9406 154.807 26.2794 155.19 26.3183C155.212 26.3183 155.234 26.3183 155.256 26.3183H155.262Z" fill="white" style="fill:white;fill-opacity:1;"/>
<path d="M155.262 26.3183C155.617 26.3183 155.922 26.0461 155.955 25.685C155.977 25.4573 157.908 3.17694 141.819 0.927242C141.442 0.871694 141.087 1.13833 141.031 1.52161C140.976 1.90489 141.242 2.25484 141.625 2.31039C156.388 4.37123 154.585 25.3406 154.563 25.5573C154.529 25.9406 154.807 26.2794 155.19 26.3183C155.212 26.3183 155.234 26.3183 155.256 26.3183H155.262Z" fill="#F0E8DB" style="fill:#F0E8DB;fill:color(display-p3 0.9412 0.9098 0.8588);fill-opacity:1;"/>
<path d="M137.561 40.7088C152.474 40.7088 155.004 29.3825 155.031 29.2548C155.109 28.877 154.865 28.5104 154.493 28.4326C154.116 28.3549 153.75 28.5937 153.672 28.9715C153.567 29.4769 150.92 41.0143 133.983 39.1034C133.6 39.0646 133.256 39.3367 133.212 39.72C133.167 40.1033 133.445 40.4477 133.827 40.4921C135.153 40.6421 136.402 40.7143 137.567 40.7143L137.561 40.7088Z" fill="white" style="fill:white;fill-opacity:1;"/>
<path d="M137.561 40.7088C152.474 40.7088 155.004 29.3825 155.031 29.2548C155.109 28.877 154.865 28.5104 154.493 28.4326C154.116 28.3549 153.75 28.5937 153.672 28.9715C153.567 29.4769 150.92 41.0143 133.983 39.1034C133.6 39.0646 133.256 39.3367 133.212 39.72C133.167 40.1033 133.445 40.4477 133.827 40.4921C135.153 40.6421 136.402 40.7143 137.567 40.7143L137.561 40.7088Z" fill="black" style="fill:black;fill-opacity:1;"/>
<path d="M133.905 41.3717C134.692 41.3717 135.375 40.7773 135.464 39.9719C135.563 39.1053 134.942 38.3277 134.077 38.2277C132.279 38.0222 130.359 37.6666 128.362 37.1667C127.519 36.9556 126.665 37.4667 126.454 38.311C126.243 39.1553 126.753 40.0108 127.597 40.2219C129.727 40.7607 131.791 41.1384 133.722 41.3606C133.783 41.3661 133.844 41.3717 133.899 41.3717H133.905Z" fill="url(#paint6_linear_2313_21298)" style=""/>
<path d="M137.561 40.7088C152.474 40.7088 155.004 29.3825 155.031 29.2548C155.109 28.877 154.865 28.5104 154.493 28.4326C154.116 28.3549 153.75 28.5937 153.672 28.9715C153.567 29.4769 150.92 41.0143 133.983 39.1034C133.6 39.0646 133.256 39.3367 133.211 39.72C133.167 40.1033 133.444 40.4477 133.827 40.4921C135.153 40.6421 136.402 40.7143 137.567 40.7143L137.561 40.7088Z" fill="url(#paint7_linear_2313_21298)" style=""/>
<path d="M157.535 26.5283C157.535 25.1007 156.381 23.9453 154.955 23.9453C153.529 23.9453 152.375 26.5283 152.375 26.5283C152.375 26.5283 153.529 29.1113 154.955 29.1113C156.381 29.1113 157.535 27.9559 157.535 26.5283Z" fill="url(#paint8_linear_2313_21298)" style=""/>
<path d="M1.8047 123.338H210.194C212.296 123.338 214 125.044 214 127.148C214 129.253 212.296 130.959 210.194 130.959H0.804703V124.338C0.804703 123.786 1.25241 123.338 1.8047 123.338Z" fill="url(#paint9_linear_2313_21298)" style=""/>
<path d="M108.322 134.442L164 107L161.5 92.5L186.806 86.9999L193.548 125.933L138.714 143.678C129.535 144.693 122.708 148.169 121.943 149.061C121.178 149.954 120.699 151.349 120.568 152.394C118.449 154.04 117.07 153.602 116.645 153.176C113.193 154.273 112.397 151.474 112.431 149.938C106.39 150.326 106.321 145.718 107.042 143.365C102.415 140.616 105.968 136.271 108.322 134.442Z" fill="url(#paint10_linear_2313_21298)" style=""/>
<path d="M161.776 92.6819C156.694 83.4109 156.805 70.857 156.694 68.8462C155.99 56.0868 162.703 52.2428 174.01 48.0156C175.679 48.7544 177.36 49.5432 179.053 50.3764C184.49 53.0538 188.872 57.531 191.313 63.0803C195.824 73.3456 197.877 84.6052 198.376 96.4869L161.776 92.6819Z" fill="url(#paint11_linear_2313_21298)" style=""/>
<path d="M161.776 92.6819C161.088 87.1382 160.473 81.9444 160.018 77.8672" stroke="#749AC2" style="stroke:#749AC2;stroke:color(display-p3 0.4543 0.6027 0.7625);stroke-opacity:1;" stroke-width="0.99" stroke-linecap="round" stroke-linejoin="round"/>
<path d="M34.2978 123.309H79.3857C79.3857 121.976 78.3094 120.898 76.9779 120.898H36.1786L34.3034 123.309H34.2978Z" fill="#9ED6C8" style="fill:#9ED6C8;fill:color(display-p3 0.6196 0.8392 0.7843);fill-opacity:1;"/>
<path d="M94.9862 109.5H52.1331C49.8852 109.5 47.8149 108.277 46.7217 106.298L16.6999 55.1407C15.4359 52.8528 18.5037 49.5 21.1069 49.5H63.96C66.2079 49.5 68.2781 50.7229 69.3713 52.7016L97.972 104.402C99.236 106.69 97.5894 109.5 94.9862 109.5Z" fill="white" style="fill:white;fill-opacity:1;"/>
<path d="M93.9743 111.5H50.9722C48.7165 111.5 46.6391 110.277 45.5421 108.298L36.917 92.7642L16.842 56.5979C15.5736 54.31 17.226 51.5 19.8382 51.5H62.8403C65.096 51.5 67.1734 52.7229 68.2704 54.7017L96.9705 106.402C98.2389 108.69 96.5865 111.5 93.9743 111.5Z" fill="url(#paint12_linear_2313_21298)" style=""/>
<path d="M62.3256 111.502L70.9748 88.0273L77.3105 111.502H62.3256Z" fill="#9ED6C8" style="fill:#9ED6C8;fill:color(display-p3 0.6196 0.8392 0.7843);fill-opacity:1;"/>
<path d="M62.3256 111.502L70.9748 88.0273L77.3105 111.502H62.3256Z" fill="#9ED6C8" style="fill:#9ED6C8;fill:color(display-p3 0.6196 0.8392 0.7843);fill-opacity:1;"/>
<path d="M45.4986 88.0273H70.9746L59.7734 123.317H34.2918L45.4986 88.0273ZM50.2309 115.013C51.7067 114.746 52.9605 113.474 53.1492 111.941C53.3378 110.408 52.3891 109.13 50.9744 108.869C49.4931 109.136 48.2392 110.408 48.0506 111.941C47.862 113.474 48.8107 114.752 50.2309 115.013Z" fill="url(#paint13_linear_2313_21298)" style=""/>
<path d="M50.2315 115.01C50.4091 115.049 50.5977 115.065 50.7919 115.065C52.5117 115.065 54.0818 113.665 54.2926 111.938C54.509 110.21 53.2829 108.811 51.5575 108.811C51.3633 108.811 51.1691 108.827 50.975 108.866C52.3897 109.127 53.3384 110.405 53.1498 111.938C52.9611 113.471 51.7073 114.743 50.2315 115.01Z" fill="#9ED6C8" style="fill:#9ED6C8;fill:color(display-p3 0.6196 0.8392 0.7843);fill-opacity:1;"/>
<path opacity="0.5" d="M76.4034 4.42188C91.8932 4.42188 104.454 13.2096 104.454 24.0526C104.454 26.269 103.921 28.402 102.95 30.3906L110.795 40.1504L97.6131 36.8953C92.4702 41.0559 84.8806 43.6888 76.4034 43.6888C60.9136 43.6888 48.3531 34.9011 48.3531 24.0581C48.3531 13.2151 60.9136 4.42188 76.4034 4.42188Z" fill="url(#paint14_linear_2313_21298)" style=""/>
<circle cx="66.4295" cy="24.0243" r="2.84458" fill="white" style="fill:white;fill-opacity:1;"/>
<circle cx="66.4295" cy="24.0243" r="2.84458" fill="white" style="fill:white;fill-opacity:1;"/>
<circle cx="76.1825" cy="24.0243" r="2.84458" fill="white" style="fill:white;fill-opacity:1;"/>
<circle cx="76.1825" cy="24.0243" r="2.84458" fill="white" style="fill:white;fill-opacity:1;"/>
<circle cx="85.9354" cy="24.0243" r="2.84458" fill="white" style="fill:white;fill-opacity:1;"/>
<circle cx="85.9354" cy="24.0243" r="2.84458" fill="white" style="fill:white;fill-opacity:1;"/>
<defs>
<linearGradient id="paint0_linear_2313_21298" x1="97.5" y1="78.5" x2="94.5" y2="115" gradientUnits="userSpaceOnUse">
<stop stop-color="#FFBCA6" style="stop-color:#FFBCA6;stop-color:color(display-p3 1.0000 0.7356 0.6500);stop-opacity:1;"/>
<stop offset="1" stop-color="#E6A38E" style="stop-color:#E6A38E;stop-color:color(display-p3 0.9020 0.6392 0.5569);stop-opacity:1;"/>
</linearGradient>
<linearGradient id="paint1_linear_2313_21298" x1="114.732" y1="94.2475" x2="114.732" y2="46.4316" gradientUnits="userSpaceOnUse">
<stop stop-color="#A8CBF1" style="stop-color:#A8CBF1;stop-color:color(display-p3 0.6581 0.7951 0.9458);stop-opacity:1;"/>
<stop offset="1" stop-color="#86CAD1" style="stop-color:#86CAD1;stop-color:color(display-p3 0.5267 0.7914 0.8208);stop-opacity:1;"/>
</linearGradient>
<linearGradient id="paint2_linear_2313_21298" x1="150.13" y1="123.893" x2="150.13" y2="42.9258" gradientUnits="userSpaceOnUse">
<stop stop-color="#9EC5EF" style="stop-color:#9EC5EF;stop-color:color(display-p3 0.6211 0.7734 0.9375);stop-opacity:1;"/>
<stop offset="1" stop-color="#C6E0FC" style="stop-color:#C6E0FC;stop-color:color(display-p3 0.7765 0.8784 0.9882);stop-opacity:1;"/>
</linearGradient>
<linearGradient id="paint3_linear_2313_21298" x1="146.046" y1="46.2762" x2="146.046" y2="1.62109" gradientUnits="userSpaceOnUse">
<stop stop-color="#6B5959" style="stop-color:#6B5959;stop-color:color(display-p3 0.4208 0.3489 0.3489);stop-opacity:1;"/>
<stop offset="1" stop-color="#3F3737" style="stop-color:#3F3737;stop-color:color(display-p3 0.2471 0.2157 0.2157);stop-opacity:1;"/>
</linearGradient>
<linearGradient id="paint4_linear_2313_21298" x1="143" y1="20" x2="143" y2="58.5" gradientUnits="userSpaceOnUse">
<stop stop-color="#FFC2AE" style="stop-color:#FFC2AE;stop-color:color(display-p3 1.0000 0.7616 0.6833);stop-opacity:1;"/>
<stop offset="1" stop-color="#E6A48F" style="stop-color:#E6A48F;stop-color:color(display-p3 0.9020 0.6431 0.5608);stop-opacity:1;"/>
</linearGradient>
<linearGradient id="paint5_linear_2313_21298" x1="139.806" y1="50.7567" x2="139.806" y2="43.541" gradientUnits="userSpaceOnUse">
<stop stop-color="#EFAF9B" style="stop-color:#EFAF9B;stop-color:color(display-p3 0.9373 0.6863 0.6078);stop-opacity:1;"/>
<stop offset="1" stop-color="#E56955" style="stop-color:#E56955;stop-color:color(display-p3 0.8980 0.4118 0.3333);stop-opacity:1;"/>
</linearGradient>
<linearGradient id="paint6_linear_2313_21298" x1="134" y1="41.5" x2="156.5" y2="26" gradientUnits="userSpaceOnUse">
<stop stop-color="#413232" style="stop-color:#413232;stop-color:color(display-p3 0.2542 0.1980 0.1980);stop-opacity:1;"/>
<stop offset="1" stop-color="#4D3F3F" style="stop-color:#4D3F3F;stop-color:color(display-p3 0.3000 0.2463 0.2463);stop-opacity:1;"/>
</linearGradient>
<linearGradient id="paint7_linear_2313_21298" x1="134" y1="41.5" x2="156.5" y2="26" gradientUnits="userSpaceOnUse">
<stop stop-color="#413232" style="stop-color:#413232;stop-color:color(display-p3 0.2542 0.1980 0.1980);stop-opacity:1;"/>
<stop offset="1" stop-color="#4D3F3F" style="stop-color:#4D3F3F;stop-color:color(display-p3 0.3000 0.2463 0.2463);stop-opacity:1;"/>
</linearGradient>
<linearGradient id="paint8_linear_2313_21298" x1="134" y1="41.5" x2="156.5" y2="26" gradientUnits="userSpaceOnUse">
<stop stop-color="#413232" style="stop-color:#413232;stop-color:color(display-p3 0.2542 0.1980 0.1980);stop-opacity:1;"/>
<stop offset="1" stop-color="#4D3F3F" style="stop-color:#4D3F3F;stop-color:color(display-p3 0.3000 0.2463 0.2463);stop-opacity:1;"/>
</linearGradient>
<linearGradient id="paint9_linear_2313_21298" x1="0.804703" y1="127.148" x2="214" y2="127.148" gradientUnits="userSpaceOnUse">
<stop stop-color="#EBFFFA" style="stop-color:#EBFFFA;stop-color:color(display-p3 0.9216 1.0000 0.9804);stop-opacity:1;"/>
<stop offset="0.71" stop-color="#D1F0E8" style="stop-color:#D1F0E8;stop-color:color(display-p3 0.8196 0.9412 0.9098);stop-opacity:1;"/>
</linearGradient>
<linearGradient id="paint10_linear_2313_21298" x1="166" y1="133.5" x2="153" y2="111.5" gradientUnits="userSpaceOnUse">
<stop stop-color="#E6A38E" style="stop-color:#E6A38E;stop-color:color(display-p3 0.9000 0.6394 0.5550);stop-opacity:1;"/>
<stop offset="1" stop-color="#FFBCA6" style="stop-color:#FFBCA6;stop-color:color(display-p3 1.0000 0.7356 0.6500);stop-opacity:1;"/>
</linearGradient>
<linearGradient id="paint11_linear_2313_21298" x1="177.51" y1="96.4869" x2="177.51" y2="48.0156" gradientUnits="userSpaceOnUse">
<stop stop-color="#9FC6F0" style="stop-color:#9FC6F0;stop-color:color(display-p3 0.6235 0.7765 0.9412);stop-opacity:1;"/>
<stop offset="1" stop-color="#C6E0FC" style="stop-color:#C6E0FC;stop-color:color(display-p3 0.7765 0.8784 0.9882);stop-opacity:1;"/>
</linearGradient>
<linearGradient id="paint12_linear_2313_21298" x1="56.9062" y1="111.5" x2="56.9062" y2="51.5" gradientUnits="userSpaceOnUse">
<stop stop-color="#B6D8CF" style="stop-color:#B6D8CF;stop-color:color(display-p3 0.7154 0.8458 0.8123);stop-opacity:1;"/>
<stop offset="1" stop-color="#CFF2E9" style="stop-color:#CFF2E9;stop-color:color(display-p3 0.8118 0.9490 0.9137);stop-opacity:1;"/>
</linearGradient>
<linearGradient id="paint13_linear_2313_21298" x1="52.6332" y1="123.317" x2="52.6332" y2="88.0273" gradientUnits="userSpaceOnUse">
<stop stop-color="#D0EFE7" style="stop-color:#D0EFE7;stop-color:color(display-p3 0.8164 0.9375 0.9072);stop-opacity:1;"/>
<stop offset="1" stop-color="#EBFFFA" style="stop-color:#EBFFFA;stop-color:color(display-p3 0.9216 1.0000 0.9804);stop-opacity:1;"/>
</linearGradient>
<linearGradient id="paint14_linear_2313_21298" x1="79.574" y1="4.42187" x2="79.574" y2="43.6888" gradientUnits="userSpaceOnUse">
<stop stop-color="white" style="stop-color:white;stop-opacity:1;"/>
<stop offset="1" stop-color="#4BF8E0" style="stop-color:#4BF8E0;stop-color:color(display-p3 0.2953 0.9708 0.8781);stop-opacity:1;"/>
</linearGradient>
</defs>
</svg>
