<svg width="160" height="210" fill="none" xmlns="http://www.w3.org/2000/svg"><mask id="b" style="mask-type:alpha" maskUnits="userSpaceOnUse" x="0" y="0" width="160" height="210"><path fill="url(#a)" d="M0 0h160v210H0z"/></mask><g mask="url(#b)"><path d="m23.906 96.826.01-.012a.04.04 0 0 1 .009-.011c.002-.005.004-.007.009-.012.002-.004.005-.007.01-.011a.043.043 0 0 1 .008-.012l.01-.012a.04.04 0 0 1 .009-.011.038.038 0 0 1 .01-.012.038.038 0 0 1 .009-.011.04.04 0 0 1 .009-.012.042.042 0 0 1 .01-.012l.008-.011.01-.012a.04.04 0 0 1 .009-.012.04.04 0 0 1 .01-.011c.002-.005.004-.007.009-.012a.04.04 0 0 1 .009-.011.043.043 0 0 1 .01-.012.043.043 0 0 1 .008-.012c.003-.004.005-.007.01-.011.002-.005.004-.007.009-.012a.038.038 0 0 1 .01-.011.038.038 0 0 1 .009-.012c.002-.005.004-.007.009-.012.002-.004.005-.007.01-.011.002-.005.004-.007.008-.012.003-.005.005-.007.01-.011.002-.005.004-.007.009-.012a.041.041 0 0 1 .01-.012.04.04 0 0 1 .009-.011.04.04 0 0 1 .009-.012.038.038 0 0 1 .01-.011c.002-.005.004-.007.008-.012l.01-.012c.002-.004.004-.007.009-.011a.04.04 0 0 1 .01-.012.04.04 0 0 1 .009-.012.04.04 0 0 1 .009-.011.04.04 0 0 1 .01-.012l.008-.011.01-.012c.002-.005.004-.007.009-.012.002-.004.005-.007.01-.011a.038.038 0 0 1 .009-.012.038.038 0 0 1 .009-.011.038.038 0 0 1 .01-.012.04.04 0 0 1 .008-.012c.003-.004.005-.007.01-.011.002-.005.004-.007.009-.012.002-.005.005-.007.01-.011.002-.005.004-.007.009-.012.002-.005.004-.007.009-.012.002-.004.005-.007.01-.011a.04.04 0 0 1 .008-.012.04.04 0 0 1 .01-.011.042.042 0 0 1 .009-.012.042.042 0 0 1 .01-.012c.002-.004.004-.007.009-.011a.038.038 0 0 1 .009-.012c.002-.005.005-.007.01-.012.002-.004.004-.007.009-.011a.04.04 0 0 1 .009-.012c.002-.004.004-.007.009-.011.002-.005.005-.007.01-.012.002-.005.004-.007.009-.012a.04.04 0 0 1 .009-.011.04.04 0 0 1 .01-.012.04.04 0 0 1 .009-.011.038.038 0 0 1 .009-.012.04.04 0 0 1 .009-.012.042.042 0 0 1 .01-.011c.002-.005.004-.007.009-.012.002-.004.004-.007.009-.011a.04.04 0 0 1 .01-.012.04.04 0 0 1 .008-.012c.003-.004.005-.007.01-.011.002-.005.004-.007.009-.012a.043.043 0 0 1 .01-.011c.002-.005.004-.008.009-.012a.041.041 0 0 1 .009-.012c.002-.004.005-.007.01-.011a.038.038 0 0 1 .009-.012.038.038 0 0 1 .009-.011.038.038 0 0 1 .01-.012c.001-.005.004-.007.008-.012.003-.004.005-.007.01-.011.002-.005.004-.007.009-.012.002-.005.005-.007.01-.012a.04.04 0 0 1 .009-.011.04.04 0 0 1 .009-.012.04.04 0 0 1 .01-.011.04.04 0 0 1 .008-.012l.01-.012c.002-.004.004-.007.009-.011.002-.005.005-.007.01-.012a.038.038 0 0 1 .008-.011.04.04 0 0 1 .01-.012.04.04 0 0 1 .01-.012c.001-.004.004-.007.008-.011l.01-.012c.34-.476.84-.847 1.455-1.026l31.667-9.228a2.741 2.741 0 0 1 3.225 1.418l21.986 44.58a2.737 2.737 0 0 1-.253 2.839c-.002.005-.005.007-.01.012-.002.005-.004.007-.009.012a.039.039 0 0 1-.009.011c-.002.005-.005.007-.01.012a.041.041 0 0 1-.008.011l-.01.012c-.002.005-.004.007-.009.012a.038.038 0 0 1-.01.011c-.002.005-.004.007-.009.012a.029.029 0 0 1-.009.011c-.002.005-.005.007-.01.012-.001.005-.004.007-.008.012a.04.04 0 0 1-.01.011c-.002.005-.004.007-.009.012-.002.005-.005.007-.01.012l-.009.011c-.002.005-.004.007-.009.012a.039.039 0 0 1-.01.011c-.001.005-.004.007-.008.012l-.01.012a.04.04 0 0 1-.009.011c-.002.005-.005.007-.01.012a.038.038 0 0 1-.009.011c-.002.005-.004.007-.009.012-.002.005-.004.007-.01.012a.041.041 0 0 1-.008.011l-.01.012a.04.04 0 0 1-.009.011c-.002.005-.005.007-.01.012-.002.005-.004.007-.009.012a.038.038 0 0 1-.009.011c-.002.005-.004.007-.01.012a.029.029 0 0 1-.008.011l-.01.012c-.002.005-.004.007-.009.012a.04.04 0 0 1-.01.011c-.002.005-.004.007-.009.012-.002.005-.004.007-.009.012-.002.004-.004.006-.01.011-.002.005-.004.007-.008.012a.041.041 0 0 1-.01.011c-.002.005-.004.007-.009.012-.002.005-.005.007-.01.012a.038.038 0 0 1-.009.011c-.002.005-.004.007-.009.012a.038.038 0 0 1-.01.011c-.001.005-.004.007-.008.012l-.01.012a.041.041 0 0 1-.009.011c-.002.005-.005.007-.01.012a.04.04 0 0 1-.009.011c-.002.005-.004.007-.009.012-.002.005-.005.007-.01.012a.038.038 0 0 1-.008.011l-.01.012a.041.041 0 0 1-.009.011c-.002.005-.005.007-.01.012-.002.005-.004.007-.009.012a.038.038 0 0 1-.009.011c-.002.005-.005.007-.01.012a.028.028 0 0 1-.008.011l-.01.012c-.002.005-.004.007-.009.012a.041.041 0 0 1-.01.011c-.002.005-.004.007-.009.012-.002.005-.004.007-.009.012a.038.038 0 0 1-.01.011c-.002.005-.004.007-.008.012a.038.038 0 0 1-.01.011c-.002.005-.004.007-.009.012-.002.005-.005.007-.01.012a.041.041 0 0 1-.009.011c-.002.005-.004.007-.009.012a.038.038 0 0 1-.01.011c-.002.005-.004.007-.008.012l-.01.012a.039.039 0 0 1-.009.011c-.002.005-.005.007-.01.012a.041.041 0 0 1-.009.011c-.002.005-.004.007-.009.012-.002.005-.004.007-.01.012a.038.038 0 0 1-.009.011c-.002.005-.004.007-.009.012a.028.028 0 0 1-.01.011c-.001.005-.004.007-.008.012l-.01.012a.04.04 0 0 1-.009.011c-.002.005-.005.007-.01.012-.001.005-.004.007-.008.012l-.01.011c-.002.005-.004.007-.01.012a.039.039 0 0 1-.008.011l-.01.012c-.002.005-.004.007-.009.012a.04.04 0 0 1-.01.011c-.001.005-.004.007-.008.012a.038.038 0 0 1-.01.011c-.002.005-.004.007-.01.012-.001.005-.004.007-.008.012-.342.476-.84.847-1.456 1.026l-31.667 9.233a2.74 2.74 0 0 1-3.225-1.419L23.662 99.656a2.736 2.736 0 0 1 .244-2.828v-.002Z" fill="#2D2B29" style="fill:color(display-p3 .1765 .1686 .1608);fill-opacity:1"/><g style="mix-blend-mode:multiply"><path d="m22.037 99.203.01-.012a.042.042 0 0 1 .008-.011l.01-.012a.038.038 0 0 1 .009-.012.038.038 0 0 1 .01-.011c.002-.005.004-.007.009-.012.002-.004.004-.007.009-.011.002-.005.005-.007.01-.012.002-.005.004-.007.008-.012.003-.004.005-.007.01-.011a.04.04 0 0 1 .009-.012.04.04 0 0 1 .01-.011.04.04 0 0 1 .009-.012.04.04 0 0 1 .009-.012.042.042 0 0 1 .01-.011.042.042 0 0 1 .008-.012c.003-.004.005-.007.01-.011.002-.005.004-.007.009-.012a.04.04 0 0 1 .01-.012.04.04 0 0 1 .009-.011c.002-.005.004-.007.009-.012.002-.005.005-.007.01-.011.002-.005.004-.007.008-.012l.01-.012a.041.041 0 0 1 .009-.011c.002-.005.005-.007.01-.012a.038.038 0 0 1 .009-.011.038.038 0 0 1 .009-.012.038.038 0 0 1 .01-.012l.008-.011.01-.012c.002-.005.004-.007.009-.012.002-.004.005-.007.01-.011a.04.04 0 0 1 .009-.012.04.04 0 0 1 .009-.011.04.04 0 0 1 .01-.012.04.04 0 0 1 .008-.012.043.043 0 0 1 .01-.011c.002-.005.004-.007.009-.012.002-.004.005-.007.01-.011a.038.038 0 0 1 .009-.012.038.038 0 0 1 .009-.012.04.04 0 0 1 .01-.011c.002-.005.004-.007.008-.012.003-.004.005-.007.01-.011.002-.005.004-.007.009-.012.002-.005.005-.007.01-.012a.04.04 0 0 1 .009-.011.04.04 0 0 1 .009-.012.04.04 0 0 1 .01-.011.038.038 0 0 1 .009-.012.04.04 0 0 1 .009-.012.042.042 0 0 1 .009-.011c.002-.005.005-.007.01-.012.002-.005.004-.007.009-.012l.009-.011c.002-.005.005-.007.01-.012a.04.04 0 0 1 .009-.011c.002-.005.004-.007.009-.012a.043.043 0 0 1 .009-.012.043.043 0 0 1 .01-.011.041.041 0 0 1 .009-.012.038.038 0 0 1 .009-.011.038.038 0 0 1 .01-.012.038.038 0 0 1 .008-.012.038.038 0 0 1 .01-.011c.002-.005.004-.007.009-.012.002-.004.005-.007.01-.011.002-.005.004-.007.009-.012a.04.04 0 0 1 .009-.012.04.04 0 0 1 .01-.011.04.04 0 0 1 .009-.012.04.04 0 0 1 .009-.011.043.043 0 0 1 .009-.012.042.042 0 0 1 .01-.012c.002-.004.004-.007.009-.011.002-.005.004-.007.009-.012a.038.038 0 0 1 .01-.011.04.04 0 0 1 .008-.012.04.04 0 0 1 .01-.012c.002-.004.004-.007.009-.011.002-.005.005-.007.01-.012.002-.005.004-.007.009-.012.002-.004.004-.007.009-.011a.041.041 0 0 1 .01-.012.04.04 0 0 1 .008-.011.04.04 0 0 1 .01-.012.038.038 0 0 1 .01-.012c.001-.004.004-.007.008-.011l.01-.012c.002-.005.004-.007.009-.011.002-.005.005-.007.01-.012a.04.04 0 0 1 .009-.012.04.04 0 0 1 .009-.011.04.04 0 0 1 .01-.012.04.04 0 0 1 .008-.011.04.04 0 0 1 .01-.012.043.043 0 0 1 .009-.012c.002-.004.005-.007.01-.011a2.712 2.712 0 0 1 1.465-1.038l31.666-9.229a2.741 2.741 0 0 1 3.225 1.419l21.986 44.58a2.737 2.737 0 0 1-.253 2.839c-.002.005-.005.007-.01.012-.002.005-.004.007-.009.012a.038.038 0 0 1-.009.011c-.002.005-.005.007-.01.012a.038.038 0 0 1-.009.011c-.002.005-.004.007-.009.012-.002.005-.004.007-.01.012a.041.041 0 0 1-.008.011l-.01.012a.038.038 0 0 1-.009.011c-.002.005-.005.007-.01.012-.002.005-.004.007-.009.012a.039.039 0 0 1-.009.011c-.002.005-.004.007-.01.012-.002.005-.004.007-.008.011l-.01.012c-.002.005-.004.007-.009.012a.038.038 0 0 1-.01.011c-.002.005-.004.007-.009.012-.002.005-.004.007-.009.012-.002.004-.004.006-.01.011-.001.005-.004.007-.008.012a.041.041 0 0 1-.01.011c-.002.005-.004.007-.009.012-.002.005-.005.007-.01.012a.038.038 0 0 1-.009.011c-.002.005-.004.007-.009.012a.039.039 0 0 1-.01.011c-.001.005-.004.007-.008.012l-.01.012a.04.04 0 0 1-.009.011c-.002.005-.005.007-.01.012a.038.038 0 0 1-.009.011c-.002.005-.004.007-.009.012-.002.005-.005.007-.01.012a.039.039 0 0 1-.008.011l-.01.012a.041.041 0 0 1-.009.011c-.002.005-.005.007-.01.012-.002.005-.004.007-.009.012a.038.038 0 0 1-.009.011c-.002.005-.005.007-.01.012-.002.005-.004.007-.008.012l-.01.011c-.002.005-.004.007-.009.012a.04.04 0 0 1-.01.011c-.002.005-.004.007-.009.012-.002.005-.004.007-.009.012a.038.038 0 0 1-.01.011c-.002.005-.004.007-.008.012a.039.039 0 0 1-.01.011c-.002.005-.004.007-.009.012-.002.005-.005.007-.01.012a.04.04 0 0 1-.009.011c-.002.005-.004.007-.009.012a.038.038 0 0 1-.01.011c-.002.005-.004.007-.009.012-.002.005-.004.007-.009.012a.041.041 0 0 1-.009.011c-.002.005-.005.007-.01.012a.04.04 0 0 1-.009.011c-.002.005-.004.007-.009.012-.002.005-.004.007-.01.012a.038.038 0 0 1-.008.011l-.01.012a.029.029 0 0 1-.009.011c-.002.005-.005.007-.01.012-.002.005-.004.007-.009.012a.04.04 0 0 1-.009.011c-.002.005-.005.007-.01.012-.001.005-.004.007-.008.012l-.01.011c-.002.005-.004.007-.009.012a.041.041 0 0 1-.01.011c-.002.005-.004.007-.009.012-.002.005-.004.007-.009.012a.04.04 0 0 1-.01.011c-.001.005-.004.007-.008.012a.038.038 0 0 1-.01.011c-.002.005-.004.007-.01.012-.001.005-.004.007-.008.012a.041.041 0 0 1-.01.011c-.002.005-.004.007-.009.012a.04.04 0 0 1-.01.011c-.002.005-.004.007-.008.012l-.01.012a.038.038 0 0 1-.01.011c-.001.005-.004.007-.008.012a.03.03 0 0 1-.01.011c-.002.005-.004.007-.009.012-.002.005-.005.007-.01.012a.038.038 0 0 1-.008.011l-.01.012c-.002.005-.004.007-.01.012-.001.004-.004.006-.008.011l-.01.012a.041.041 0 0 1-.009.011c-.002.005-.005.007-.01.012a2.718 2.718 0 0 1-1.465 1.038l-31.666 9.233a2.74 2.74 0 0 1-3.225-1.419l-21.986-44.582a2.736 2.736 0 0 1 .244-2.828v-.002Z" fill="#ADB2C7" style="fill:color(display-p3 .6784 .698 .7804);fill-opacity:1"/></g><path d="m24.5 98.54 21.986 44.583a2.74 2.74 0 0 0 3.225 1.418l31.667-9.233a2.738 2.738 0 0 0 1.69-3.842l-21.986-44.58a2.74 2.74 0 0 0-3.225-1.419L26.19 94.696a2.738 2.738 0 0 0-1.69 3.842v.002Z" fill="#8181B6" style="fill:color(display-p3 .5059 .5059 .7137);fill-opacity:1"/><path d="M48.977 143.559c.145-.003.286-.026.425-.065l31.668-9.233a1.65 1.65 0 0 0 1.047-.917 1.639 1.639 0 0 0-.03-1.391L60.1 87.373a1.656 1.656 0 0 0-1.938-.855l-31.667 9.229a1.648 1.648 0 0 0-1.017 2.308l21.986 44.582c.283.571.875.933 1.514.919v.003Z" fill="#DEE4FF" style="fill:color(display-p3 .8706 .8941 1);fill-opacity:1"/><path d="m50.684 116.525 1.451 3.109 16.707-4.477-1.449-3.108-16.709 4.476Z" fill="#fff" style="fill:#fff;fill-opacity:1"/><path d="m55.798 127.484 1.449 3.109 16.706-4.478-1.449-3.109-16.706 4.478Z" fill="#85B2E8" style="fill:color(display-p3 .5223 .6991 .9083);fill-opacity:1"/><path d="m58.644 120.485 1.449 3.109 11.278-3.02-1.45-3.109-11.277 3.02Z" fill="#fff" style="fill:#fff;fill-opacity:1"/><path d="m48.392 92.875 4.027 8.291 7.63-1.974a9.01 9.01 0 0 1 .399 1.974c.42 4.803-3.135 8.699-7.938 8.699s-9.038-3.894-9.46-8.699c-.34-3.887 1.92-7.177 5.34-8.291h.002Z" fill="#85B2E8" style="fill:color(display-p3 .5223 .6991 .9083);fill-opacity:1"/><path d="M48.39 92.87a8.328 8.328 0 0 1 2.599-.407c4.125 0 7.828 2.872 9.059 6.726l-7.63 1.973-4.027-8.29v-.003Z" fill="#FFEA79" style="fill:color(display-p3 1 .9176 .4745);fill-opacity:1"/><path d="M61.845 101.141a9.01 9.01 0 0 1 .4 1.973c.42 4.803-3.135 8.699-7.938 8.699" stroke="#FEFEFE" style="stroke:color(display-p3 .9961 .9961 .9961);stroke-opacity:1" stroke-width="1.42" stroke-linecap="round" stroke-linejoin="round"/><path d="m102.352 162.481 54.668-14.647" stroke="#fff" style="stroke:#fff;stroke-opacity:1" stroke-linecap="round" stroke-linejoin="round"/><path d="M99.19 96.544a.993.993 0 0 0 .827-1.288 20.466 20.466 0 0 1-.445-10.87c2.463-10.703 13.08-17.614 23.866-15.546 8.778 1.683 15.151 8.709 16.435 17.036l-.188 18.685 4.975 18.123-31.56 4.571-3.116-9.14a13.258 13.258 0 0 1-2.563-.263c-6.552-1.325-10.884-7.234-9.679-13.198.119-.585.288-1.147.5-1.688a3.368 3.368 0 0 1 .95-6.422Z" fill="#FDACA5" style="fill:color(display-p3 .9922 .6745 .6471);fill-opacity:1"/><path d="M109.985 118.114c2.426-.13 4.105-.768 5.63-2.552l-3.071 10.062-2.559-7.51Z" fill="#D7726A" style="fill:color(display-p3 .8431 .4471 .4157);fill-opacity:1"/><path d="m114.756 134.014 33.515-14.218-6.598-10.294c-3.083-6.154-31.65 12.019-28.567 18.174l1.65 6.341v-.003Z" fill="#E9F5FF" style="fill:color(display-p3 .9137 .9608 1);fill-opacity:1"/><path d="M99.39 73.495a18.343 18.343 0 0 0 5.365 1.296c4.706-4.896 11.736-7.355 18.884-5.909 8.184 1.656 14.237 7.966 15.964 15.616a18.133 18.133 0 0 1 .262 1.381l-.188 18.685-16.88 2.365a2.57 2.57 0 0 1-2.283-.842l-7.273-8.224s-12.147.674-9.148-10.842c-1.639-.9-2.869-2.11-3.468-3.415a27.373 27.373 0 0 1-5.159-2.816c-3.97-2.9-.738-9.01 3.922-7.292l.002-.003Z" fill="#2D2B29" style="fill:color(display-p3 .1765 .1686 .1608);fill-opacity:1"/><path d="M128.587 77.388c2.392-.632 4.825-2.058 6.097-4.233.422-.68.738-1.379.994-2.075a.993.993 0 0 0-1.698-.975c-.787.898-1.722 1.678-2.804 2.059-.991.346-2.039.374-3.183.26a2.558 2.558 0 0 0-2.798 2.294c-.211 1.834 1.67 3.294 3.392 2.672v-.002Z" fill="#2D2B29" style="fill:color(display-p3 .1765 .1686 .1608);fill-opacity:1"/><path d="M132.49 72.504c-2.178-1.332-3.172-3.03-3.26-5.565a.99.99 0 0 0-1.042-.938.997.997 0 0 0-.892.683c-.23.704-.416 1.449-.508 2.243-.36 2.551.715 5.216 2.242 7.225a2.56 2.56 0 0 0 3.571.582c1.46-1.005 1.386-3.306-.114-4.23h.003Z" fill="#2D2B29" style="fill:color(display-p3 .1765 .1686 .1608);fill-opacity:1"/><path d="m96.308 164.1 14.127 48.193c7.986 19.622 85.536-2.127 77.547-21.749l-19.256-59.253-72.42 32.809h.002Z" fill="#C6E0FC" style="fill:color(display-p3 .7765 .8784 .9882);fill-opacity:1"/><path d="m78.85 178.931-17.78-36.487s1.185-7.986 1.11-12.778l-5.302-3.19-1.579 2.865-3.44-1.344-6.975-7.657c-2.737.877-4.571 2.11-4.74 5.289-2.629.866-4.39 2.091-4.59 5.133-3.817 1.207-5.918 3.064-4.258 9.823l14.071 51.004c2.814 10.196 13.779 15.77 23.676 12.035 9.9-3.738 14.445-15.177 9.809-24.688l-.002-.005Z" fill="#FDACA5" style="fill:color(display-p3 .9917 .6755 .6487);fill-opacity:1"/><path d="m54.805 135.045-6.355-26.381c-.982-3.536-6.068-2.519-5.63 1.121l4.24 26.801a3.95 3.95 0 0 0 4.52 3.285c2.266-.348 3.77-2.602 3.225-4.829v.003Z" fill="#FDACA5" style="fill:color(display-p3 .9917 .6755 .6487);fill-opacity:1"/><path d="M40.703 130.134c-.45-1.837-.624-3.311-.56-4.509M36.11 135.378c-.467-1.895-.634-3.404-.556-4.62" stroke="#A8524B" style="stroke:color(display-p3 .6588 .3216 .2941);stroke-opacity:1" stroke-linecap="round" stroke-linejoin="round"/><path d="m62.18 129.666.137-6.955a1.852 1.852 0 0 0-2.254-1.844 4.972 4.972 0 0 0-3.675 3.411l-2.125 7.016 7.917-1.63v.002Z" fill="#FDACA5" style="fill:color(display-p3 .9917 .6755 .6487);fill-opacity:1"/><path d="m44.506 120.461 1.191 7.536" stroke="#A8524B" style="stroke:color(display-p3 .6588 .3216 .2941);stroke-opacity:1" stroke-linecap="round" stroke-linejoin="round"/><path d="M103.319 170.868a20.313 20.313 0 0 0 8.443-1.997c14.787-7.067 27.02-9.214 41.182-11.703 2.061-.362 4.195-.736 6.356-1.131 11.086-2.02 18.434-12.641 16.416-23.727-2.019-11.086-12.641-18.434-23.727-16.416a901.53 901.53 0 0 1-6.103 1.084c-15.681 2.754-31.893 5.602-51.717 15.074-10.166 4.86-14.468 17.039-9.61 27.205 3.555 7.437 11.026 11.736 18.762 11.606l-.002.005Z" fill="#C6E0FC" style="fill:color(display-p3 .7765 .8784 .9882);fill-opacity:1"/><path d="M56.182 204.737c7.455 3.577 16.658 2.382 22.97-3.687l37.65-36.183c8.124-7.808 8.382-20.723.574-28.846-7.808-8.124-20.723-8.381-28.846-.574L50.88 171.63c-8.124 7.808-8.382 20.723-.574 28.846a20.403 20.403 0 0 0 5.876 4.261Z" fill="#C6E0FC" style="fill:color(display-p3 .7765 .8784 .9882);fill-opacity:1"/><path d="m102.984 178.147 13.818-13.277c8.124-7.808 8.382-20.723.574-28.847-4.862-5.058-11.701-7.067-18.134-5.978" stroke="#E9F5FF" style="stroke:color(display-p3 .9137 .9608 1);stroke-opacity:1" stroke-width="1.42" stroke-miterlimit="10"/><path d="M102.633 150.474c-1.17 0-1.172-1.818 0-1.818 1.173 0 1.173 1.818 0 1.818Z" fill="#C6E0FC" style="fill:color(display-p3 .7765 .8784 .9882);fill-opacity:1"/><path d="M109.554 104.435c-2.221-.216-3.758-3.115-3.433-6.475.326-3.36 2.392-5.91 4.614-5.694 2.222.215 3.759 3.114 3.433 6.475-.326 3.36-2.392 5.909-4.614 5.694Z" fill="#FDACA5" style="fill:color(display-p3 .9922 .6745 .6471);fill-opacity:1"/><path d="M108.839 102.459c1.504.147 2.904-1.581 3.127-3.858.223-2.278-.819-4.242-2.326-4.388" stroke="#D7726A" style="stroke:color(display-p3 .8417 .4479 .4138);stroke-opacity:1" stroke-width="1.5" stroke-linecap="round" stroke-linejoin="round"/></g><defs><linearGradient id="a" x1="-12.373" y1="-2.356" x2="84.309" y2="97.688" gradientUnits="userSpaceOnUse"><stop stop-color="#3486E7" style="stop-color:color(display-p3 .2039 .5255 .9059);stop-opacity:1"/><stop offset="1" stop-color="#6851C1" style="stop-color:color(display-p3 .4078 .3176 .7569);stop-opacity:1"/></linearGradient></defs></svg>