<svg width="124" height="86" viewBox="0 0 124 86" fill="none" xmlns="http://www.w3.org/2000/svg">
<path d="M109.441 66.9317H19.1884C16.7638 66.9317 14.7983 64.9952 14.7983 62.6061V4.3256C14.7983 1.93657 16.7638 0 19.1884 0H109.441C111.865 0 113.831 1.93657 113.831 4.3256V62.6061C113.831 64.9952 111.865 66.9317 109.441 66.9317Z" fill="url(#paint0_linear_138_1655)"/>
<path d="M107.25 63.5353H22.073C20.3758 63.5353 19 62.1797 19 60.5074V6.4244C19 4.75213 20.3758 3.39648 22.073 3.39648H107.25C108.947 3.39648 110.323 4.75213 110.323 6.4244V60.5074C110.323 62.1797 108.947 63.5353 107.25 63.5353Z" fill="white"/>
<g clip-path="url(#clip0_138_1655)">
<path d="M40.605 33.978L44.6842 53.4607C44.9945 54.9418 46.2775 56.0006 47.7626 56.0006H80.2378C81.7228 56.0006 83.0059 54.9422 83.3162 53.4607L87.3954 33.978H40.605ZM52.5542 50.8081C52.5542 51.4446 52.0482 51.9606 51.4241 51.9606C50.8 51.9606 50.2939 51.4446 50.2939 50.8081V38.6093C50.2939 37.9728 50.8 37.4567 51.4241 37.4567C52.0482 37.4567 52.5542 37.9728 52.5542 38.6093V50.8081ZM60.9383 50.8081C60.9383 51.4446 60.4323 51.9606 59.8082 51.9606C59.184 51.9606 58.678 51.4446 58.678 50.8081V38.6093C58.678 37.9728 59.184 37.4567 59.8082 37.4567C60.4323 37.4567 60.9383 37.9728 60.9383 38.6093V50.8081ZM69.322 50.8081C69.322 51.4446 68.816 51.9606 68.1919 51.9606C67.5677 51.9606 67.0617 51.4446 67.0617 50.8081V38.6093C67.0617 37.9728 67.5677 37.4567 68.1919 37.4567C68.816 37.4567 69.322 37.9728 69.322 38.6093V50.8081ZM77.7061 50.8081C77.7061 51.4446 77.2 51.9606 76.5759 51.9606C75.9518 51.9606 75.4458 51.4446 75.4458 50.8081V38.6093C75.4458 37.9728 75.9518 37.4567 76.5759 37.4567C77.2 37.4567 77.7061 37.9728 77.7061 38.6093V50.8081Z" fill="url(#paint1_linear_138_1655)"/>
<path d="M87.8522 27.8647H40.1478C38.4093 27.8647 37 29.302 37 31.0749V31.2894C37 33.0623 38.4093 34.4995 40.1478 34.4995H87.8522C89.5907 34.4995 91 33.0623 91 31.2894V31.0749C91 29.302 89.5907 27.8647 87.8522 27.8647Z" fill="url(#paint2_linear_138_1655)"/>
<path d="M50.5 30.5V20C50.5 18.3431 51.8431 17 53.5 17H74.5C76.1569 17 77.5 18.3431 77.5 20V30" stroke="url(#paint3_linear_138_1655)" stroke-width="2.5" stroke-linecap="round" stroke-linejoin="round"/>
</g>
<path d="M117.722 85.9998H10.9071C9.30165 85.9998 8 84.7173 8 83.1354V82.271H120.63V83.1354C120.63 84.7173 119.328 85.9998 117.722 85.9998Z" fill="url(#paint4_linear_138_1655)"/>
<path d="M120.63 82.2707H8L13.6517 69.4371C14.348 67.8561 15.9302 66.8335 17.6792 66.8335H110.951C112.7 66.8335 114.282 67.8565 114.978 69.4371L120.63 82.2707Z" fill="url(#paint5_linear_138_1655)"/>
<path d="M114.413 75.4918H14.2173L17.4159 68.6357H111.214L114.413 75.4918Z" fill="url(#paint6_linear_138_1655)"/>
<path d="M78.0307 80.7575H50.5986L52.356 76.9907H76.2734L78.0307 80.7575Z" fill="url(#paint7_linear_138_1655)"/>
<path d="M119.307 40.7958H87.39C84.9654 40.7958 83 38.8592 83 36.4702V18.3256C83 15.9366 84.9654 14 87.39 14H119.307C121.732 14 123.697 15.9366 123.697 18.3256V36.4702C123.697 38.8592 121.732 40.7958 119.307 40.7958Z" fill="url(#paint8_linear_138_1655)"/>
<path d="M90.283 20.666H91.8151C93.5123 20.666 94.8882 22.0217 94.8882 23.6939V25.2036C94.8882 26.8758 93.5123 28.2315 91.8151 28.2315H90.283C88.5858 28.2315 87.21 26.8758 87.21 25.2036V23.6939C87.21 22.0217 88.5858 20.666 90.283 20.666Z" fill="white"/>
<path d="M92.791 32.7137H88.21C87.9795 32.7137 87.793 32.4453 87.793 32.1137C87.793 31.7821 87.9795 31.5137 88.21 31.5137H92.791C93.0215 31.5137 93.2081 31.7821 93.2081 32.1137C93.2081 32.4453 93.0215 32.7137 92.791 32.7137Z" fill="white"/>
<path d="M97.0612 36.4422H88.21C87.9795 36.4422 87.793 36.1738 87.793 35.8422C87.793 35.5106 87.9795 35.2422 88.21 35.2422H97.0612C97.2917 35.2422 97.4783 35.5106 97.4783 35.8422C97.4783 36.1738 97.2917 36.4422 97.0612 36.4422Z" fill="white"/>
<path d="M105.144 36.4422H101.395C101.164 36.4422 100.978 36.1738 100.978 35.8422C100.978 35.5106 101.164 35.2422 101.395 35.2422H105.144C105.374 35.2422 105.561 35.5106 105.561 35.8422C105.561 36.1738 105.374 36.4422 105.144 36.4422Z" fill="white"/>
<path d="M101.395 32.7137H96.8038C96.5733 32.7137 96.3867 32.4453 96.3867 32.1137C96.3867 31.7821 96.5733 31.5137 96.8038 31.5137H101.395C101.625 31.5137 101.812 31.7821 101.812 32.1137C101.812 32.4453 101.625 32.7137 101.395 32.7137Z" fill="white"/>
<path d="M109.998 32.7137H105.407C105.177 32.7137 104.99 32.4453 104.99 32.1137C104.99 31.7821 105.177 31.5137 105.407 31.5137H109.998C110.229 31.5137 110.415 31.7821 110.415 32.1137C110.415 32.4453 110.229 32.7137 109.998 32.7137Z" fill="white"/>
<path d="M118.592 32.7137H114.011C113.78 32.7137 113.594 32.4453 113.594 32.1137C113.594 31.7821 113.78 31.5137 114.011 31.5137H118.592C118.822 31.5137 119.009 31.7821 119.009 32.1137C119.009 32.4453 118.822 32.7137 118.592 32.7137Z" fill="white"/>
<path d="M120.059 18.6609H115.468C115.237 18.6609 115.051 18.3925 115.051 18.0609C115.051 17.7294 115.237 17.4609 115.468 17.4609H120.059C120.289 17.4609 120.476 17.7294 120.476 18.0609C120.476 18.3925 120.289 18.6609 120.059 18.6609Z" fill="white"/>
<rect y="9" width="43" height="18" rx="9" fill="url(#paint9_linear_138_1655)"/>
<path d="M11.0013 14H14.1055C14.7994 14 15.3965 14.1203 15.895 14.3618C16.3944 14.6032 16.7767 14.9418 17.0403 15.3783C17.3047 15.8147 17.437 16.3259 17.437 16.9125C17.437 17.4992 17.3047 18.0219 17.0403 18.4617C16.7759 18.9015 16.3944 19.2417 15.895 19.4823C15.3965 19.7238 14.7994 19.8449 14.1055 19.8449H12.806V21.9659H11.0005V14.0017L11.0013 14ZM14.0263 18.27C14.5349 18.27 14.9307 18.153 15.212 17.9182C15.4925 17.6834 15.6331 17.349 15.6331 16.9117C15.6331 16.4744 15.4925 16.1433 15.212 15.916C14.9307 15.6869 14.5358 15.5733 14.0263 15.5733H12.8069V18.27H14.0263Z" fill="white"/>
<path d="M22.5254 20.42H19.391L18.8259 21.9642H16.9614L20.0959 14H21.9696L25.1041 21.9642H23.0905L22.5254 20.42ZM21.9696 18.8758L20.9582 16.1002L19.9468 18.8758H21.9696Z" fill="white"/>
<path d="M28.5839 19.4624V21.9642H26.7784V19.4624L23.7534 14H25.8167L27.7603 17.7622L29.6947 14H31.6089L28.5839 19.4624Z" fill="white"/>
<defs>
<linearGradient id="paint0_linear_138_1655" x1="64.3145" y1="66.9317" x2="64.3145" y2="0" gradientUnits="userSpaceOnUse">
<stop stop-color="#8194BB"/>
<stop offset="1" stop-color="#A6B7C7"/>
</linearGradient>
<linearGradient id="paint1_linear_138_1655" x1="40.605" y1="44.9891" x2="87.3947" y2="44.9891" gradientUnits="userSpaceOnUse">
<stop stop-color="#4487D7"/>
<stop offset="1" stop-color="#6FAEF9"/>
</linearGradient>
<linearGradient id="paint2_linear_138_1655" x1="37" y1="31.1819" x2="91" y2="31.1819" gradientUnits="userSpaceOnUse">
<stop stop-color="#7AB2F5"/>
<stop offset="1" stop-color="#4487D7"/>
</linearGradient>
<linearGradient id="paint3_linear_138_1655" x1="64" y1="17" x2="64" y2="30.5" gradientUnits="userSpaceOnUse">
<stop stop-color="#94B2D6"/>
<stop offset="1" stop-color="white"/>
</linearGradient>
<linearGradient id="paint4_linear_138_1655" x1="8" y1="85.1354" x2="120.63" y2="85.1354" gradientUnits="userSpaceOnUse">
<stop stop-color="#9DB4D3"/>
<stop offset="1" stop-color="#B9C3DE"/>
</linearGradient>
<linearGradient id="paint5_linear_138_1655" x1="64.3146" y1="82.2707" x2="64.3146" y2="66.8335" gradientUnits="userSpaceOnUse">
<stop stop-color="#F2F6FC"/>
<stop offset="1" stop-color="#D5DEF2"/>
</linearGradient>
<linearGradient id="paint6_linear_138_1655" x1="14.2173" y1="72.0638" x2="114.413" y2="72.0638" gradientUnits="userSpaceOnUse">
<stop stop-color="#9FAECD"/>
<stop offset="1" stop-color="#B4C5DF"/>
</linearGradient>
<linearGradient id="paint7_linear_138_1655" x1="50.5986" y1="78.8741" x2="78.0307" y2="78.8741" gradientUnits="userSpaceOnUse">
<stop stop-color="#A0AFCE"/>
<stop offset="1" stop-color="#B5C6DF"/>
</linearGradient>
<linearGradient id="paint8_linear_138_1655" x1="83" y1="27.3977" x2="123.697" y2="27.3977" gradientUnits="userSpaceOnUse">
<stop stop-color="#81A6D1"/>
<stop offset="1" stop-color="#B4CDEB"/>
</linearGradient>
<linearGradient id="paint9_linear_138_1655" x1="21.5" y1="9" x2="21.5" y2="27" gradientUnits="userSpaceOnUse">
<stop stop-color="#FFAC9E"/>
<stop offset="1" stop-color="#FF8975"/>
</linearGradient>
<clipPath id="clip0_138_1655">
<rect width="54" height="40" fill="white" transform="translate(37 16)"/>
</clipPath>
</defs>
</svg>
