<svg width="106" height="74" viewBox="0 0 106 74" fill="none" xmlns="http://www.w3.org/2000/svg">
<path d="M93.7405 57.3297H16.4358C14.359 57.3297 12.6755 55.671 12.6755 53.6247V3.70505C12.6755 1.65875 14.359 0 16.4358 0H93.7405C95.8173 0 97.5008 1.65875 97.5008 3.70505V53.6247C97.5008 55.671 95.8173 57.3297 93.7405 57.3297Z" fill="url(#paint0_linear_138_4403)"/>
<path d="M91.8636 54.4205H18.9061C17.4524 54.4205 16.2739 53.2593 16.2739 51.8269V5.50271C16.2739 4.07034 17.4524 2.90918 18.9061 2.90918H91.8636C93.3173 2.90918 94.4958 4.07034 94.4958 5.50271V51.8269C94.4958 53.2593 93.3173 54.4205 91.8636 54.4205Z" fill="white"/>
<g clip-path="url(#clip0_138_4403)">
<path d="M34.7795 29.1035L38.2736 45.7912C38.5393 47.0598 39.6383 47.9667 40.9103 47.9667H68.7266C69.9986 47.9667 71.0976 47.0602 71.3634 45.7912L74.8574 29.1035H34.7795ZM45.0146 43.5192C45.0146 44.0643 44.5811 44.5063 44.0465 44.5063C43.512 44.5063 43.0785 44.0643 43.0785 43.5192V33.0704C43.0785 32.5252 43.512 32.0832 44.0465 32.0832C44.5811 32.0832 45.0146 32.5252 45.0146 33.0704V43.5192ZM52.1959 43.5192C52.1959 44.0643 51.7624 44.5063 51.2278 44.5063C50.6933 44.5063 50.2598 44.0643 50.2598 43.5192V33.0704C50.2598 32.5252 50.6933 32.0832 51.2278 32.0832C51.7624 32.0832 52.1959 32.5252 52.1959 33.0704V43.5192ZM59.3768 43.5192C59.3768 44.0643 58.9434 44.5063 58.4088 44.5063C57.8742 44.5063 57.4408 44.0643 57.4408 43.5192V33.0704C57.4408 32.5252 57.8742 32.0832 58.4088 32.0832C58.9434 32.0832 59.3768 32.5252 59.3768 33.0704V43.5192ZM66.5581 43.5192C66.5581 44.0643 66.1247 44.5063 65.5901 44.5063C65.0555 44.5063 64.6221 44.0643 64.6221 43.5192V33.0704C64.6221 32.5252 65.0555 32.0832 65.5901 32.0832C66.1247 32.0832 66.5581 32.5252 66.5581 33.0704V43.5192Z" fill="url(#paint1_linear_138_4403)"/>
<path d="M75.2486 23.8672H34.3879C32.8988 23.8672 31.6917 25.0982 31.6917 26.6168V26.8005C31.6917 28.3191 32.8988 29.5501 34.3879 29.5501H75.2486C76.7377 29.5501 77.9448 28.3191 77.9448 26.8005V26.6168C77.9448 25.0982 76.7377 23.8672 75.2486 23.8672Z" fill="url(#paint2_linear_138_4403)"/>
<path d="M43.2549 26.1243V17.561C43.2549 15.9042 44.598 14.561 46.2549 14.561H63.3815C65.0383 14.561 66.3815 15.9042 66.3815 17.561V25.6961" stroke="url(#paint3_linear_138_4403)" stroke-width="2.5" stroke-linecap="round" stroke-linejoin="round"/>
</g>
<path d="M100.834 73.6626H9.34209C7.96697 73.6626 6.85205 72.5641 6.85205 71.2092V70.4688H103.324V71.2092C103.324 72.5641 102.209 73.6626 100.834 73.6626Z" fill="url(#paint4_linear_138_4403)"/>
<path d="M103.324 70.4687H6.85205L11.693 59.4762C12.2894 58.122 13.6446 57.2461 15.1427 57.2461H95.0333C96.5314 57.2461 97.8866 58.1223 98.483 59.4762L103.324 70.4687Z" fill="url(#paint5_linear_138_4403)"/>
<path d="M97.9983 64.6625H12.177L14.9167 58.79H95.2586L97.9983 64.6625Z" fill="url(#paint6_linear_138_4403)"/>
<path d="M66.8363 69.1717H43.3396L44.8448 65.9453H65.331L66.8363 69.1717Z" fill="url(#paint7_linear_138_4403)"/>
<path d="M102.192 34.9414H74.8535C72.7767 34.9414 71.0933 33.2827 71.0933 31.2364V15.6948C71.0933 13.6485 72.7767 11.9897 74.8535 11.9897H102.192C104.269 11.9897 105.952 13.6485 105.952 15.6948V31.2364C105.952 33.2827 104.269 34.9414 102.192 34.9414Z" fill="url(#paint8_linear_138_4403)"/>
<path d="M77.3314 17.6992H78.6437C80.0974 17.6992 81.2759 18.8604 81.2759 20.2928V21.5858C81.2759 23.0182 80.0974 24.1793 78.6437 24.1793H77.3314C75.8777 24.1793 74.6992 23.0182 74.6992 21.5858V20.2928C74.6992 18.8604 75.8777 17.6992 77.3314 17.6992Z" fill="white"/>
<path d="M79.4798 28.0186H75.556C75.3585 28.0186 75.1987 27.7887 75.1987 27.5046C75.1987 27.2206 75.3585 26.9907 75.556 26.9907H79.4798C79.6772 26.9907 79.837 27.2206 79.837 27.5046C79.837 27.7887 79.6772 28.0186 79.4798 28.0186Z" fill="white"/>
<path d="M83.1374 31.2124H75.556C75.3585 31.2124 75.1987 30.9825 75.1987 30.6985C75.1987 30.4145 75.3585 30.1846 75.556 30.1846H83.1374C83.3348 30.1846 83.4946 30.4145 83.4946 30.6985C83.4946 30.9825 83.3348 31.2124 83.1374 31.2124Z" fill="white"/>
<path d="M90.0602 31.2124H86.8489C86.6515 31.2124 86.4917 30.9825 86.4917 30.6985C86.4917 30.4145 86.6515 30.1846 86.8489 30.1846H90.0602C90.2576 30.1846 90.4174 30.4145 90.4174 30.6985C90.4174 30.9825 90.2576 31.2124 90.0602 31.2124Z" fill="white"/>
<path d="M86.8493 28.0186H82.9168C82.7194 28.0186 82.5596 27.7887 82.5596 27.5046C82.5596 27.2206 82.7194 26.9907 82.9168 26.9907H86.8493C87.0467 26.9907 87.2065 27.2206 87.2065 27.5046C87.2065 27.7887 87.0467 28.0186 86.8493 28.0186Z" fill="white"/>
<path d="M94.2184 28.0186H90.2859C90.0885 28.0186 89.9287 27.7887 89.9287 27.5046C89.9287 27.2206 90.0885 26.9907 90.2859 26.9907H94.2184C94.4158 26.9907 94.5756 27.2206 94.5756 27.5046C94.5756 27.7887 94.4158 28.0186 94.2184 28.0186Z" fill="white"/>
<path d="M101.579 28.0186H97.6551C97.4577 28.0186 97.2979 27.7887 97.2979 27.5046C97.2979 27.2206 97.4577 26.9907 97.6551 26.9907H101.579C101.776 26.9907 101.936 27.2206 101.936 27.5046C101.936 27.7887 101.776 28.0186 101.579 28.0186Z" fill="white"/>
<path d="M102.836 15.9819H98.9031C98.7057 15.9819 98.5459 15.752 98.5459 15.468C98.5459 15.184 98.7057 14.9541 98.9031 14.9541H102.836C103.033 14.9541 103.193 15.184 103.193 15.468C103.193 15.752 103.033 15.9819 102.836 15.9819Z" fill="white"/>
<rect y="7.7085" width="36.8312" height="15.4177" rx="7.70886" fill="url(#paint9_linear_138_4403)"/>
<path d="M9.42308 11.9902H12.0819C12.6763 11.9902 13.1877 12.0933 13.6147 12.3001C14.0425 12.5069 14.3699 12.7969 14.5957 13.1708C14.8222 13.5446 14.9355 13.9824 14.9355 14.4849C14.9355 14.9874 14.8222 15.4352 14.5957 15.8119C14.3692 16.1886 14.0425 16.48 13.6147 16.6861C13.1877 16.8929 12.6763 16.9967 12.0819 16.9967H10.9689V18.8133H9.42236V11.9917L9.42308 11.9902ZM12.0141 15.6477C12.4498 15.6477 12.7888 15.5475 13.0297 15.3463C13.2699 15.1452 13.3904 14.8588 13.3904 14.4842C13.3904 14.1097 13.2699 13.8261 13.0297 13.6313C12.7888 13.4352 12.4505 13.3378 12.0141 13.3378H10.9696V15.6477H12.0141Z" fill="white"/>
<path d="M19.2939 17.4892H16.6091L16.1251 18.8119H14.5281L17.2129 11.9902H18.8178L21.5026 18.8119H19.7779L19.2939 17.4892ZM18.8178 16.1665L17.9515 13.7891L17.0852 16.1665H18.8178Z" fill="white"/>
<path d="M24.4832 16.669V18.8119H22.9367V16.669L20.3457 11.9902H22.113L23.7778 15.2127L25.4347 11.9902H27.0742L24.4832 16.669Z" fill="white"/>
<defs>
<linearGradient id="paint0_linear_138_4403" x1="55.0882" y1="57.3297" x2="55.0882" y2="0" gradientUnits="userSpaceOnUse">
<stop stop-color="#8194BB"/>
<stop offset="1" stop-color="#A6B7C7"/>
</linearGradient>
<linearGradient id="paint1_linear_138_4403" x1="34.7795" y1="38.535" x2="74.8568" y2="38.535" gradientUnits="userSpaceOnUse">
<stop stop-color="#4487D7"/>
<stop offset="1" stop-color="#6FAEF9"/>
</linearGradient>
<linearGradient id="paint2_linear_138_4403" x1="31.6917" y1="26.7085" x2="77.9448" y2="26.7085" gradientUnits="userSpaceOnUse">
<stop stop-color="#7AB2F5"/>
<stop offset="1" stop-color="#4487D7"/>
</linearGradient>
<linearGradient id="paint3_linear_138_4403" x1="54.8182" y1="14.561" x2="54.8182" y2="26.1243" gradientUnits="userSpaceOnUse">
<stop stop-color="#94B2D6"/>
<stop offset="1" stop-color="white"/>
</linearGradient>
<linearGradient id="paint4_linear_138_4403" x1="6.85205" y1="72.9222" x2="103.324" y2="72.9222" gradientUnits="userSpaceOnUse">
<stop stop-color="#9DB4D3"/>
<stop offset="1" stop-color="#B9C3DE"/>
</linearGradient>
<linearGradient id="paint5_linear_138_4403" x1="55.0878" y1="70.4687" x2="55.0878" y2="57.2461" gradientUnits="userSpaceOnUse">
<stop stop-color="#F2F6FC"/>
<stop offset="1" stop-color="#D5DEF2"/>
</linearGradient>
<linearGradient id="paint6_linear_138_4403" x1="12.177" y1="61.7263" x2="97.9983" y2="61.7263" gradientUnits="userSpaceOnUse">
<stop stop-color="#9FAECD"/>
<stop offset="1" stop-color="#B4C5DF"/>
</linearGradient>
<linearGradient id="paint7_linear_138_4403" x1="43.3396" y1="67.5585" x2="66.8363" y2="67.5585" gradientUnits="userSpaceOnUse">
<stop stop-color="#A0AFCE"/>
<stop offset="1" stop-color="#B5C6DF"/>
</linearGradient>
<linearGradient id="paint8_linear_138_4403" x1="71.0933" y1="23.4654" x2="105.952" y2="23.4654" gradientUnits="userSpaceOnUse">
<stop stop-color="#81A6D1"/>
<stop offset="1" stop-color="#B4CDEB"/>
</linearGradient>
<linearGradient id="paint9_linear_138_4403" x1="18.4156" y1="7.7085" x2="18.4156" y2="23.1262" gradientUnits="userSpaceOnUse">
<stop stop-color="#FFAC9E"/>
<stop offset="1" stop-color="#FF8975"/>
</linearGradient>
<clipPath id="clip0_138_4403">
<rect width="46.2532" height="34.2616" fill="white" transform="translate(31.6917 13.7046)"/>
</clipPath>
</defs>
</svg>
