<svg width="160" height="210" viewBox="0 0 160 210" fill="none" xmlns="http://www.w3.org/2000/svg">
<mask id="mask0_240_5238" style="mask-type:alpha" maskUnits="userSpaceOnUse" x="0" y="0" width="160" height="210">
<rect width="160" height="210" fill="url(#paint0_linear_240_5238)"/>
</mask>
<g mask="url(#mask0_240_5238)">
<path d="M5.351 71.4847C5.351 71.4847 5.35665 71.4762 5.3623 71.4706C5.36512 71.4649 5.36794 71.4621 5.37358 71.4564C5.37641 71.4508 5.37922 71.448 5.38487 71.4423C5.38769 71.4367 5.39053 71.4338 5.39617 71.4282C5.399 71.4226 5.40181 71.4197 5.40746 71.4141C5.41028 71.4084 5.41312 71.4056 5.41876 71.4C5.42158 71.3943 5.4244 71.3915 5.43005 71.3859C5.43287 71.3802 5.43569 71.3774 5.44133 71.3717C5.44416 71.3661 5.44699 71.3633 5.45264 71.3576C5.45546 71.352 5.45828 71.3492 5.46392 71.3435C5.46674 71.3379 5.46956 71.335 5.47521 71.3294C5.47803 71.3238 5.48086 71.3209 5.48651 71.3153C5.48933 71.3096 5.49215 71.3068 5.4978 71.3012C5.50062 71.2955 5.50344 71.2927 5.50908 71.2871C5.5119 71.2814 5.51474 71.2786 5.52038 71.2729C5.52321 71.2673 5.52602 71.2645 5.53167 71.2588C5.53449 71.2532 5.53731 71.2504 5.54296 71.2447C5.54578 71.2391 5.54861 71.2362 5.55426 71.2306C5.55708 71.2249 5.5599 71.2221 5.56554 71.2165C5.56837 71.2108 5.5712 71.208 5.57685 71.2024C5.57967 71.1967 5.58249 71.1939 5.58813 71.1883C5.59096 71.1826 5.59377 71.1798 5.59942 71.1741C5.60224 71.1685 5.60508 71.1657 5.61072 71.16C5.61355 71.1544 5.61636 71.1516 5.62201 71.1459C5.62483 71.1403 5.62765 71.1374 5.63329 71.1318C5.63612 71.1261 5.63895 71.1233 5.6446 71.1177C5.64742 71.112 5.65024 71.1092 5.65588 71.1036C5.65871 71.0979 5.66152 71.0951 5.66717 71.0894C5.66999 71.0838 5.67283 71.081 5.67847 71.0753C5.68129 71.0697 5.68411 71.0669 5.68976 71.0612C5.69258 71.0556 5.69541 71.0527 5.70106 71.0471C5.70388 71.0415 5.7067 71.0386 5.71235 71.033C5.71517 71.0273 5.71799 71.0245 5.72363 71.0189C5.72645 71.0132 5.72929 71.0104 5.73493 71.0048C5.73776 70.9991 5.74057 70.9963 5.74622 70.9906C5.74904 70.985 5.75186 70.9822 5.75751 70.9765C5.76033 70.9709 5.76316 70.9681 5.76881 70.9624C5.77163 70.9568 5.77445 70.9539 5.78009 70.9483C5.78292 70.9427 5.78573 70.9398 5.79138 70.9342C5.7942 70.9285 5.79704 70.9257 5.80268 70.9201C5.80551 70.9144 5.80832 70.9116 5.81397 70.906C5.81679 70.9003 5.81961 70.8975 5.82525 70.8918C5.82808 70.8862 5.83091 70.8834 5.83656 70.8777C5.83938 70.8721 5.8422 70.8693 5.84784 70.8636C5.85067 70.858 5.8535 70.8551 5.85915 70.8495C5.86197 70.8438 5.86479 70.841 5.87043 70.8354C5.87325 70.8297 5.87607 70.8269 5.88172 70.8213C5.88454 70.8156 5.88737 70.8128 5.89302 70.8071C5.89584 70.8015 5.89866 70.7987 5.90431 70.793C5.90713 70.7874 5.90995 70.7846 5.91559 70.7789C5.91841 70.7733 5.92125 70.7705 5.92689 70.7648C5.92972 70.7592 5.93253 70.7563 5.93818 70.7507C5.941 70.745 5.94382 70.7422 5.94947 70.7366C5.95229 70.7309 5.95512 70.7281 5.96077 70.7225C5.96359 70.7168 5.96641 70.714 5.97205 70.7083C5.97488 70.7027 5.97771 70.6999 5.98336 70.6942C5.98618 70.6886 5.989 70.6858 5.99464 70.6801C5.99747 70.6745 6.00028 70.6716 6.00593 70.666C6.00875 70.6604 6.01159 70.6575 6.01723 70.6519C6.02006 70.6462 6.02287 70.6434 6.02852 70.6378C6.03134 70.6321 6.03416 70.6293 6.0398 70.6237C6.04263 70.618 6.04546 70.6152 6.05111 70.6095C6.05393 70.6039 6.05675 70.6011 6.06239 70.5954C6.06522 70.5898 6.06803 70.587 6.07368 70.5813C6.0765 70.5757 6.07934 70.5728 6.08498 70.5672C6.0878 70.5615 6.09062 70.5587 6.09627 70.5531C6.09909 70.5474 6.10191 70.5446 6.10755 70.539C6.11038 70.5333 6.11321 70.5305 6.11886 70.5249C6.12168 70.5192 6.1245 70.5164 6.13014 70.5107C6.13296 70.5051 6.1358 70.5023 6.14144 70.4966C6.14427 70.491 6.14708 70.4882 6.15273 70.4825C6.15555 70.4769 6.15837 70.474 6.16402 70.4684C6.16684 70.4627 6.16967 70.4599 6.17532 70.4543C6.17814 70.4486 6.18096 70.4458 6.1866 70.4402C6.18943 70.4345 6.19224 70.4317 6.19789 70.426C6.20071 70.4204 6.20355 70.4176 6.20919 70.4119C6.21202 70.4063 6.21483 70.4035 6.22048 70.3978C6.2233 70.3922 6.22612 70.3893 6.23176 70.3837C6.23459 70.3781 6.23742 70.3752 6.24307 70.3696C6.24589 70.3639 6.24871 70.3611 6.25435 70.3555C6.25718 70.3498 6.26001 70.347 6.26566 70.3414C6.26848 70.3357 6.2713 70.3329 6.27694 70.3272C6.27976 70.3216 6.28258 70.3188 6.28823 70.3131C6.29105 70.3075 6.29388 70.3047 6.29953 70.299C6.30235 70.2934 6.30517 70.2905 6.31082 70.2849C6.31364 70.2792 6.31646 70.2764 6.3221 70.2708C6.32492 70.2651 6.32776 70.2623 6.3334 70.2567C6.33623 70.251 6.33904 70.2482 6.34469 70.2426C6.34751 70.2369 6.35033 70.2341 6.35598 70.2284C6.3588 70.2228 6.36163 70.22 6.36728 70.2143C6.3701 70.2087 6.37292 70.2059 6.37857 70.2002C6.38139 70.1946 6.3842 70.1917 6.38985 70.1861C6.39267 70.1804 6.39551 70.1776 6.40115 70.172C6.40398 70.1663 6.40679 70.1635 6.41244 70.1579C6.41526 70.1522 6.4181 70.1494 6.42374 70.1437C6.42657 70.1381 6.42938 70.1353 6.43503 70.1296C6.43785 70.124 6.44067 70.1212 6.44631 70.1155C6.44914 70.1099 6.45197 70.107 6.45762 70.1014C6.46044 70.0958 6.46326 70.0929 6.4689 70.0873C6.47173 70.0816 6.47454 70.0788 6.48019 70.0732C6.89517 69.4945 7.50211 69.0428 8.2502 68.8254L46.7557 57.6041C48.3083 57.1524 49.9598 57.8779 50.6768 59.3289L77.4104 113.536C77.9863 114.702 77.8113 116.014 77.114 116.974C77.1112 116.98 77.1084 116.983 77.1027 116.988C77.0999 116.994 77.0971 116.997 77.0914 117.002C77.0886 117.008 77.0858 117.011 77.0802 117.017C77.0773 117.022 77.0745 117.025 77.0689 117.031C77.066 117.036 77.0632 117.039 77.0576 117.045C77.0547 117.05 77.0519 117.053 77.0463 117.059C77.0435 117.065 77.0406 117.067 77.035 117.073C77.0322 117.079 77.0293 117.081 77.0237 117.087C77.0209 117.093 77.0181 117.096 77.0124 117.101C77.0096 117.107 77.0068 117.11 77.0011 117.115C76.9983 117.121 76.9955 117.124 76.9898 117.129C76.987 117.135 76.9842 117.138 76.9785 117.144C76.9757 117.149 76.9729 117.152 76.9672 117.158C76.9644 117.163 76.9616 117.166 76.9559 117.172C76.9531 117.177 76.9503 117.18 76.9446 117.186C76.9418 117.192 76.939 117.194 76.9334 117.2C76.9305 117.206 76.9277 117.209 76.9221 117.214C76.9192 117.22 76.9164 117.223 76.9108 117.228C76.908 117.234 76.9051 117.237 76.8995 117.242C76.8967 117.248 76.8938 117.251 76.8882 117.256C76.8854 117.262 76.8825 117.265 76.8769 117.271C76.8741 117.276 76.8713 117.279 76.8656 117.285C76.8628 117.29 76.86 117.293 76.8543 117.299C76.8515 117.304 76.8487 117.307 76.843 117.313C76.8402 117.319 76.8374 117.321 76.8317 117.327C76.8289 117.333 76.8261 117.336 76.8204 117.341C76.8176 117.347 76.8148 117.35 76.8092 117.355C76.8063 117.361 76.8035 117.364 76.7979 117.369C76.795 117.375 76.7922 117.378 76.7866 117.384C76.7837 117.389 76.7809 117.392 76.7753 117.398C76.7724 117.403 76.7696 117.406 76.764 117.412C76.7612 117.417 76.7583 117.42 76.7527 117.426C76.7499 117.432 76.747 117.434 76.7414 117.44C76.7386 117.446 76.7358 117.448 76.7301 117.454C76.7273 117.46 76.7245 117.463 76.7188 117.468C76.716 117.474 76.7132 117.477 76.7075 117.482C76.7047 117.488 76.7019 117.491 76.6962 117.496C76.6934 117.502 76.6906 117.505 76.6849 117.511C76.6821 117.516 76.6793 117.519 76.6736 117.525C76.6708 117.53 76.668 117.533 76.6624 117.539C76.6595 117.544 76.6567 117.547 76.6511 117.553C76.6482 117.559 76.6454 117.561 76.6398 117.567C76.6369 117.573 76.6341 117.575 76.6285 117.581C76.6257 117.587 76.6228 117.59 76.6172 117.595C76.6144 117.601 76.6115 117.604 76.6059 117.609C76.6031 117.615 76.6002 117.618 76.5946 117.623C76.5918 117.629 76.589 117.632 76.5833 117.638C76.5805 117.643 76.5777 117.646 76.572 117.652C76.5692 117.657 76.5664 117.66 76.5607 117.666C76.5579 117.671 76.5551 117.674 76.5494 117.68C76.5466 117.686 76.5438 117.688 76.5381 117.694C76.5353 117.7 76.5325 117.703 76.5269 117.708C76.524 117.714 76.5212 117.717 76.5156 117.722C76.5127 117.728 76.5099 117.731 76.5043 117.736C76.5014 117.742 76.4986 117.745 76.493 117.751C76.4901 117.756 76.4873 117.759 76.4817 117.765C76.4789 117.77 76.476 117.773 76.4704 117.779C76.4676 117.784 76.4647 117.787 76.4591 117.793C76.4563 117.799 76.4535 117.801 76.4478 117.807C76.445 117.813 76.4422 117.815 76.4365 117.821C76.4337 117.827 76.4309 117.83 76.4252 117.835C76.4224 117.841 76.4196 117.844 76.4139 117.849C76.4111 117.855 76.4083 117.858 76.4026 117.863C76.3998 117.869 76.397 117.872 76.3913 117.878C76.3885 117.883 76.3857 117.886 76.3801 117.892C76.3772 117.897 76.3744 117.9 76.3688 117.906C76.3659 117.911 76.3631 117.914 76.3575 117.92C76.3546 117.926 76.3518 117.928 76.3462 117.934C76.3434 117.94 76.3405 117.942 76.3349 117.948C76.3321 117.954 76.3292 117.957 76.3236 117.962C76.3208 117.968 76.3179 117.971 76.3123 117.976C76.3095 117.982 76.3067 117.985 76.301 117.99C76.2982 117.996 76.2954 117.999 76.2897 118.005C76.2869 118.01 76.2841 118.013 76.2784 118.019C76.2756 118.024 76.2728 118.027 76.2671 118.033C76.2643 118.038 76.2615 118.041 76.2558 118.047C76.253 118.053 76.2502 118.055 76.2446 118.061C76.2417 118.067 76.2389 118.07 76.2333 118.075C76.2304 118.081 76.2276 118.084 76.222 118.089C76.2191 118.095 76.2163 118.098 76.2107 118.103C76.2078 118.109 76.205 118.112 76.1994 118.118C76.1966 118.123 76.1937 118.126 76.1881 118.132C76.1853 118.137 76.1824 118.14 76.1768 118.146C76.174 118.151 76.1712 118.154 76.1655 118.16C76.1627 118.165 76.1599 118.168 76.1542 118.174C76.1514 118.18 76.1486 118.182 76.1429 118.188C76.1401 118.194 76.1373 118.197 76.1316 118.202C76.1288 118.208 76.126 118.211 76.1203 118.216C76.1175 118.222 76.1147 118.225 76.109 118.23C76.1062 118.236 76.1034 118.239 76.0978 118.245C76.0949 118.25 76.0921 118.253 76.0865 118.259C76.0836 118.264 76.0808 118.267 76.0752 118.273C76.0724 118.278 76.0695 118.281 76.0639 118.287C76.0611 118.293 76.0582 118.295 76.0526 118.301C76.0498 118.307 76.0469 118.309 76.0413 118.315C76.0385 118.321 76.0357 118.324 76.03 118.329C76.0272 118.335 76.0244 118.338 76.0187 118.343C76.0159 118.349 76.0131 118.352 76.0074 118.357C76.0046 118.363 76.0018 118.366 75.9961 118.372C75.9933 118.377 75.9905 118.38 75.9848 118.386C75.5699 118.964 74.9629 119.416 74.2148 119.633L35.7094 130.86C34.1567 131.312 32.5024 130.587 31.7882 129.136L5.05459 74.9259C4.4787 73.76 4.65372 72.4473 5.351 71.4875V71.4847Z" fill="#2D2B29"/>
<g style="mix-blend-mode:multiply">
<path d="M3.07951 74.3728C3.07951 74.3728 3.08517 74.3644 3.09081 74.3587C3.09364 74.3531 3.09645 74.3503 3.1021 74.3446C3.10492 74.339 3.10774 74.3362 3.11339 74.3305C3.11621 74.3249 3.11904 74.322 3.12469 74.3164C3.12751 74.3107 3.13033 74.3079 3.13597 74.3023C3.1388 74.2966 3.14161 74.2938 3.14726 74.2882C3.15008 74.2825 3.15292 74.2797 3.15856 74.274C3.16139 74.2684 3.1642 74.2656 3.16985 74.2599C3.17267 74.2543 3.17549 74.2515 3.18113 74.2458C3.18396 74.2402 3.18679 74.2373 3.19244 74.2317C3.19526 74.2261 3.19808 74.2232 3.20372 74.2176C3.20655 74.2119 3.20936 74.2091 3.21501 74.2035C3.21783 74.1978 3.22067 74.195 3.22631 74.1894C3.22913 74.1837 3.23195 74.1809 3.2376 74.1752C3.24042 74.1696 3.24325 74.1668 3.2489 74.1611C3.25172 74.1555 3.25454 74.1527 3.26019 74.147C3.26301 74.1414 3.26583 74.1385 3.27147 74.1329C3.27429 74.1273 3.27713 74.1244 3.28277 74.1188C3.2856 74.1131 3.28841 74.1103 3.29406 74.1047C3.29688 74.099 3.2997 74.0962 3.30535 74.0905C3.30817 74.0849 3.311 74.0821 3.31665 74.0764C3.31947 74.0708 3.32229 74.068 3.32793 74.0623C3.33076 74.0567 3.33357 74.0539 3.33922 74.0482C3.34204 74.0426 3.34488 74.0397 3.35052 74.0341C3.35335 74.0284 3.35616 74.0256 3.36181 74.02C3.36463 74.0143 3.36747 74.0115 3.37311 74.0059C3.37594 74.0002 3.37875 73.9974 3.3844 73.9917C3.38722 73.9861 3.39004 73.9833 3.39568 73.9776C3.39851 73.972 3.40134 73.9692 3.40699 73.9635C3.40981 73.9579 3.41263 73.955 3.41827 73.9494C3.4211 73.9438 3.42391 73.9409 3.42956 73.9353C3.43238 73.9296 3.43522 73.9268 3.44086 73.9212C3.44368 73.9155 3.4465 73.9127 3.45215 73.9071C3.45497 73.9014 3.45779 73.8986 3.46343 73.8929C3.46626 73.8873 3.46909 73.8845 3.47474 73.8788C3.47756 73.8732 3.48038 73.8704 3.48602 73.8647C3.48884 73.8591 3.49166 73.8562 3.49731 73.8506C3.50013 73.845 3.50296 73.8421 3.50861 73.8365C3.51143 73.8308 3.51425 73.828 3.5199 73.8224C3.52272 73.8167 3.52555 73.8139 3.5312 73.8083C3.53402 73.8026 3.53684 73.7998 3.54248 73.7941C3.54531 73.7885 3.54812 73.7857 3.55377 73.78C3.55659 73.7744 3.55943 73.7716 3.56507 73.7659C3.5679 73.7603 3.57071 73.7574 3.57636 73.7518C3.57918 73.7461 3.582 73.7433 3.58764 73.7377C3.59047 73.732 3.5933 73.7292 3.59895 73.7236C3.60177 73.7179 3.60459 73.7151 3.61023 73.7094C3.61306 73.7038 3.61587 73.701 3.62152 73.6953C3.62434 73.6897 3.62718 73.6869 3.63282 73.6812C3.63564 73.6756 3.63846 73.6727 3.64411 73.6671C3.64693 73.6615 3.64976 73.6586 3.65541 73.653C3.65823 73.6473 3.66105 73.6445 3.6667 73.6389C3.66952 73.6332 3.67234 73.6304 3.67798 73.6248C3.6808 73.6191 3.68364 73.6163 3.68928 73.6106C3.69211 73.605 3.69492 73.6022 3.70057 73.5965C3.70339 73.5909 3.70621 73.5881 3.71186 73.5824C3.71468 73.5768 3.71751 73.5739 3.72316 73.5683C3.72598 73.5627 3.7288 73.5598 3.73445 73.5542C3.73727 73.5485 3.74008 73.5457 3.74573 73.5401C3.74855 73.5344 3.75139 73.5316 3.75703 73.526C3.75986 73.5203 3.76267 73.5175 3.76832 73.5118C3.77114 73.5062 3.77396 73.5034 3.77961 73.4977C3.78243 73.4921 3.78526 73.4893 3.79091 73.4836C3.79373 73.478 3.79655 73.4751 3.80219 73.4695C3.80502 73.4638 3.80785 73.461 3.8135 73.4554C3.81632 73.4497 3.81914 73.4469 3.82478 73.4413C3.82761 73.4356 3.83042 73.4328 3.83607 73.4272C3.83889 73.4215 3.84173 73.4187 3.84737 73.413C3.85019 73.4074 3.85301 73.4046 3.85866 73.3989C3.86148 73.3933 3.8643 73.3905 3.86994 73.3848C3.87277 73.3792 3.8756 73.3763 3.88125 73.3707C3.88407 73.365 3.88689 73.3622 3.89253 73.3566C3.89535 73.3509 3.89817 73.3481 3.90382 73.3425C3.90664 73.3368 3.90947 73.334 3.91512 73.3283C3.91794 73.3227 3.92076 73.3199 3.92641 73.3142C3.92923 73.3086 3.93206 73.3058 3.93771 73.3001C3.94053 73.2945 3.94335 73.2916 3.94899 73.286C3.95182 73.2804 3.95463 73.2775 3.96028 73.2719C3.9631 73.2662 3.96594 73.2634 3.97158 73.2578C3.97441 73.2521 3.97722 73.2493 3.98287 73.2437C3.98569 73.238 3.98851 73.2352 3.99415 73.2295C3.99698 73.2239 3.99981 73.2211 4.00546 73.2154C4.00828 73.2098 4.0111 73.207 4.01674 73.2013C4.01957 73.1957 4.02238 73.1928 4.02803 73.1872C4.03085 73.1816 4.03369 73.1787 4.03933 73.1731C4.04215 73.1674 4.04497 73.1646 4.05062 73.159C4.05344 73.1533 4.05626 73.1505 4.0619 73.1449C4.06473 73.1392 4.06756 73.1364 4.07321 73.1307C4.07603 73.1251 4.07885 73.1223 4.08449 73.1166C4.08732 73.111 4.09015 73.1082 4.0958 73.1025C4.09862 73.0969 4.10143 73.094 4.10708 73.0884C4.1099 73.0827 4.11272 73.0799 4.11837 73.0743C4.12119 73.0686 4.12402 73.0658 4.12967 73.0602C4.13249 73.0545 4.13531 73.0517 4.14096 73.046C4.14378 73.0404 4.14659 73.0376 4.15224 73.0319C4.15506 73.0263 4.1579 73.0235 4.16354 73.0178C4.16637 73.0122 4.16918 73.0094 4.17483 73.0037C4.17765 72.9981 4.18047 72.9952 4.18612 72.9896C4.18894 72.9839 4.19177 72.9811 4.19742 72.9755C4.20024 72.9698 4.20306 72.967 4.2087 72.9614C4.62368 72.3826 5.23063 71.931 5.97872 71.7136L44.4842 60.4922C46.0368 60.0406 47.6883 60.7661 48.4053 62.2171L75.139 116.424C75.7148 117.59 75.5398 118.903 74.8425 119.862C74.8397 119.868 74.8369 119.871 74.8313 119.876C74.8284 119.882 74.8256 119.885 74.82 119.891C74.8171 119.896 74.8143 119.899 74.8087 119.905C74.8058 119.91 74.803 119.913 74.7974 119.919C74.7946 119.924 74.7917 119.927 74.7861 119.933C74.7833 119.939 74.7804 119.941 74.7748 119.947C74.772 119.953 74.7691 119.956 74.7635 119.961C74.7607 119.967 74.7579 119.97 74.7522 119.975C74.7494 119.981 74.7466 119.984 74.7409 119.989C74.7381 119.995 74.7353 119.998 74.7296 120.004C74.7268 120.009 74.724 120.012 74.7183 120.018C74.7155 120.023 74.7127 120.026 74.707 120.032C74.7042 120.037 74.7014 120.04 74.6957 120.046C74.6929 120.052 74.6901 120.054 74.6845 120.06C74.6816 120.066 74.6788 120.068 74.6732 120.074C74.6703 120.08 74.6675 120.083 74.6619 120.088C74.659 120.094 74.6562 120.097 74.6506 120.102C74.6478 120.108 74.6449 120.111 74.6393 120.116C74.6365 120.122 74.6336 120.125 74.628 120.131C74.6252 120.136 74.6223 120.139 74.6167 120.145C74.6139 120.15 74.6111 120.153 74.6054 120.159C74.6026 120.164 74.5998 120.167 74.5941 120.173C74.5913 120.179 74.5885 120.181 74.5828 120.187C74.58 120.193 74.5772 120.195 74.5715 120.201C74.5687 120.207 74.5659 120.21 74.5602 120.215C74.5574 120.221 74.5546 120.224 74.549 120.229C74.5461 120.235 74.5433 120.238 74.5377 120.243C74.5348 120.249 74.532 120.252 74.5264 120.258C74.5235 120.263 74.5207 120.266 74.5151 120.272C74.5123 120.277 74.5094 120.28 74.5038 120.286C74.501 120.291 74.4981 120.294 74.4925 120.3C74.4897 120.306 74.4868 120.308 74.4812 120.314C74.4784 120.32 74.4756 120.323 74.4699 120.328C74.4671 120.334 74.4643 120.337 74.4586 120.342C74.4558 120.348 74.453 120.351 74.4473 120.356C74.4445 120.362 74.4417 120.365 74.436 120.371C74.4332 120.376 74.4304 120.379 74.4247 120.385C74.4219 120.39 74.4191 120.393 74.4134 120.399C74.4106 120.404 74.4078 120.407 74.4022 120.413C74.3993 120.419 74.3965 120.421 74.3909 120.427C74.388 120.433 74.3852 120.435 74.3796 120.441C74.3767 120.447 74.3739 120.45 74.3683 120.455C74.3655 120.461 74.3626 120.464 74.357 120.469C74.3542 120.475 74.3513 120.478 74.3457 120.483C74.3429 120.489 74.34 120.492 74.3344 120.498C74.3316 120.503 74.3288 120.506 74.3231 120.512C74.3203 120.517 74.3175 120.52 74.3118 120.526C74.309 120.531 74.3062 120.534 74.3005 120.54C74.2977 120.546 74.2949 120.548 74.2892 120.554C74.2864 120.56 74.2836 120.562 74.2779 120.568C74.2751 120.574 74.2723 120.577 74.2667 120.582C74.2638 120.588 74.261 120.591 74.2554 120.596C74.2525 120.602 74.2497 120.605 74.2441 120.61C74.2412 120.616 74.2384 120.619 74.2328 120.625C74.23 120.63 74.2271 120.633 74.2215 120.639C74.2187 120.644 74.2158 120.647 74.2102 120.653C74.2074 120.658 74.2046 120.661 74.1989 120.667C74.1961 120.673 74.1933 120.675 74.1876 120.681C74.1848 120.687 74.182 120.69 74.1763 120.695C74.1735 120.701 74.1707 120.704 74.165 120.709C74.1622 120.715 74.1594 120.718 74.1537 120.723C74.1509 120.729 74.1481 120.732 74.1424 120.738C74.1396 120.743 74.1368 120.746 74.1311 120.752C74.1283 120.757 74.1255 120.76 74.1199 120.766C74.117 120.771 74.1142 120.774 74.1086 120.78C74.1057 120.785 74.1029 120.788 74.0973 120.794C74.0945 120.8 74.0916 120.802 74.086 120.808C74.0832 120.814 74.0803 120.817 74.0747 120.822C74.0719 120.828 74.069 120.831 74.0634 120.836C74.0606 120.842 74.0578 120.845 74.0521 120.85C74.0493 120.856 74.0465 120.859 74.0408 120.865C74.038 120.87 74.0352 120.873 74.0295 120.879C74.0267 120.884 74.0239 120.887 74.0182 120.893C74.0154 120.898 74.0126 120.901 74.0069 120.907C74.0041 120.913 74.0013 120.915 73.9957 120.921C73.9928 120.927 73.99 120.929 73.9844 120.935C73.9815 120.941 73.9787 120.944 73.9731 120.949C73.9702 120.955 73.9674 120.958 73.9618 120.963C73.9589 120.969 73.9561 120.972 73.9505 120.977C73.9477 120.983 73.9448 120.986 73.9392 120.992C73.9364 120.997 73.9335 121 73.9279 121.006C73.9251 121.011 73.9223 121.014 73.9166 121.02C73.9138 121.025 73.911 121.028 73.9053 121.034C73.9025 121.04 73.8997 121.042 73.894 121.048C73.8912 121.054 73.8884 121.057 73.8827 121.062C73.8799 121.068 73.8771 121.071 73.8714 121.076C73.8686 121.082 73.8658 121.085 73.8601 121.09C73.8573 121.096 73.8545 121.099 73.8488 121.104C73.846 121.11 73.8432 121.113 73.8376 121.119C73.8347 121.124 73.8319 121.127 73.8263 121.133C73.8234 121.138 73.8206 121.141 73.815 121.147C73.8122 121.152 73.8093 121.155 73.8037 121.161C73.8009 121.167 73.798 121.169 73.7924 121.175C73.7896 121.181 73.7867 121.184 73.7811 121.189C73.7783 121.195 73.7755 121.198 73.7698 121.203C73.767 121.209 73.7642 121.212 73.7585 121.217C73.7557 121.223 73.7529 121.226 73.7472 121.232C73.7444 121.237 73.7416 121.24 73.7359 121.246C73.7331 121.251 73.7303 121.254 73.7246 121.26C73.7218 121.265 73.719 121.268 73.7134 121.274C73.2984 121.853 72.6914 122.304 71.9433 122.522L33.4379 133.749C31.8852 134.2 30.231 133.475 29.5167 132.024L2.7831 77.8141C2.20721 76.6482 2.38223 75.3355 3.07951 74.3757V74.3728Z" fill="#ADB2C7"/>
</g>
<path d="M6.0714 73.5701L32.805 127.78C33.5192 129.231 35.1735 129.956 36.7261 129.505L75.2316 118.278C77.2218 117.699 78.2042 115.463 77.2868 113.606L50.5531 59.3987C49.8389 57.9477 48.1846 57.2222 46.632 57.6739L8.12652 68.8952C6.13632 69.474 5.15393 71.7098 6.0714 73.5673V73.5701Z" fill="#8181B6"/>
<path d="M35.835 128.308C36.01 128.306 36.1822 128.277 36.3516 128.229L74.8571 117.002C75.4273 116.836 75.8903 116.429 76.1302 115.887C76.3702 115.345 76.3561 114.727 76.0935 114.196L49.3599 59.9895C49.0155 59.295 48.2956 58.8546 47.5193 58.8716C47.3443 58.8744 47.1721 58.9026 47.0027 58.9506L8.4972 70.172C7.92696 70.3385 7.46399 70.745 7.22404 71.287C6.98408 71.8291 6.9982 72.4473 7.26074 72.978L33.9944 127.188C34.3388 127.882 35.0587 128.323 35.835 128.306V128.308Z" fill="#DEE4FF"/>
<path d="M37.9107 95.4344L39.6751 99.2144L59.9893 93.7717L58.2277 89.9917L37.9107 95.4344Z" fill="white"/>
<path d="M44.1284 108.762L45.8899 112.542L66.2041 107.097L64.4426 103.317L44.1284 108.762Z" fill="#85B2E8"/>
<path d="M47.5879 100.25L49.3494 104.03L63.0635 100.358L61.2991 96.5776L47.5879 100.25Z" fill="white"/>
<path d="M35.1225 66.6763L40.0203 76.7571L49.2967 74.3576C49.5423 75.1283 49.7116 75.93 49.7822 76.7571C50.2932 82.5979 45.9712 87.3349 40.1304 87.3349C34.2897 87.3349 29.1406 82.6007 28.6268 76.7571C28.2146 72.0315 30.9614 68.0313 35.1197 66.6763H35.1225Z" fill="#85B2E8"/>
<path d="M35.1237 66.6727C36.106 66.3509 37.1675 66.1787 38.2826 66.1787C43.299 66.1787 47.8017 69.6707 49.2979 74.3569L40.0215 76.7564L35.1237 66.6756V66.6727Z" fill="#FFEA79"/>
<path d="M51.4822 76.7285C51.7278 77.4992 51.8972 78.3009 51.9678 79.1281C52.4787 84.9688 48.1567 89.7058 42.316 89.7058" stroke="#FEFEFE" stroke-width="1.42" stroke-linecap="round" stroke-linejoin="round"/>
<path d="M100.736 151.312L167.209 133.502" stroke="white" stroke-linecap="round" stroke-linejoin="round"/>
<path d="M96.8916 71.1367C97.6425 71.0436 98.128 70.2926 97.8966 69.57C96.5726 65.4399 96.3072 60.9062 97.3545 56.3528C100.35 43.3388 113.259 34.9348 126.375 37.4501C137.049 39.4967 144.798 48.0391 146.359 58.1651L146.13 80.8845L152.18 102.921L113.804 108.479L110.016 97.365C108.991 97.3594 107.946 97.2578 106.899 97.0461C98.9326 95.4341 93.6649 88.2496 95.13 80.9974C95.274 80.286 95.4801 79.6028 95.737 78.9451C94.4666 78.3805 93.5125 77.1864 93.329 75.7071C93.0495 73.46 94.6445 71.4162 96.8916 71.1367Z" fill="#FDACA5"/>
<path d="M110.017 97.3705C112.967 97.2124 115.008 96.4361 116.862 94.2681L113.128 106.503L110.017 97.3705Z" fill="#D7726A"/>
<path d="M115.818 116.699L156.57 99.4109L148.547 86.8938C144.798 79.4101 110.062 101.508 113.811 108.992L115.818 116.702V116.699Z" fill="#E9F5FF"/>
<path d="M97.1357 43.1117C99.2416 43.9728 101.463 44.5007 103.66 44.687C109.382 38.7333 117.93 35.7438 126.622 37.5025C136.573 39.5153 143.932 47.1881 146.033 56.4899C146.095 56.7637 146.154 57.0403 146.205 57.3198C146.258 57.6021 146.309 57.8844 146.352 58.1695L146.123 80.8889L125.597 83.7655C124.558 83.9123 123.516 83.5256 122.822 82.7408L113.978 72.7418C113.978 72.7418 99.2078 73.5604 102.855 59.5584C100.862 58.4631 99.3658 56.9924 98.6375 55.4058C96.413 54.4855 94.3099 53.3338 92.3648 51.9816C87.5375 48.4557 91.4671 41.0256 97.1329 43.1146L97.1357 43.1117Z" fill="#2D2B29"/>
<path d="M132.637 47.8481C135.544 47.0802 138.503 45.3469 140.05 42.7018C140.563 41.8747 140.947 41.0249 141.258 40.178C141.489 39.5513 141.168 38.8597 140.541 38.6282C140.047 38.4476 139.51 38.6085 139.194 38.9924C138.237 40.0849 137.1 41.0334 135.784 41.4964C134.579 41.917 133.306 41.9509 131.914 41.8126C130.203 41.6432 128.682 42.8909 128.512 44.6017C128.255 46.8318 130.542 48.6075 132.637 47.8509V47.8481Z" fill="#2D2B29"/>
<path d="M137.383 41.909C134.735 40.2886 133.527 38.225 133.42 35.1423C133.386 34.4761 132.816 33.9652 132.152 34.0019C131.641 34.0301 131.221 34.3717 131.068 34.8318C130.789 35.6872 130.563 36.5934 130.45 37.5588C130.013 40.6613 131.32 43.9021 133.177 46.3439C134.179 47.7385 136.124 48.0547 137.519 47.0525C139.295 45.8302 139.204 43.0326 137.381 41.909H137.383Z" fill="#2D2B29"/>
<path d="M93.3865 153.288L110.564 211.887C120.275 235.747 214.572 209.302 204.858 185.442L181.444 113.394L93.3837 153.288H93.3865Z" fill="#C6E0FC"/>
<path d="M72.1577 171.317L50.5393 126.951C50.5393 126.951 51.979 117.24 51.8887 111.414L45.441 107.535L43.5214 111.018L39.3377 109.384L30.8575 100.074C27.5292 101.141 25.299 102.64 25.0929 106.504C21.8973 107.557 19.7547 109.048 19.5119 112.746C14.8709 114.214 12.3161 116.472 14.3345 124.69L31.4446 186.708C34.8661 199.107 48.199 205.885 60.2334 201.343C72.2706 196.798 77.798 182.889 72.1605 171.323L72.1577 171.317Z" fill="#FDACA5"/>
<path d="M42.9232 117.955L35.1967 85.877C34.0026 81.5776 27.8174 82.814 28.351 87.2405L33.5057 119.829C33.9207 122.452 36.3824 124.238 39.0021 123.823C41.7573 123.4 43.5866 120.659 42.9232 117.952V117.955Z" fill="#FDACA5"/>
<path d="M25.7754 111.983C25.2277 109.75 25.016 107.957 25.095 106.5" stroke="#A8524B" stroke-linecap="round" stroke-linejoin="round"/>
<path d="M20.1885 118.361C19.6211 116.058 19.4178 114.223 19.5138 112.744" stroke="#A8524B" stroke-linecap="round" stroke-linejoin="round"/>
<path d="M51.8906 111.409L52.0572 102.951C52.0854 101.492 50.7417 100.394 49.3161 100.71C47.1875 101.184 45.4796 102.771 44.8473 104.857L42.2643 113.388L51.8906 111.406V111.409Z" fill="#FDACA5"/>
<path d="M30.3975 100.222C30.8774 103.265 31.3856 106.469 31.8457 109.386" stroke="#A8524B" stroke-linecap="round" stroke-linejoin="round"/>
<path d="M101.91 161.514C105.363 161.457 108.858 160.673 112.178 159.086C130.157 150.493 145.031 147.882 162.252 144.855C164.758 144.415 167.353 143.961 169.981 143.481C183.461 141.025 192.395 128.11 189.942 114.63C187.486 101.15 174.571 92.2154 161.091 94.6685C158.616 95.1202 156.1 95.5606 153.67 95.9869C134.603 99.3349 114.891 102.799 90.7851 114.316C78.4232 120.225 73.1922 135.034 79.1007 147.396C83.4227 156.438 92.5071 161.666 101.913 161.508L101.91 161.514Z" fill="#C6E0FC"/>
<path d="M44.598 202.7C53.6626 207.05 64.8529 205.596 72.5286 198.217L118.309 154.221C128.187 144.727 128.5 129.023 119.006 119.145C109.513 109.268 93.8083 108.954 83.9307 118.448L38.1503 162.444C28.2727 171.938 27.9594 187.642 37.4531 197.52C39.5703 199.722 41.9953 201.449 44.598 202.7Z" fill="#C6E0FC"/>
<path d="M101.507 170.368L118.309 154.223C128.187 144.729 128.5 129.025 119.006 119.147C113.095 112.996 104.778 110.554 96.9559 111.878" stroke="#E9F5FF" stroke-width="1.42" stroke-miterlimit="10"/>
<path d="M101.078 136.718C99.6555 136.718 99.6527 134.507 101.078 134.507C102.504 134.507 102.504 136.718 101.078 136.718Z" fill="#C6E0FC"/>
<path d="M109.493 80.734C106.792 80.472 104.923 76.9473 105.319 72.8613C105.715 68.7754 108.227 65.6756 110.928 65.9376C113.63 66.1997 115.499 69.7244 115.103 73.8103C114.706 77.8962 112.195 80.9961 109.493 80.734Z" fill="#FDACA5"/>
<path d="M108.623 78.3334C110.452 78.5112 112.154 76.4109 112.425 73.6416C112.696 70.8722 111.429 68.484 109.597 68.3062" stroke="#D7726A" stroke-width="1.5" stroke-linecap="round" stroke-linejoin="round"/>
</g>
<defs>
<linearGradient id="paint0_linear_240_5238" x1="-12.3726" y1="-2.35577" x2="84.3088" y2="97.6877" gradientUnits="userSpaceOnUse">
<stop stop-color="#3486E7"/>
<stop offset="1" stop-color="#6851C1"/>
</linearGradient>
</defs>
</svg>
