<svg width="40" height="40" viewbox="0 0 40 40" fill="none" xmlns="http://www.w3.org/2000/svg"><path d="M20.223 27.918v9.08M12.605 37l7.417-4.549M27.448 37l-7.42-4.549" stroke="#5961CC" style="stroke:color(display-p3 .349 .3804 .8);stroke-opacity:1" stroke-width="2" stroke-linecap="round" stroke-linejoin="round"/><path d="M32.897 5H7.155a2 2 0 0 0-2 2v18.813a2 2 0 0 0 2 2h25.742a2 2 0 0 0 2-2V7a2 2 0 0 0-2-2Z" fill="#fff" style="fill:#fff;fill-opacity:1"/><path d="M36 5H4a1 1 0 0 0 0 2h32a1 1 0 1 0 0-2Z" fill="#5961CC" style="fill:color(display-p3 .349 .3804 .8);fill-opacity:1"/><path d="m10.886 20.8 4.787-5.42 6.039 4.236 7.1-7.971" stroke="#9D9DF0" style="stroke:color(display-p3 .6157 .6157 .9412);stroke-opacity:1" stroke-width="2" stroke-linecap="round" stroke-linejoin="round"/></svg>