<svg width="40" height="40" viewBox="0 0 40 40" fill="none" xmlns="http://www.w3.org/2000/svg">
<rect x="7" y="9.75" width="24.0625" height="26.25" rx="2" fill="white" style="fill:white;fill-opacity:1;"/>
<path d="M22.8351 12.8672V7.55643C22.8351 5.45399 21.1337 3.75868 19.0313 3.7526C16.9288 3.7526 15.2335 5.45399 15.2274 7.55643V12.8672C15.2274 13.6267 14.6137 14.2465 13.8481 14.2465C13.0885 14.2465 12.4688 13.6328 12.4688 12.8672V7.55643C12.4688 3.9349 15.4036 1 19.0313 1C22.6528 1 25.5877 3.9349 25.5938 7.55643V12.8672C25.5938 13.6267 24.974 14.2465 24.2144 14.2465C23.4549 14.2465 22.8351 13.6328 22.8351 12.8672Z" fill="#7D9EF3" style="fill:#7D9EF3;fill:color(display-p3 0.4890 0.6197 0.9542);fill-opacity:1;"/>
<path d="M35.3007 23.4551C35.8584 22.8916 35.5699 21.9341 34.7937 21.7726L26.4387 20.0336C25.7359 19.8873 25.1125 20.5073 25.2548 21.2109L26.9644 29.6603C27.1228 30.4434 28.0903 30.7336 28.6536 30.1671L29.7975 29.0168C30.1898 28.6223 30.8286 28.6238 31.219 29.0201L33.994 31.8373C34.3856 32.2349 35.0269 32.2349 35.4186 31.8375L36.9315 30.3025C37.3154 29.913 37.3152 29.2874 36.9311 28.8981L34.1217 26.051C33.737 25.6612 33.7374 25.0344 34.1227 24.6451L35.3007 23.4551Z" fill="#407ADF" style="fill:#407ADF;fill:color(display-p3 0.2510 0.4784 0.8745);fill-opacity:1;"/>
</svg>
