<svg width="40" height="40" viewBox="0 0 40 40" fill="none" xmlns="http://www.w3.org/2000/svg">
<path d="M36 15H4V35H36V15Z" fill="white" style="fill:white;fill-opacity:1;"/>
<path d="M19.9967 25.9938L4 15V35H36V15L19.9967 25.9938Z" fill="#7D9EF3" style="fill:#7D9EF3;fill:color(display-p3 0.4902 0.6196 0.9529);fill-opacity:1;"/>
<path d="M4 35L18.7309 24.4105C19.4917 23.8632 20.5017 23.8632 21.2691 24.4105L36 35H4Z" fill="#407ADF" style="fill:#407ADF;fill:color(display-p3 0.2510 0.4784 0.8745);fill-opacity:1;"/>
<path d="M4 15L18.5592 3.49725C19.3994 2.83425 20.5941 2.83425 21.4343 3.49725L36 15H4Z" fill="#7D9EF3" style="fill:#7D9EF3;fill:color(display-p3 0.4902 0.6196 0.9529);fill-opacity:1;"/>
<path d="M4 12C4 10.8954 4.89543 10 6 10H34C35.1046 10 36 10.8954 36 12V15H4V12Z" fill="white" style="fill:white;fill-opacity:1;"/>
</svg>
