<svg width="40" height="40" viewbox="0 0 40 40" fill="none" xmlns="http://www.w3.org/2000/svg"><rect x="6" y="4" width="27.429" height="32" rx="2" fill="#fff" style="fill:#fff;fill-opacity:1"/><path d="M11.477 11.53h16M11.477 17.297h16M11.477 23.059h16M11.477 28.822h5.715" stroke="#9D9DF0" style="stroke:color(display-p3 .6157 .6157 .9412);stroke-opacity:1" stroke-width="2" stroke-linecap="round"/><path d="M20.224 24.973 33.915 11.28a1.5 1.5 0 0 1 2.121 0l2.418 2.418a1.5 1.5 0 0 1 0 2.121L24.763 29.512l-4.54-4.54Z" fill="#5961CC" style="fill:color(display-p3 .349 .3804 .8);fill-opacity:1"/><path d="m19.466 30.27.756-5.296 4.54 4.539-5.296.757Z" fill="#DDDDF9" style="fill:color(display-p3 .8667 .8667 .9765);fill-opacity:1"/><path d="m19.467 30.268.378-2.648 2.27 2.27-2.648.378Z" fill="#fff" style="fill:#fff;fill-opacity:1"/><path d="m19.467 30.268.378-2.648 2.27 2.27-2.648.378Z" fill="#3C3653" style="fill:color(display-p3 .2338 .2099 .325);fill-opacity:1"/></svg>