<svg width="40" height="40" viewbox="0 0 40 40" fill="none" xmlns="http://www.w3.org/2000/svg"><rect x="7" y="9.75" width="24.063" height="26.25" rx="2" fill="#fff" style="fill:#fff;fill-opacity:1"/><path d="M22.835 12.867v-5.31a3.806 3.806 0 0 0-3.804-3.804 3.806 3.806 0 0 0-3.804 3.803v5.311a1.378 1.378 0 1 1-2.758 0v-5.31A6.557 6.557 0 0 1 19.03 1a6.565 6.565 0 0 1 6.563 6.556v5.311c0 .76-.62 1.38-1.38 1.38-.76 0-1.379-.614-1.379-1.38Z" fill="#9D9DF0" style="fill:color(display-p3 .6157 .6157 .9412);fill-opacity:1"/><path d="M35.3 23.455a1 1 0 0 0-.506-1.682l-8.355-1.74a1 1 0 0 0-1.184 1.178l1.71 8.45a1 1 0 0 0 1.689.506l1.143-1.15a1 1 0 0 1 1.422.003l2.775 2.817a1 1 0 0 0 1.425 0l1.513-1.535a1 1 0 0 0 0-1.404l-2.81-2.847a1 1 0 0 1 0-1.406l1.179-1.19Z" fill="#5961CC" style="fill:color(display-p3 .349 .3804 .8);fill-opacity:1"/></svg>