<svg width="40" height="40" viewbox="0 0 40 40" fill="none" xmlns="http://www.w3.org/2000/svg"><path d="M36 15H4v20h32V15Z" fill="#fff" style="fill:#fff;fill-opacity:1"/><path d="M19.997 25.994 4 15v20h32V15L19.997 25.994Z" fill="#9D9DF0" style="fill:color(display-p3 .6157 .6157 .9412);fill-opacity:1"/><path d="m4 35 14.73-10.59a2.167 2.167 0 0 1 2.54 0L36 35H4Z" fill="#5961CC" style="fill:color(display-p3 .349 .3804 .8);fill-opacity:1"/><path d="M4 15 18.56 3.497a2.327 2.327 0 0 1 2.874 0L36 15H4Z" fill="#9D9DF0" style="fill:color(display-p3 .6157 .6157 .9412);fill-opacity:1"/><path d="M4 12a2 2 0 0 1 2-2h28a2 2 0 0 1 2 2v3H4v-3Z" fill="#fff" style="fill:#fff;fill-opacity:1"/></svg>